<?xml version="1.0" encoding="UTF-8" standalone="no"?>
<!DOCTYPE svg PUBLIC "-//W3C//DTD SVG 1.1//EN"
 "http://www.w3.org/Graphics/SVG/1.1/DTD/svg11.dtd">
<!-- Generated by graphviz version 6.0.1 (0)
 -->
<!-- Title: snakemake_dag Pages: 1 -->
<svg width="539pt" height="620pt"
 viewBox="0.00 0.00 538.50 620.00" xmlns="http://www.w3.org/2000/svg" xmlns:xlink="http://www.w3.org/1999/xlink">
<g id="graph0" class="graph" transform="scale(1 1) rotate(0) translate(4 616)">
<title>snakemake_dag</title>
<polygon fill="white" stroke="none" points="-4,4 -4,-616 534.5,-616 534.5,4 -4,4"/>
<!-- 0 -->
<g id="node1" class="node">
<title>0</title>
<path fill="none" stroke="#d8a456" stroke-width="2" d="M413.5,-36C413.5,-36 383.5,-36 383.5,-36 377.5,-36 371.5,-30 371.5,-24 371.5,-24 371.5,-12 371.5,-12 371.5,-6 377.5,0 383.5,0 383.5,0 413.5,0 413.5,0 419.5,0 425.5,-6 425.5,-12 425.5,-12 425.5,-24 425.5,-24 425.5,-30 419.5,-36 413.5,-36"/>
<text text-anchor="middle" x="398.5" y="-15.5" font-family="sans" font-size="10.00">all</text>
</g>
<!-- 1 -->
<g id="node2" class="node">
<title>1</title>
<path fill="none" stroke="#567bd8" stroke-width="2" d="M268.5,-108C268.5,-108 170.5,-108 170.5,-108 164.5,-108 158.5,-102 158.5,-96 158.5,-96 158.5,-84 158.5,-84 158.5,-78 164.5,-72 170.5,-72 170.5,-72 268.5,-72 268.5,-72 274.5,-72 280.5,-78 280.5,-84 280.5,-84 280.5,-96 280.5,-96 280.5,-102 274.5,-108 268.5,-108"/>
<text text-anchor="middle" x="219.5" y="-87.5" font-family="sans" font-size="10.00">deploy_to_github_pages</text>
</g>
<!-- 1&#45;&gt;0 -->
<g id="edge3" class="edge">
<title>1&#45;&gt;0</title>
<path fill="none" stroke="grey" stroke-width="2" d="M263.29,-71.88C293.47,-60.07 333.14,-44.56 361.69,-33.4"/>
<polygon fill="grey" stroke="grey" stroke-width="2" points="363.25,-36.54 371.29,-29.64 360.7,-30.02 363.25,-36.54"/>
</g>
<!-- 2 -->
<g id="node3" class="node">
<title>2</title>
<path fill="none" stroke="#8fd856" stroke-width="2" d="M79,-180C79,-180 12,-180 12,-180 6,-180 0,-174 0,-168 0,-168 0,-156 0,-156 0,-150 6,-144 12,-144 12,-144 79,-144 79,-144 85,-144 91,-150 91,-156 91,-156 91,-168 91,-168 91,-174 85,-180 79,-180"/>
<text text-anchor="middle" x="45.5" y="-159.5" font-family="sans" font-size="10.00">get_variable_freq</text>
</g>
<!-- 2&#45;&gt;1 -->
<g id="edge5" class="edge">
<title>2&#45;&gt;1</title>
<path fill="none" stroke="grey" stroke-width="2" d="M88.07,-143.88C112.06,-134.22 142.23,-122.09 167.6,-111.88"/>
<polygon fill="grey" stroke="grey" stroke-width="2" points="169.1,-115.05 177.07,-108.07 166.49,-108.55 169.1,-115.05"/>
</g>
<!-- 3 -->
<g id="node4" class="node">
<title>3</title>
<path fill="none" stroke="#56d0d8" stroke-width="2" d="M254.5,-540C254.5,-540 156.5,-540 156.5,-540 150.5,-540 144.5,-534 144.5,-528 144.5,-528 144.5,-516 144.5,-516 144.5,-510 150.5,-504 156.5,-504 156.5,-504 254.5,-504 254.5,-504 260.5,-504 266.5,-510 266.5,-516 266.5,-516 266.5,-528 266.5,-528 266.5,-534 260.5,-540 254.5,-540"/>
<text text-anchor="middle" x="205.5" y="-519.5" font-family="sans" font-size="10.00">process_local_metadata</text>
</g>
<!-- 3&#45;&gt;2 -->
<g id="edge9" class="edge">
<title>3&#45;&gt;2</title>
<path fill="none" stroke="grey" stroke-width="2" d="M158.94,-503.87C110.46,-482.67 41.5,-441.52 41.5,-379 41.5,-379 41.5,-379 41.5,-305 41.5,-264.98 43.11,-218.64 44.28,-190.07"/>
<polygon fill="grey" stroke="grey" stroke-width="2" points="47.78,-190.18 44.71,-180.04 40.79,-189.89 47.78,-190.18"/>
</g>
<!-- 5 -->
<g id="node6" class="node">
<title>5</title>
<path fill="none" stroke="#56d892" stroke-width="2" d="M165.5,-396C165.5,-396 81.5,-396 81.5,-396 75.5,-396 69.5,-390 69.5,-384 69.5,-384 69.5,-372 69.5,-372 69.5,-366 75.5,-360 81.5,-360 81.5,-360 165.5,-360 165.5,-360 171.5,-360 177.5,-366 177.5,-372 177.5,-372 177.5,-384 177.5,-384 177.5,-390 171.5,-396 165.5,-396"/>
<text text-anchor="middle" x="123.5" y="-375.5" font-family="sans" font-size="10.00">plot_sample_location</text>
</g>
<!-- 3&#45;&gt;5 -->
<g id="edge11" class="edge">
<title>3&#45;&gt;5</title>
<path fill="none" stroke="grey" stroke-width="2" d="M195.61,-503.87C181.39,-479.24 155.05,-433.64 138.45,-404.88"/>
<polygon fill="grey" stroke="grey" stroke-width="2" points="141.46,-403.1 133.43,-396.19 135.4,-406.6 141.46,-403.1"/>
</g>
<!-- 6 -->
<g id="node7" class="node">
<title>6</title>
<path fill="none" stroke="#56a9d8" stroke-width="2" d="M233,-252C233,-252 162,-252 162,-252 156,-252 150,-246 150,-240 150,-240 150,-228 150,-228 150,-222 156,-216 162,-216 162,-216 233,-216 233,-216 239,-216 245,-222 245,-228 245,-228 245,-240 245,-240 245,-246 239,-252 233,-252"/>
<text text-anchor="middle" x="197.5" y="-231.5" font-family="sans" font-size="10.00">explore_read_size</text>
</g>
<!-- 3&#45;&gt;6 -->
<g id="edge12" class="edge">
<title>3&#45;&gt;6</title>
<path fill="none" stroke="grey" stroke-width="2" d="M205.02,-503.97C203.69,-456.29 199.91,-321.18 198.27,-262.63"/>
<polygon fill="grey" stroke="grey" stroke-width="2" points="201.76,-262.2 197.98,-252.31 194.77,-262.4 201.76,-262.2"/>
</g>
<!-- 10 -->
<g id="node11" class="node">
<title>10</title>
<path fill="none" stroke="#56d86b" stroke-width="2" d="M325.5,-468C325.5,-468 245.5,-468 245.5,-468 239.5,-468 233.5,-462 233.5,-456 233.5,-456 233.5,-444 233.5,-444 233.5,-438 239.5,-432 245.5,-432 245.5,-432 325.5,-432 325.5,-432 331.5,-432 337.5,-438 337.5,-444 337.5,-444 337.5,-456 337.5,-456 337.5,-462 331.5,-468 325.5,-468"/>
<text text-anchor="middle" x="285.5" y="-447.5" font-family="sans" font-size="10.00">get_sra_accessions</text>
</g>
<!-- 3&#45;&gt;10 -->
<g id="edge17" class="edge">
<title>3&#45;&gt;10</title>
<path fill="none" stroke="grey" stroke-width="2" d="M225.28,-503.7C235.25,-494.97 247.51,-484.24 258.36,-474.75"/>
<polygon fill="grey" stroke="grey" stroke-width="2" points="260.73,-477.32 265.95,-468.1 256.12,-472.06 260.73,-477.32"/>
</g>
<!-- 4 -->
<g id="node5" class="node">
<title>4</title>
<path fill="none" stroke="#d85656" stroke-width="2" d="M325,-612C325,-612 246,-612 246,-612 240,-612 234,-606 234,-600 234,-600 234,-588 234,-588 234,-582 240,-576 246,-576 246,-576 325,-576 325,-576 331,-576 337,-582 337,-588 337,-588 337,-600 337,-600 337,-606 331,-612 325,-612"/>
<text text-anchor="middle" x="285.5" y="-591.5" font-family="sans" font-size="10.00">fetch_sra_metadata</text>
</g>
<!-- 4&#45;&gt;3 -->
<g id="edge10" class="edge">
<title>4&#45;&gt;3</title>
<path fill="none" stroke="grey" stroke-width="2" d="M265.72,-575.7C255.75,-566.97 243.49,-556.24 232.64,-546.75"/>
<polygon fill="grey" stroke="grey" stroke-width="2" points="234.88,-544.06 225.05,-540.1 230.27,-549.32 234.88,-544.06"/>
</g>
<!-- 9 -->
<g id="node10" class="node">
<title>9</title>
<path fill="none" stroke="#d8cb56" stroke-width="2" d="M406.5,-396C406.5,-396 324.5,-396 324.5,-396 318.5,-396 312.5,-390 312.5,-384 312.5,-384 312.5,-372 312.5,-372 312.5,-366 318.5,-360 324.5,-360 324.5,-360 406.5,-360 406.5,-360 412.5,-360 418.5,-366 418.5,-372 418.5,-372 418.5,-384 418.5,-384 418.5,-390 412.5,-396 406.5,-396"/>
<text text-anchor="middle" x="365.5" y="-375.5" font-family="sans" font-size="10.00">download_sra_reads</text>
</g>
<!-- 4&#45;&gt;9 -->
<g id="edge15" class="edge">
<title>4&#45;&gt;9</title>
<path fill="none" stroke="grey" stroke-width="2" d="M295.59,-575.78C309.01,-552.19 332.64,-508.18 346.5,-468 353.49,-447.74 358.4,-423.97 361.48,-406.09"/>
<polygon fill="grey" stroke="grey" stroke-width="2" points="364.96,-406.5 363.12,-396.06 358.05,-405.37 364.96,-406.5"/>
</g>
<!-- 5&#45;&gt;1 -->
<g id="edge7" class="edge">
<title>5&#45;&gt;1</title>
<path fill="none" stroke="grey" stroke-width="2" d="M122.8,-360C122.11,-330.02 123.06,-266.18 140.5,-216 153.61,-178.26 179.99,-140.2 198.64,-116.16"/>
<polygon fill="grey" stroke="grey" stroke-width="2" points="201.43,-118.29 204.89,-108.27 195.94,-113.94 201.43,-118.29"/>
</g>
<!-- 6&#45;&gt;1 -->
<g id="edge8" class="edge">
<title>6&#45;&gt;1</title>
<path fill="none" stroke="grey" stroke-width="2" d="M196.18,-215.76C195.2,-197.69 194.73,-168.58 199.5,-144 201.2,-135.21 204.22,-125.98 207.41,-117.72"/>
<polygon fill="grey" stroke="grey" stroke-width="2" points="210.74,-118.81 211.3,-108.23 204.27,-116.16 210.74,-118.81"/>
</g>
<!-- 7 -->
<g id="node8" class="node">
<title>7</title>
<path fill="none" stroke="#d87d56" stroke-width="2" d="M358,-252C358,-252 275,-252 275,-252 269,-252 263,-246 263,-240 263,-240 263,-228 263,-228 263,-222 269,-216 275,-216 275,-216 358,-216 358,-216 364,-216 370,-222 370,-228 370,-228 370,-240 370,-240 370,-246 364,-252 358,-252"/>
<text text-anchor="middle" x="316.5" y="-231.5" font-family="sans" font-size="10.00">mothur_mapping_file</text>
</g>
<!-- 7&#45;&gt;1 -->
<g id="edge4" class="edge">
<title>7&#45;&gt;1</title>
<path fill="none" stroke="grey" stroke-width="2" d="M321.1,-215.9C325.17,-196.9 328.66,-166.02 315.5,-144 307.57,-130.73 295.01,-120.54 281.55,-112.82"/>
<polygon fill="grey" stroke="grey" stroke-width="2" points="283.1,-109.68 272.62,-108.1 279.82,-115.87 283.1,-109.68"/>
</g>
<!-- 11 -->
<g id="node12" class="node">
<title>11</title>
<path fill="none" stroke="#68d856" stroke-width="2" d="M294.5,-180C294.5,-180 220.5,-180 220.5,-180 214.5,-180 208.5,-174 208.5,-168 208.5,-168 208.5,-156 208.5,-156 208.5,-150 214.5,-144 220.5,-144 220.5,-144 294.5,-144 294.5,-144 300.5,-144 306.5,-150 306.5,-156 306.5,-156 306.5,-168 306.5,-168 306.5,-174 300.5,-180 294.5,-180"/>
<text text-anchor="middle" x="257.5" y="-159.5" font-family="sans" font-size="10.00">mothur_design_file</text>
</g>
<!-- 7&#45;&gt;11 -->
<g id="edge18" class="edge">
<title>7&#45;&gt;11</title>
<path fill="none" stroke="grey" stroke-width="2" d="M301.92,-215.7C294.84,-207.3 286.22,-197.07 278.45,-187.86"/>
<polygon fill="grey" stroke="grey" stroke-width="2" points="281.04,-185.49 271.92,-180.1 275.69,-190.01 281.04,-185.49"/>
</g>
<!-- 8 -->
<g id="node9" class="node">
<title>8</title>
<path fill="none" stroke="#56d8b9" stroke-width="2" d="M357.5,-324C357.5,-324 277.5,-324 277.5,-324 271.5,-324 265.5,-318 265.5,-312 265.5,-312 265.5,-300 265.5,-300 265.5,-294 271.5,-288 277.5,-288 277.5,-288 357.5,-288 357.5,-288 363.5,-288 369.5,-294 369.5,-300 369.5,-300 369.5,-312 369.5,-312 369.5,-318 363.5,-324 357.5,-324"/>
<text text-anchor="middle" x="317.5" y="-303.5" font-family="sans" font-size="10.00">seqkit_simple_stats</text>
</g>
<!-- 8&#45;&gt;7 -->
<g id="edge13" class="edge">
<title>8&#45;&gt;7</title>
<path fill="none" stroke="grey" stroke-width="2" d="M317.25,-287.7C317.14,-279.98 317.01,-270.71 316.89,-262.11"/>
<polygon fill="grey" stroke="grey" stroke-width="2" points="320.39,-262.05 316.74,-252.1 313.39,-262.15 320.39,-262.05"/>
</g>
<!-- 9&#45;&gt;0 -->
<g id="edge1" class="edge">
<title>9&#45;&gt;0</title>
<path fill="none" stroke="grey" stroke-width="2" d="M372.18,-359.81C381.82,-333.4 398.5,-281.06 398.5,-235 398.5,-235 398.5,-235 398.5,-161 398.5,-121 398.5,-74.65 398.5,-46.08"/>
<polygon fill="grey" stroke="grey" stroke-width="2" points="402,-46.05 398.5,-36.05 395,-46.05 402,-46.05"/>
</g>
<!-- 9&#45;&gt;8 -->
<g id="edge14" class="edge">
<title>9&#45;&gt;8</title>
<path fill="none" stroke="grey" stroke-width="2" d="M353.63,-359.7C348,-351.47 341.15,-341.48 334.93,-332.42"/>
<polygon fill="grey" stroke="grey" stroke-width="2" points="337.77,-330.37 329.23,-324.1 332,-334.33 337.77,-330.37"/>
</g>
<!-- 12 -->
<g id="node13" class="node">
<title>12</title>
<path fill="none" stroke="#b6d856" stroke-width="2" d="M518.5,-108C518.5,-108 438.5,-108 438.5,-108 432.5,-108 426.5,-102 426.5,-96 426.5,-96 426.5,-84 426.5,-84 426.5,-78 432.5,-72 438.5,-72 438.5,-72 518.5,-72 518.5,-72 524.5,-72 530.5,-78 530.5,-84 530.5,-84 530.5,-96 530.5,-96 530.5,-102 524.5,-108 518.5,-108"/>
<text text-anchor="middle" x="478.5" y="-87.5" font-family="sans" font-size="10.00">seqkit_subset_fastq</text>
</g>
<!-- 9&#45;&gt;12 -->
<g id="edge19" class="edge">
<title>9&#45;&gt;12</title>
<path fill="none" stroke="grey" stroke-width="2" d="M384.26,-359.93C393.92,-350.23 405.18,-337.38 412.5,-324 450.07,-255.35 467.9,-163.34 474.83,-118.24"/>
<polygon fill="grey" stroke="grey" stroke-width="2" points="478.33,-118.48 476.33,-108.08 471.41,-117.46 478.33,-118.48"/>
</g>
<!-- 10&#45;&gt;9 -->
<g id="edge16" class="edge">
<title>10&#45;&gt;9</title>
<path fill="none" stroke="grey" stroke-width="2" d="M305.28,-431.7C315.25,-422.97 327.51,-412.24 338.36,-402.75"/>
<polygon fill="grey" stroke="grey" stroke-width="2" points="340.73,-405.32 345.95,-396.1 336.12,-400.06 340.73,-405.32"/>
</g>
<!-- 11&#45;&gt;1 -->
<g id="edge6" class="edge">
<title>11&#45;&gt;1</title>
<path fill="none" stroke="grey" stroke-width="2" d="M248.11,-143.7C243.74,-135.64 238.44,-125.89 233.6,-116.98"/>
<polygon fill="grey" stroke="grey" stroke-width="2" points="236.63,-115.22 228.79,-108.1 230.48,-118.56 236.63,-115.22"/>
</g>
<!-- 12&#45;&gt;0 -->
<g id="edge2" class="edge">
<title>12&#45;&gt;0</title>
<path fill="none" stroke="grey" stroke-width="2" d="M458.72,-71.7C448.75,-62.97 436.49,-52.24 425.64,-42.75"/>
<polygon fill="grey" stroke="grey" stroke-width="2" points="427.88,-40.06 418.05,-36.1 423.27,-45.32 427.88,-40.06"/>
</g>
</g>
</svg>
