<?xml version="1.0" encoding="UTF-8" standalone="no"?>
<!DOCTYPE svg PUBLIC "-//W3C//DTD SVG 1.1//EN"
 "http://www.w3.org/Graphics/SVG/1.1/DTD/svg11.dtd">
<!-- Generated by graphviz version 6.0.1 (0)
 -->
<!-- Title: snakemake_dag Pages: 1 -->
<svg width="567pt" height="548pt"
 viewBox="0.00 0.00 567.00 548.00" xmlns="http://www.w3.org/2000/svg" xmlns:xlink="http://www.w3.org/1999/xlink">
<g id="graph0" class="graph" transform="scale(1 1) rotate(0) translate(4 544)">
<title>snakemake_dag</title>
<polygon fill="white" stroke="none" points="-4,4 -4,-544 563,-544 563,4 -4,4"/>
<!-- 0 -->
<g id="node1" class="node">
<title>0</title>
<path fill="none" stroke="#d85656" stroke-width="2" d="M442,-36C442,-36 412,-36 412,-36 406,-36 400,-30 400,-24 400,-24 400,-12 400,-12 400,-6 406,0 412,0 412,0 442,0 442,0 448,0 454,-6 454,-12 454,-12 454,-24 454,-24 454,-30 448,-36 442,-36"/>
<text text-anchor="middle" x="427" y="-15.5" font-family="sans" font-size="10.00">all</text>
</g>
<!-- 1 -->
<g id="node2" class="node">
<title>1</title>
<path fill="none" stroke="#80d856" stroke-width="2" d="M291,-108C291,-108 193,-108 193,-108 187,-108 181,-102 181,-96 181,-96 181,-84 181,-84 181,-78 187,-72 193,-72 193,-72 291,-72 291,-72 297,-72 303,-78 303,-84 303,-84 303,-96 303,-96 303,-102 297,-108 291,-108"/>
<text text-anchor="middle" x="242" y="-87.5" font-family="sans" font-size="10.00">deploy_to_github_pages</text>
</g>
<!-- 1&#45;&gt;0 -->
<g id="edge3" class="edge">
<title>1&#45;&gt;0</title>
<path fill="none" stroke="grey" stroke-width="2" d="M287.26,-71.88C318.97,-59.88 360.82,-44.04 390.42,-32.84"/>
<polygon fill="grey" stroke="grey" stroke-width="2" points="391.85,-36.04 399.96,-29.23 389.37,-29.5 391.85,-36.04"/>
</g>
<!-- 2 -->
<g id="node3" class="node">
<title>2</title>
<path fill="none" stroke="#5682d8" stroke-width="2" d="M172,-396C172,-396 92,-396 92,-396 86,-396 80,-390 80,-384 80,-384 80,-372 80,-372 80,-366 86,-360 92,-360 92,-360 172,-360 172,-360 178,-360 184,-366 184,-372 184,-372 184,-384 184,-384 184,-390 178,-396 172,-396"/>
<text text-anchor="middle" x="132" y="-375.5" font-family="sans" font-size="10.00">ggplot_variable_freq</text>
</g>
<!-- 2&#45;&gt;1 -->
<g id="edge8" class="edge">
<title>2&#45;&gt;1</title>
<path fill="none" stroke="grey" stroke-width="2" d="M130.26,-359.84C127.88,-329.62 125.82,-265.41 145,-216 160.43,-176.26 192.8,-138.76 215.9,-115.39"/>
<polygon fill="grey" stroke="grey" stroke-width="2" points="218.4,-117.84 223.04,-108.32 213.48,-112.87 218.4,-117.84"/>
</g>
<!-- 3 -->
<g id="node4" class="node">
<title>3</title>
<path fill="none" stroke="#d8ac56" stroke-width="2" d="M238,-540C238,-540 146,-540 146,-540 140,-540 134,-534 134,-528 134,-528 134,-516 134,-516 134,-510 140,-504 146,-504 146,-504 238,-504 238,-504 244,-504 250,-510 250,-516 250,-516 250,-528 250,-528 250,-534 244,-540 238,-540"/>
<text text-anchor="middle" x="192" y="-519.5" font-family="sans" font-size="10.00">process_sra_metadata</text>
</g>
<!-- 3&#45;&gt;2 -->
<g id="edge9" class="edge">
<title>3&#45;&gt;2</title>
<path fill="none" stroke="grey" stroke-width="2" d="M184.76,-503.87C174.45,-479.46 155.42,-434.43 143.25,-405.64"/>
<polygon fill="grey" stroke="grey" stroke-width="2" points="146.38,-404.04 139.26,-396.19 139.93,-406.76 146.38,-404.04"/>
</g>
<!-- 4 -->
<g id="node5" class="node">
<title>4</title>
<path fill="none" stroke="#d6d856" stroke-width="2" d="M261.5,-252C261.5,-252 166.5,-252 166.5,-252 160.5,-252 154.5,-246 154.5,-240 154.5,-240 154.5,-228 154.5,-228 154.5,-222 160.5,-216 166.5,-216 166.5,-216 261.5,-216 261.5,-216 267.5,-216 273.5,-222 273.5,-228 273.5,-228 273.5,-240 273.5,-240 273.5,-246 267.5,-252 261.5,-252"/>
<text text-anchor="middle" x="214" y="-231.5" font-family="sans" font-size="10.00">leaflet_sample_location</text>
</g>
<!-- 3&#45;&gt;4 -->
<g id="edge10" class="edge">
<title>3&#45;&gt;4</title>
<path fill="none" stroke="grey" stroke-width="2" d="M193.31,-503.97C196.98,-456.29 207.37,-321.18 211.87,-262.63"/>
<polygon fill="grey" stroke="grey" stroke-width="2" points="215.39,-262.55 212.67,-252.31 208.41,-262.01 215.39,-262.55"/>
</g>
<!-- 5 -->
<g id="node6" class="node">
<title>5</title>
<path fill="none" stroke="#56d8d8" stroke-width="2" d="M86,-180C86,-180 12,-180 12,-180 6,-180 0,-174 0,-168 0,-168 0,-156 0,-156 0,-150 6,-144 12,-144 12,-144 86,-144 86,-144 92,-144 98,-150 98,-156 98,-156 98,-168 98,-168 98,-174 92,-180 86,-180"/>
<text text-anchor="middle" x="49" y="-159.5" font-family="sans" font-size="10.00">R_dplyr_read_size</text>
</g>
<!-- 3&#45;&gt;5 -->
<g id="edge11" class="edge">
<title>3&#45;&gt;5</title>
<path fill="none" stroke="grey" stroke-width="2" d="M155.06,-503.95C112.99,-481.69 50,-438.44 50,-379 50,-379 50,-379 50,-305 50,-265 49.6,-218.65 49.3,-190.08"/>
<polygon fill="grey" stroke="grey" stroke-width="2" points="52.8,-190.01 49.2,-180.05 45.8,-190.09 52.8,-190.01"/>
</g>
<!-- 9 -->
<g id="node10" class="node">
<title>9</title>
<path fill="none" stroke="#56a9d8" stroke-width="2" d="M399,-468C399,-468 319,-468 319,-468 313,-468 307,-462 307,-456 307,-456 307,-444 307,-444 307,-438 313,-432 319,-432 319,-432 399,-432 399,-432 405,-432 411,-438 411,-444 411,-444 411,-456 411,-456 411,-462 405,-468 399,-468"/>
<text text-anchor="middle" x="359" y="-447.5" font-family="sans" font-size="10.00">get_sra_accessions</text>
</g>
<!-- 3&#45;&gt;9 -->
<g id="edge15" class="edge">
<title>3&#45;&gt;9</title>
<path fill="none" stroke="grey" stroke-width="2" d="M232.85,-503.88C255.78,-494.26 284.58,-482.19 308.87,-472.01"/>
<polygon fill="grey" stroke="grey" stroke-width="2" points="310.41,-475.16 318.28,-468.07 307.7,-468.71 310.41,-475.16"/>
</g>
<!-- 4&#45;&gt;1 -->
<g id="edge5" class="edge">
<title>4&#45;&gt;1</title>
<path fill="none" stroke="grey" stroke-width="2" d="M214.17,-215.72C214.67,-197.63 216.39,-168.5 222,-144 224,-135.28 227.1,-126.06 230.28,-117.8"/>
<polygon fill="grey" stroke="grey" stroke-width="2" points="233.61,-118.88 234.11,-108.3 227.12,-116.26 233.61,-118.88"/>
</g>
<!-- 5&#45;&gt;1 -->
<g id="edge7" class="edge">
<title>5&#45;&gt;1</title>
<path fill="none" stroke="grey" stroke-width="2" d="M96.21,-143.88C123.07,-134.14 156.88,-121.87 185.18,-111.61"/>
<polygon fill="grey" stroke="grey" stroke-width="2" points="186.73,-114.77 194.94,-108.07 184.35,-108.19 186.73,-114.77"/>
</g>
<!-- 6 -->
<g id="node7" class="node">
<title>6</title>
<path fill="none" stroke="#56d882" stroke-width="2" d="M386.5,-252C386.5,-252 303.5,-252 303.5,-252 297.5,-252 291.5,-246 291.5,-240 291.5,-240 291.5,-228 291.5,-228 291.5,-222 297.5,-216 303.5,-216 303.5,-216 386.5,-216 386.5,-216 392.5,-216 398.5,-222 398.5,-228 398.5,-228 398.5,-240 398.5,-240 398.5,-246 392.5,-252 386.5,-252"/>
<text text-anchor="middle" x="345" y="-231.5" font-family="sans" font-size="10.00">mothur_mapping_file</text>
</g>
<!-- 6&#45;&gt;1 -->
<g id="edge6" class="edge">
<title>6&#45;&gt;1</title>
<path fill="none" stroke="grey" stroke-width="2" d="M348.18,-215.75C350.74,-196.63 351.94,-165.63 338,-144 329.5,-130.81 316.52,-120.61 302.82,-112.86"/>
<polygon fill="grey" stroke="grey" stroke-width="2" points="304.24,-109.65 293.76,-108.11 300.99,-115.85 304.24,-109.65"/>
</g>
<!-- 10 -->
<g id="node11" class="node">
<title>10</title>
<path fill="none" stroke="#d88556" stroke-width="2" d="M317,-180C317,-180 243,-180 243,-180 237,-180 231,-174 231,-168 231,-168 231,-156 231,-156 231,-150 237,-144 243,-144 243,-144 317,-144 317,-144 323,-144 329,-150 329,-156 329,-156 329,-168 329,-168 329,-174 323,-180 317,-180"/>
<text text-anchor="middle" x="280" y="-159.5" font-family="sans" font-size="10.00">mothur_design_file</text>
</g>
<!-- 6&#45;&gt;10 -->
<g id="edge16" class="edge">
<title>6&#45;&gt;10</title>
<path fill="none" stroke="grey" stroke-width="2" d="M328.93,-215.7C321.06,-207.22 311.44,-196.86 302.83,-187.58"/>
<polygon fill="grey" stroke="grey" stroke-width="2" points="305.25,-185.05 295.88,-180.1 300.12,-189.81 305.25,-185.05"/>
</g>
<!-- 7 -->
<g id="node8" class="node">
<title>7</title>
<path fill="none" stroke="#afd856" stroke-width="2" d="M386,-324C386,-324 306,-324 306,-324 300,-324 294,-318 294,-312 294,-312 294,-300 294,-300 294,-294 300,-288 306,-288 306,-288 386,-288 386,-288 392,-288 398,-294 398,-300 398,-300 398,-312 398,-312 398,-318 392,-324 386,-324"/>
<text text-anchor="middle" x="346" y="-303.5" font-family="sans" font-size="10.00">seqkit_simple_stats</text>
</g>
<!-- 7&#45;&gt;6 -->
<g id="edge12" class="edge">
<title>7&#45;&gt;6</title>
<path fill="none" stroke="grey" stroke-width="2" d="M345.75,-287.7C345.64,-279.98 345.51,-270.71 345.39,-262.11"/>
<polygon fill="grey" stroke="grey" stroke-width="2" points="348.89,-262.05 345.24,-252.1 341.89,-262.15 348.89,-262.05"/>
</g>
<!-- 8 -->
<g id="node9" class="node">
<title>8</title>
<path fill="none" stroke="#59d856" stroke-width="2" d="M434,-396C434,-396 352,-396 352,-396 346,-396 340,-390 340,-384 340,-384 340,-372 340,-372 340,-366 346,-360 352,-360 352,-360 434,-360 434,-360 440,-360 446,-366 446,-372 446,-372 446,-384 446,-384 446,-390 440,-396 434,-396"/>
<text text-anchor="middle" x="393" y="-375.5" font-family="sans" font-size="10.00">download_sra_reads</text>
</g>
<!-- 8&#45;&gt;0 -->
<g id="edge1" class="edge">
<title>8&#45;&gt;0</title>
<path fill="none" stroke="grey" stroke-width="2" d="M399.88,-359.83C409.82,-333.44 427,-281.14 427,-235 427,-235 427,-235 427,-161 427,-121 427,-74.65 427,-46.08"/>
<polygon fill="grey" stroke="grey" stroke-width="2" points="430.5,-46.05 427,-36.05 423.5,-46.05 430.5,-46.05"/>
</g>
<!-- 8&#45;&gt;7 -->
<g id="edge13" class="edge">
<title>8&#45;&gt;7</title>
<path fill="none" stroke="grey" stroke-width="2" d="M381.38,-359.7C375.86,-351.47 369.15,-341.48 363.07,-332.42"/>
<polygon fill="grey" stroke="grey" stroke-width="2" points="365.96,-330.46 357.48,-324.1 360.15,-334.36 365.96,-330.46"/>
</g>
<!-- 11 -->
<g id="node12" class="node">
<title>11</title>
<path fill="none" stroke="#56d8a9" stroke-width="2" d="M547,-108C547,-108 467,-108 467,-108 461,-108 455,-102 455,-96 455,-96 455,-84 455,-84 455,-78 461,-72 467,-72 467,-72 547,-72 547,-72 553,-72 559,-78 559,-84 559,-84 559,-96 559,-96 559,-102 553,-108 547,-108"/>
<text text-anchor="middle" x="507" y="-87.5" font-family="sans" font-size="10.00">seqkit_subset_fastq</text>
</g>
<!-- 8&#45;&gt;11 -->
<g id="edge17" class="edge">
<title>8&#45;&gt;11</title>
<path fill="none" stroke="grey" stroke-width="2" d="M412.17,-360C422.04,-350.32 433.54,-337.46 441,-324 478.93,-255.54 496.6,-163.44 503.41,-118.28"/>
<polygon fill="grey" stroke="grey" stroke-width="2" points="506.92,-118.51 504.88,-108.11 499.99,-117.51 506.92,-118.51"/>
</g>
<!-- 9&#45;&gt;8 -->
<g id="edge14" class="edge">
<title>9&#45;&gt;8</title>
<path fill="none" stroke="grey" stroke-width="2" d="M367.4,-431.7C371.27,-423.73 375.95,-414.1 380.24,-405.26"/>
<polygon fill="grey" stroke="grey" stroke-width="2" points="383.47,-406.63 384.69,-396.1 377.17,-403.57 383.47,-406.63"/>
</g>
<!-- 10&#45;&gt;1 -->
<g id="edge4" class="edge">
<title>10&#45;&gt;1</title>
<path fill="none" stroke="grey" stroke-width="2" d="M270.61,-143.7C266.24,-135.64 260.94,-125.89 256.1,-116.98"/>
<polygon fill="grey" stroke="grey" stroke-width="2" points="259.13,-115.22 251.29,-108.1 252.98,-118.56 259.13,-115.22"/>
</g>
<!-- 11&#45;&gt;0 -->
<g id="edge2" class="edge">
<title>11&#45;&gt;0</title>
<path fill="none" stroke="grey" stroke-width="2" d="M487.22,-71.7C477.25,-62.97 464.99,-52.24 454.14,-42.75"/>
<polygon fill="grey" stroke="grey" stroke-width="2" points="456.38,-40.06 446.55,-36.1 451.77,-45.32 456.38,-40.06"/>
</g>
</g>
</svg>
