<?xml version="1.0" encoding="UTF-8" standalone="no"?>
<!DOCTYPE svg PUBLIC "-//W3C//DTD SVG 1.1//EN"
 "http://www.w3.org/Graphics/SVG/1.1/DTD/svg11.dtd">
<!-- Generated by graphviz version 6.0.1 (0)
 -->
<!-- Title: snakemake_dag Pages: 1 -->
<svg width="539pt" height="548pt"
 viewBox="0.00 0.00 538.50 548.00" xmlns="http://www.w3.org/2000/svg" xmlns:xlink="http://www.w3.org/1999/xlink">
<g id="graph0" class="graph" transform="scale(1 1) rotate(0) translate(4 544)">
<title>snakemake_dag</title>
<polygon fill="white" stroke="none" points="-4,4 -4,-544 534.5,-544 534.5,4 -4,4"/>
<!-- 0 -->
<g id="node1" class="node">
<title>0</title>
<path fill="none" stroke="#68d856" stroke-width="2" d="M413.5,-36C413.5,-36 383.5,-36 383.5,-36 377.5,-36 371.5,-30 371.5,-24 371.5,-24 371.5,-12 371.5,-12 371.5,-6 377.5,0 383.5,0 383.5,0 413.5,0 413.5,0 419.5,0 425.5,-6 425.5,-12 425.5,-12 425.5,-24 425.5,-24 425.5,-30 419.5,-36 413.5,-36"/>
<text text-anchor="middle" x="398.5" y="-15.5" font-family="sans" font-size="10.00">all</text>
</g>
<!-- 1 -->
<g id="node2" class="node">
<title>1</title>
<path fill="none" stroke="#56d892" stroke-width="2" d="M268.5,-108C268.5,-108 170.5,-108 170.5,-108 164.5,-108 158.5,-102 158.5,-96 158.5,-96 158.5,-84 158.5,-84 158.5,-78 164.5,-72 170.5,-72 170.5,-72 268.5,-72 268.5,-72 274.5,-72 280.5,-78 280.5,-84 280.5,-84 280.5,-96 280.5,-96 280.5,-102 274.5,-108 268.5,-108"/>
<text text-anchor="middle" x="219.5" y="-87.5" font-family="sans" font-size="10.00">deploy_to_github_pages</text>
</g>
<!-- 1&#45;&gt;0 -->
<g id="edge1" class="edge">
<title>1&#45;&gt;0</title>
<path fill="none" stroke="grey" stroke-width="2" d="M263.29,-71.88C293.47,-60.07 333.14,-44.56 361.69,-33.4"/>
<polygon fill="grey" stroke="grey" stroke-width="2" points="363.25,-36.54 371.29,-29.64 360.7,-30.02 363.25,-36.54"/>
</g>
<!-- 2 -->
<g id="node3" class="node">
<title>2</title>
<path fill="none" stroke="#d8a456" stroke-width="2" d="M79,-180C79,-180 12,-180 12,-180 6,-180 0,-174 0,-168 0,-168 0,-156 0,-156 0,-150 6,-144 12,-144 12,-144 79,-144 79,-144 85,-144 91,-150 91,-156 91,-156 91,-168 91,-168 91,-174 85,-180 79,-180"/>
<text text-anchor="middle" x="45.5" y="-159.5" font-family="sans" font-size="10.00">get_variable_freq</text>
</g>
<!-- 2&#45;&gt;1 -->
<g id="edge5" class="edge">
<title>2&#45;&gt;1</title>
<path fill="none" stroke="grey" stroke-width="2" d="M88.07,-143.88C112.06,-134.22 142.23,-122.09 167.6,-111.88"/>
<polygon fill="grey" stroke="grey" stroke-width="2" points="169.1,-115.05 177.07,-108.07 166.49,-108.55 169.1,-115.05"/>
</g>
<!-- 3 -->
<g id="node4" class="node">
<title>3</title>
<path fill="none" stroke="#d87d56" stroke-width="2" d="M225.5,-540C225.5,-540 149.5,-540 149.5,-540 143.5,-540 137.5,-534 137.5,-528 137.5,-528 137.5,-516 137.5,-516 137.5,-510 143.5,-504 149.5,-504 149.5,-504 225.5,-504 225.5,-504 231.5,-504 237.5,-510 237.5,-516 237.5,-516 237.5,-528 237.5,-528 237.5,-534 231.5,-540 225.5,-540"/>
<text text-anchor="middle" x="187.5" y="-519.5" font-family="sans" font-size="10.00">get_user_metadata</text>
</g>
<!-- 3&#45;&gt;2 -->
<g id="edge9" class="edge">
<title>3&#45;&gt;2</title>
<path fill="none" stroke="grey" stroke-width="2" d="M148.76,-503.85C105.5,-481.75 41.5,-438.93 41.5,-379 41.5,-379 41.5,-379 41.5,-305 41.5,-264.98 43.11,-218.64 44.28,-190.07"/>
<polygon fill="grey" stroke="grey" stroke-width="2" points="47.78,-190.18 44.71,-180.04 40.79,-189.89 47.78,-190.18"/>
</g>
<!-- 4 -->
<g id="node5" class="node">
<title>4</title>
<path fill="none" stroke="#d85656" stroke-width="2" d="M165.5,-396C165.5,-396 81.5,-396 81.5,-396 75.5,-396 69.5,-390 69.5,-384 69.5,-384 69.5,-372 69.5,-372 69.5,-366 75.5,-360 81.5,-360 81.5,-360 165.5,-360 165.5,-360 171.5,-360 177.5,-366 177.5,-372 177.5,-372 177.5,-384 177.5,-384 177.5,-390 171.5,-396 165.5,-396"/>
<text text-anchor="middle" x="123.5" y="-375.5" font-family="sans" font-size="10.00">plot_sample_location</text>
</g>
<!-- 3&#45;&gt;4 -->
<g id="edge10" class="edge">
<title>3&#45;&gt;4</title>
<path fill="none" stroke="grey" stroke-width="2" d="M179.78,-503.87C168.78,-479.46 148.48,-434.43 135.5,-405.64"/>
<polygon fill="grey" stroke="grey" stroke-width="2" points="138.55,-403.87 131.25,-396.19 132.17,-406.74 138.55,-403.87"/>
</g>
<!-- 5 -->
<g id="node6" class="node">
<title>5</title>
<path fill="none" stroke="#567bd8" stroke-width="2" d="M233,-252C233,-252 162,-252 162,-252 156,-252 150,-246 150,-240 150,-240 150,-228 150,-228 150,-222 156,-216 162,-216 162,-216 233,-216 233,-216 239,-216 245,-222 245,-228 245,-228 245,-240 245,-240 245,-246 239,-252 233,-252"/>
<text text-anchor="middle" x="197.5" y="-231.5" font-family="sans" font-size="10.00">explore_read_size</text>
</g>
<!-- 3&#45;&gt;5 -->
<g id="edge11" class="edge">
<title>3&#45;&gt;5</title>
<path fill="none" stroke="grey" stroke-width="2" d="M188.1,-503.97C189.76,-456.29 194.49,-321.18 196.53,-262.63"/>
<polygon fill="grey" stroke="grey" stroke-width="2" points="200.04,-262.42 196.89,-252.31 193.05,-262.18 200.04,-262.42"/>
</g>
<!-- 9 -->
<g id="node10" class="node">
<title>9</title>
<path fill="none" stroke="#d8cb56" stroke-width="2" d="M341,-468C341,-468 264,-468 264,-468 258,-468 252,-462 252,-456 252,-456 252,-444 252,-444 252,-438 258,-432 264,-432 264,-432 341,-432 341,-432 347,-432 353,-438 353,-444 353,-444 353,-456 353,-456 353,-462 347,-468 341,-468"/>
<text text-anchor="middle" x="302.5" y="-447.5" font-family="sans" font-size="10.00">extract_accessions</text>
</g>
<!-- 3&#45;&gt;9 -->
<g id="edge15" class="edge">
<title>3&#45;&gt;9</title>
<path fill="none" stroke="grey" stroke-width="2" d="M215.63,-503.88C230.67,-494.72 249.37,-483.34 265.56,-473.48"/>
<polygon fill="grey" stroke="grey" stroke-width="2" points="267.54,-476.38 274.26,-468.19 263.9,-470.4 267.54,-476.38"/>
</g>
<!-- 4&#45;&gt;1 -->
<g id="edge4" class="edge">
<title>4&#45;&gt;1</title>
<path fill="none" stroke="grey" stroke-width="2" d="M122.8,-360C122.11,-330.02 123.06,-266.18 140.5,-216 153.61,-178.26 179.99,-140.2 198.64,-116.16"/>
<polygon fill="grey" stroke="grey" stroke-width="2" points="201.43,-118.29 204.89,-108.27 195.94,-113.94 201.43,-118.29"/>
</g>
<!-- 5&#45;&gt;1 -->
<g id="edge8" class="edge">
<title>5&#45;&gt;1</title>
<path fill="none" stroke="grey" stroke-width="2" d="M196.18,-215.76C195.2,-197.69 194.73,-168.58 199.5,-144 201.2,-135.21 204.22,-125.98 207.41,-117.72"/>
<polygon fill="grey" stroke="grey" stroke-width="2" points="210.74,-118.81 211.3,-108.23 204.27,-116.16 210.74,-118.81"/>
</g>
<!-- 6 -->
<g id="node7" class="node">
<title>6</title>
<path fill="none" stroke="#56d0d8" stroke-width="2" d="M358,-252C358,-252 275,-252 275,-252 269,-252 263,-246 263,-240 263,-240 263,-228 263,-228 263,-222 269,-216 275,-216 275,-216 358,-216 358,-216 364,-216 370,-222 370,-228 370,-228 370,-240 370,-240 370,-246 364,-252 358,-252"/>
<text text-anchor="middle" x="316.5" y="-231.5" font-family="sans" font-size="10.00">mothur_mapping_file</text>
</g>
<!-- 6&#45;&gt;1 -->
<g id="edge7" class="edge">
<title>6&#45;&gt;1</title>
<path fill="none" stroke="grey" stroke-width="2" d="M321.1,-215.9C325.17,-196.9 328.66,-166.02 315.5,-144 307.57,-130.73 295.01,-120.54 281.55,-112.82"/>
<polygon fill="grey" stroke="grey" stroke-width="2" points="283.1,-109.68 272.62,-108.1 279.82,-115.87 283.1,-109.68"/>
</g>
<!-- 11 -->
<g id="node12" class="node">
<title>11</title>
<path fill="none" stroke="#8fd856" stroke-width="2" d="M294.5,-180C294.5,-180 220.5,-180 220.5,-180 214.5,-180 208.5,-174 208.5,-168 208.5,-168 208.5,-156 208.5,-156 208.5,-150 214.5,-144 220.5,-144 220.5,-144 294.5,-144 294.5,-144 300.5,-144 306.5,-150 306.5,-156 306.5,-156 306.5,-168 306.5,-168 306.5,-174 300.5,-180 294.5,-180"/>
<text text-anchor="middle" x="257.5" y="-159.5" font-family="sans" font-size="10.00">mothur_design_file</text>
</g>
<!-- 6&#45;&gt;11 -->
<g id="edge17" class="edge">
<title>6&#45;&gt;11</title>
<path fill="none" stroke="grey" stroke-width="2" d="M301.92,-215.7C294.84,-207.3 286.22,-197.07 278.45,-187.86"/>
<polygon fill="grey" stroke="grey" stroke-width="2" points="281.04,-185.49 271.92,-180.1 275.69,-190.01 281.04,-185.49"/>
</g>
<!-- 7 -->
<g id="node8" class="node">
<title>7</title>
<path fill="none" stroke="#56a9d8" stroke-width="2" d="M357.5,-324C357.5,-324 277.5,-324 277.5,-324 271.5,-324 265.5,-318 265.5,-312 265.5,-312 265.5,-300 265.5,-300 265.5,-294 271.5,-288 277.5,-288 277.5,-288 357.5,-288 357.5,-288 363.5,-288 369.5,-294 369.5,-300 369.5,-300 369.5,-312 369.5,-312 369.5,-318 363.5,-324 357.5,-324"/>
<text text-anchor="middle" x="317.5" y="-303.5" font-family="sans" font-size="10.00">seqkit_simple_stats</text>
</g>
<!-- 7&#45;&gt;6 -->
<g id="edge12" class="edge">
<title>7&#45;&gt;6</title>
<path fill="none" stroke="grey" stroke-width="2" d="M317.25,-287.7C317.14,-279.98 317.01,-270.71 316.89,-262.11"/>
<polygon fill="grey" stroke="grey" stroke-width="2" points="320.39,-262.05 316.74,-252.1 313.39,-262.15 320.39,-262.05"/>
</g>
<!-- 8 -->
<g id="node9" class="node">
<title>8</title>
<path fill="none" stroke="#56d86b" stroke-width="2" d="M399.5,-396C399.5,-396 317.5,-396 317.5,-396 311.5,-396 305.5,-390 305.5,-384 305.5,-384 305.5,-372 305.5,-372 305.5,-366 311.5,-360 317.5,-360 317.5,-360 399.5,-360 399.5,-360 405.5,-360 411.5,-366 411.5,-372 411.5,-372 411.5,-384 411.5,-384 411.5,-390 405.5,-396 399.5,-396"/>
<text text-anchor="middle" x="358.5" y="-375.5" font-family="sans" font-size="10.00">download_sra_reads</text>
</g>
<!-- 8&#45;&gt;0 -->
<g id="edge3" class="edge">
<title>8&#45;&gt;0</title>
<path fill="none" stroke="grey" stroke-width="2" d="M366.59,-359.95C378.28,-333.72 398.5,-281.61 398.5,-235 398.5,-235 398.5,-235 398.5,-161 398.5,-121 398.5,-74.65 398.5,-46.08"/>
<polygon fill="grey" stroke="grey" stroke-width="2" points="402,-46.05 398.5,-36.05 395,-46.05 402,-46.05"/>
</g>
<!-- 8&#45;&gt;7 -->
<g id="edge13" class="edge">
<title>8&#45;&gt;7</title>
<path fill="none" stroke="grey" stroke-width="2" d="M348.37,-359.7C343.65,-351.64 337.94,-341.89 332.72,-332.98"/>
<polygon fill="grey" stroke="grey" stroke-width="2" points="335.59,-330.96 327.52,-324.1 329.55,-334.5 335.59,-330.96"/>
</g>
<!-- 12 -->
<g id="node13" class="node">
<title>12</title>
<path fill="none" stroke="#b6d856" stroke-width="2" d="M518.5,-108C518.5,-108 438.5,-108 438.5,-108 432.5,-108 426.5,-102 426.5,-96 426.5,-96 426.5,-84 426.5,-84 426.5,-78 432.5,-72 438.5,-72 438.5,-72 518.5,-72 518.5,-72 524.5,-72 530.5,-78 530.5,-84 530.5,-84 530.5,-96 530.5,-96 530.5,-102 524.5,-108 518.5,-108"/>
<text text-anchor="middle" x="478.5" y="-87.5" font-family="sans" font-size="10.00">seqkit_subset_fastq</text>
</g>
<!-- 8&#45;&gt;12 -->
<g id="edge18" class="edge">
<title>8&#45;&gt;12</title>
<path fill="none" stroke="grey" stroke-width="2" d="M380.68,-359.97C391.68,-350.47 404.32,-337.78 412.5,-324 452.51,-256.55 469.26,-163.68 475.4,-118.25"/>
<polygon fill="grey" stroke="grey" stroke-width="2" points="478.88,-118.64 476.68,-108.28 471.93,-117.75 478.88,-118.64"/>
</g>
<!-- 9&#45;&gt;8 -->
<g id="edge14" class="edge">
<title>9&#45;&gt;8</title>
<path fill="none" stroke="grey" stroke-width="2" d="M316.34,-431.7C322.99,-423.39 331.08,-413.28 338.39,-404.14"/>
<polygon fill="grey" stroke="grey" stroke-width="2" points="341.3,-406.1 344.82,-396.1 335.84,-401.73 341.3,-406.1"/>
</g>
<!-- 10 -->
<g id="node11" class="node">
<title>10</title>
<path fill="none" stroke="#56d8b9" stroke-width="2" d="M336.5,-540C336.5,-540 268.5,-540 268.5,-540 262.5,-540 256.5,-534 256.5,-528 256.5,-528 256.5,-516 256.5,-516 256.5,-510 262.5,-504 268.5,-504 268.5,-504 336.5,-504 336.5,-504 342.5,-504 348.5,-510 348.5,-516 348.5,-516 348.5,-528 348.5,-528 348.5,-534 342.5,-540 336.5,-540"/>
<text text-anchor="middle" x="302.5" y="-519.5" font-family="sans" font-size="10.00">fetch_sra_runinfo</text>
</g>
<!-- 10&#45;&gt;9 -->
<g id="edge16" class="edge">
<title>10&#45;&gt;9</title>
<path fill="none" stroke="grey" stroke-width="2" d="M302.5,-503.7C302.5,-495.98 302.5,-486.71 302.5,-478.11"/>
<polygon fill="grey" stroke="grey" stroke-width="2" points="306,-478.1 302.5,-468.1 299,-478.1 306,-478.1"/>
</g>
<!-- 11&#45;&gt;1 -->
<g id="edge6" class="edge">
<title>11&#45;&gt;1</title>
<path fill="none" stroke="grey" stroke-width="2" d="M248.11,-143.7C243.74,-135.64 238.44,-125.89 233.6,-116.98"/>
<polygon fill="grey" stroke="grey" stroke-width="2" points="236.63,-115.22 228.79,-108.1 230.48,-118.56 236.63,-115.22"/>
</g>
<!-- 12&#45;&gt;0 -->
<g id="edge2" class="edge">
<title>12&#45;&gt;0</title>
<path fill="none" stroke="grey" stroke-width="2" d="M458.72,-71.7C448.75,-62.97 436.49,-52.24 425.64,-42.75"/>
<polygon fill="grey" stroke="grey" stroke-width="2" points="427.88,-40.06 418.05,-36.1 423.27,-45.32 427.88,-40.06"/>
</g>
</g>
</svg>
