<?xml version="1.0" encoding="UTF-8" standalone="no"?>
<!DOCTYPE svg PUBLIC "-//W3C//DTD SVG 1.1//EN"
 "http://www.w3.org/Graphics/SVG/1.1/DTD/svg11.dtd">
<!-- Generated by graphviz version 6.0.1 (0)
 -->
<!-- Title: snakemake_dag Pages: 1 -->
<svg width="319pt" height="116pt"
 viewBox="0.00 0.00 318.50 116.00" xmlns="http://www.w3.org/2000/svg" xmlns:xlink="http://www.w3.org/1999/xlink">
<g id="graph0" class="graph" transform="scale(1 1) rotate(0) translate(4 112)">
<title>snakemake_dag</title>
<polygon fill="white" stroke="none" points="-4,4 -4,-112 314.5,-112 314.5,4 -4,4"/>
<!-- 0 -->
<g id="node1" class="node">
<title>0</title>
<path fill="none" stroke="#d85656" stroke-width="2" d="M178.5,-36C178.5,-36 148.5,-36 148.5,-36 142.5,-36 136.5,-30 136.5,-24 136.5,-24 136.5,-12 136.5,-12 136.5,-6 142.5,0 148.5,0 148.5,0 178.5,0 178.5,0 184.5,0 190.5,-6 190.5,-12 190.5,-12 190.5,-24 190.5,-24 190.5,-30 184.5,-36 178.5,-36"/>
<text text-anchor="middle" x="163.5" y="-15.5" font-family="sans" font-size="10.00">targets</text>
</g>
<!-- 1 -->
<g id="node2" class="node">
<title>1</title>
<path fill="none" stroke="#56d8d8" stroke-width="2" d="M73,-108C73,-108 12,-108 12,-108 6,-108 0,-102 0,-96 0,-96 0,-84 0,-84 0,-78 6,-72 12,-72 12,-72 73,-72 73,-72 79,-72 85,-78 85,-84 85,-84 85,-96 85,-96 85,-102 79,-108 73,-108"/>
<text text-anchor="middle" x="42.5" y="-87.5" font-family="sans" font-size="10.00">basic_rulegraph</text>
</g>
<!-- 1&#45;&gt;0 -->
<g id="edge3" class="edge">
<title>1&#45;&gt;0</title>
<path fill="none" stroke="grey" stroke-width="2" d="M72.1,-71.88C88.78,-62.23 109.75,-50.1 127.39,-39.89"/>
<polygon fill="grey" stroke="grey" stroke-width="2" points="129.37,-42.79 136.27,-34.75 125.87,-36.73 129.37,-42.79"/>
</g>
<!-- 2 -->
<g id="node3" class="node">
<title>2</title>
<path fill="none" stroke="#d6d856" stroke-width="2" d="M212,-108C212,-108 115,-108 115,-108 109,-108 103,-102 103,-96 103,-96 103,-84 103,-84 103,-78 109,-72 115,-72 115,-72 212,-72 212,-72 218,-72 224,-78 224,-84 224,-84 224,-96 224,-96 224,-102 218,-108 212,-108"/>
<text text-anchor="middle" x="163.5" y="-87.5" font-family="sans" font-size="10.00">snakemake_html_report</text>
</g>
<!-- 2&#45;&gt;0 -->
<g id="edge1" class="edge">
<title>2&#45;&gt;0</title>
<path fill="none" stroke="grey" stroke-width="2" d="M163.5,-71.7C163.5,-63.98 163.5,-54.71 163.5,-46.11"/>
<polygon fill="grey" stroke="grey" stroke-width="2" points="167,-46.1 163.5,-36.1 160,-46.1 167,-46.1"/>
</g>
<!-- 3 -->
<g id="node4" class="node">
<title>3</title>
<path fill="none" stroke="#59d856" stroke-width="2" d="M298.5,-108C298.5,-108 254.5,-108 254.5,-108 248.5,-108 242.5,-102 242.5,-96 242.5,-96 242.5,-84 242.5,-84 242.5,-78 248.5,-72 254.5,-72 254.5,-72 298.5,-72 298.5,-72 304.5,-72 310.5,-78 310.5,-84 310.5,-84 310.5,-96 310.5,-96 310.5,-102 304.5,-108 298.5,-108"/>
<text text-anchor="middle" x="276.5" y="-87.5" font-family="sans" font-size="10.00">project_tree</text>
</g>
<!-- 3&#45;&gt;0 -->
<g id="edge2" class="edge">
<title>3&#45;&gt;0</title>
<path fill="none" stroke="grey" stroke-width="2" d="M248.86,-71.88C233.97,-62.66 215.43,-51.17 199.44,-41.26"/>
<polygon fill="grey" stroke="grey" stroke-width="2" points="201.2,-38.24 190.86,-35.95 197.52,-44.19 201.2,-38.24"/>
</g>
</g>
</svg>
