<?xml version="1.0" encoding="UTF-8" standalone="no"?>
<!DOCTYPE svg PUBLIC "-//W3C//DTD SVG 1.1//EN"
 "http://www.w3.org/Graphics/SVG/1.1/DTD/svg11.dtd">
<!-- Generated by graphviz version 6.0.1 (0)
 -->
<!-- Title: snakemake_dag Pages: 1 -->
<svg width="707pt" height="548pt"
 viewBox="0.00 0.00 707.00 548.00" xmlns="http://www.w3.org/2000/svg" xmlns:xlink="http://www.w3.org/1999/xlink">
<g id="graph0" class="graph" transform="scale(1 1) rotate(0) translate(4 544)">
<title>snakemake_dag</title>
<polygon fill="white" stroke="none" points="-4,4 -4,-544 703,-544 703,4 -4,4"/>
<!-- 0 -->
<g id="node1" class="node">
<title>0</title>
<path fill="none" stroke="#70d856" stroke-width="2" d="M543,-36C543,-36 513,-36 513,-36 507,-36 501,-30 501,-24 501,-24 501,-12 501,-12 501,-6 507,0 513,0 513,0 543,0 543,0 549,0 555,-6 555,-12 555,-12 555,-24 555,-24 555,-30 549,-36 543,-36"/>
<text text-anchor="middle" x="528" y="-15.5" font-family="sans" font-size="10.00">all</text>
</g>
<!-- 1 -->
<g id="node2" class="node">
<title>1</title>
<path fill="none" stroke="#5692d8" stroke-width="2" d="M295,-108C295,-108 191,-108 191,-108 185,-108 179,-102 179,-96 179,-96 179,-84 179,-84 179,-78 185,-72 191,-72 191,-72 295,-72 295,-72 301,-72 307,-78 307,-84 307,-84 307,-96 307,-96 307,-102 301,-108 295,-108"/>
<text text-anchor="middle" x="243" y="-87.5" font-family="sans" font-size="10.00">github_summary_website</text>
</g>
<!-- 1&#45;&gt;0 -->
<g id="edge5" class="edge">
<title>1&#45;&gt;0</title>
<path fill="none" stroke="grey" stroke-width="2" d="M307.31,-73.2C363.94,-59.3 444.42,-39.53 490.92,-28.11"/>
<polygon fill="grey" stroke="grey" stroke-width="2" points="491.99,-31.45 500.87,-25.66 490.32,-24.65 491.99,-31.45"/>
</g>
<!-- 2 -->
<g id="node3" class="node">
<title>2</title>
<path fill="none" stroke="#d85656" stroke-width="2" d="M133.5,-180C133.5,-180 82.5,-180 82.5,-180 76.5,-180 70.5,-174 70.5,-168 70.5,-168 70.5,-156 70.5,-156 70.5,-150 76.5,-144 82.5,-144 82.5,-144 133.5,-144 133.5,-144 139.5,-144 145.5,-150 145.5,-156 145.5,-156 145.5,-168 145.5,-168 145.5,-174 139.5,-180 133.5,-180"/>
<text text-anchor="middle" x="108" y="-159.5" font-family="sans" font-size="10.00">dot_rulegraph</text>
</g>
<!-- 2&#45;&gt;1 -->
<g id="edge6" class="edge">
<title>2&#45;&gt;1</title>
<path fill="none" stroke="grey" stroke-width="2" d="M141.02,-143.88C159.08,-134.51 181.65,-122.81 200.95,-112.8"/>
<polygon fill="grey" stroke="grey" stroke-width="2" points="202.58,-115.9 209.85,-108.19 199.36,-109.69 202.58,-115.9"/>
</g>
<!-- 3 -->
<g id="node4" class="node">
<title>3</title>
<path fill="none" stroke="#5673d8" stroke-width="2" d="M170,-252C170,-252 90,-252 90,-252 84,-252 78,-246 78,-240 78,-240 78,-228 78,-228 78,-222 84,-216 90,-216 90,-216 170,-216 170,-216 176,-216 182,-222 182,-228 182,-228 182,-240 182,-240 182,-246 176,-252 170,-252"/>
<text text-anchor="middle" x="130" y="-231.5" font-family="sans" font-size="10.00">ggplot_variable_freq</text>
</g>
<!-- 3&#45;&gt;1 -->
<g id="edge12" class="edge">
<title>3&#45;&gt;1</title>
<path fill="none" stroke="grey" stroke-width="2" d="M142.78,-215.74C156.26,-197.65 178.24,-168.53 198,-144 205.42,-134.79 213.76,-124.86 221.22,-116.12"/>
<polygon fill="grey" stroke="grey" stroke-width="2" points="223.92,-118.35 227.77,-108.48 218.6,-113.79 223.92,-118.35"/>
</g>
<!-- 4 -->
<g id="node5" class="node">
<title>4</title>
<path fill="none" stroke="#c6d856" stroke-width="2" d="M218,-540C218,-540 126,-540 126,-540 120,-540 114,-534 114,-528 114,-528 114,-516 114,-516 114,-510 120,-504 126,-504 126,-504 218,-504 218,-504 224,-504 230,-510 230,-516 230,-516 230,-528 230,-528 230,-534 224,-540 218,-540"/>
<text text-anchor="middle" x="172" y="-519.5" font-family="sans" font-size="10.00">process_sra_metadata</text>
</g>
<!-- 4&#45;&gt;3 -->
<g id="edge13" class="edge">
<title>4&#45;&gt;3</title>
<path fill="none" stroke="grey" stroke-width="2" d="M161.98,-503.95C156.56,-493.85 150.31,-480.6 147,-468 127.96,-395.49 127.55,-306.22 128.8,-262.2"/>
<polygon fill="grey" stroke="grey" stroke-width="2" points="132.3,-262.13 129.14,-252.01 125.3,-261.89 132.3,-262.13"/>
</g>
<!-- 5 -->
<g id="node6" class="node">
<title>5</title>
<path fill="none" stroke="#56c9d8" stroke-width="2" d="M263.5,-468C263.5,-468 168.5,-468 168.5,-468 162.5,-468 156.5,-462 156.5,-456 156.5,-456 156.5,-444 156.5,-444 156.5,-438 162.5,-432 168.5,-432 168.5,-432 263.5,-432 263.5,-432 269.5,-432 275.5,-438 275.5,-444 275.5,-444 275.5,-456 275.5,-456 275.5,-462 269.5,-468 263.5,-468"/>
<text text-anchor="middle" x="216" y="-447.5" font-family="sans" font-size="10.00">leaflet_sample_location</text>
</g>
<!-- 4&#45;&gt;5 -->
<g id="edge14" class="edge">
<title>4&#45;&gt;5</title>
<path fill="none" stroke="grey" stroke-width="2" d="M182.88,-503.7C187.99,-495.56 194.2,-485.69 199.84,-476.7"/>
<polygon fill="grey" stroke="grey" stroke-width="2" points="202.89,-478.43 205.25,-468.1 196.96,-474.71 202.89,-478.43"/>
</g>
<!-- 7 -->
<g id="node8" class="node">
<title>7</title>
<path fill="none" stroke="#d8ac56" stroke-width="2" d="M86,-396C86,-396 12,-396 12,-396 6,-396 0,-390 0,-384 0,-384 0,-372 0,-372 0,-366 6,-360 12,-360 12,-360 86,-360 86,-360 92,-360 98,-366 98,-372 98,-372 98,-384 98,-384 98,-390 92,-396 86,-396"/>
<text text-anchor="middle" x="49" y="-375.5" font-family="sans" font-size="10.00">R_dplyr_read_size</text>
</g>
<!-- 4&#45;&gt;7 -->
<g id="edge15" class="edge">
<title>4&#45;&gt;7</title>
<path fill="none" stroke="grey" stroke-width="2" d="M151.19,-503.78C139.7,-493.84 125.47,-480.8 114,-468 96,-447.92 78.12,-422.97 65.68,-404.6"/>
<polygon fill="grey" stroke="grey" stroke-width="2" points="68.51,-402.53 60.04,-396.17 62.69,-406.42 68.51,-402.53"/>
</g>
<!-- 11 -->
<g id="node12" class="node">
<title>11</title>
<path fill="none" stroke="#56a9d8" stroke-width="2" d="M439,-468C439,-468 359,-468 359,-468 353,-468 347,-462 347,-456 347,-456 347,-444 347,-444 347,-438 353,-432 359,-432 359,-432 439,-432 439,-432 445,-432 451,-438 451,-444 451,-444 451,-456 451,-456 451,-462 445,-468 439,-468"/>
<text text-anchor="middle" x="399" y="-447.5" font-family="sans" font-size="10.00">get_sra_accessions</text>
</g>
<!-- 4&#45;&gt;11 -->
<g id="edge19" class="edge">
<title>4&#45;&gt;11</title>
<path fill="none" stroke="grey" stroke-width="2" d="M227.24,-503.97C260.33,-493.76 302.47,-480.77 336.74,-470.2"/>
<polygon fill="grey" stroke="grey" stroke-width="2" points="338.11,-473.44 346.64,-467.15 336.05,-466.75 338.11,-473.44"/>
</g>
<!-- 5&#45;&gt;1 -->
<g id="edge11" class="edge">
<title>5&#45;&gt;1</title>
<path fill="none" stroke="grey" stroke-width="2" d="M215.21,-431.96C214.04,-405.3 212,-352.13 212,-307 212,-307 212,-307 212,-233 212,-192.1 224.43,-146.06 233.55,-117.79"/>
<polygon fill="grey" stroke="grey" stroke-width="2" points="236.89,-118.82 236.73,-108.22 230.25,-116.61 236.89,-118.82"/>
</g>
<!-- 6 -->
<g id="node7" class="node">
<title>6</title>
<path fill="none" stroke="#d88d56" stroke-width="2" d="M296,-180C296,-180 252,-180 252,-180 246,-180 240,-174 240,-168 240,-168 240,-156 240,-156 240,-150 246,-144 252,-144 252,-144 296,-144 296,-144 302,-144 308,-150 308,-156 308,-156 308,-168 308,-168 308,-174 302,-180 296,-180"/>
<text text-anchor="middle" x="274" y="-159.5" font-family="sans" font-size="10.00">project_tree</text>
</g>
<!-- 6&#45;&gt;1 -->
<g id="edge7" class="edge">
<title>6&#45;&gt;1</title>
<path fill="none" stroke="grey" stroke-width="2" d="M266.34,-143.7C262.81,-135.73 258.54,-126.1 254.63,-117.26"/>
<polygon fill="grey" stroke="grey" stroke-width="2" points="257.82,-115.83 250.57,-108.1 251.42,-118.67 257.82,-115.83"/>
</g>
<!-- 7&#45;&gt;1 -->
<g id="edge8" class="edge">
<title>7&#45;&gt;1</title>
<path fill="none" stroke="grey" stroke-width="2" d="M43.85,-359.78C32.44,-317.74 9.85,-208.64 61,-144 74.81,-126.55 124.84,-112.74 168.96,-103.6"/>
<polygon fill="grey" stroke="grey" stroke-width="2" points="169.74,-107.01 178.85,-101.61 168.36,-100.15 169.74,-107.01"/>
</g>
<!-- 8 -->
<g id="node9" class="node">
<title>8</title>
<path fill="none" stroke="#afd856" stroke-width="2" d="M449.5,-252C449.5,-252 366.5,-252 366.5,-252 360.5,-252 354.5,-246 354.5,-240 354.5,-240 354.5,-228 354.5,-228 354.5,-222 360.5,-216 366.5,-216 366.5,-216 449.5,-216 449.5,-216 455.5,-216 461.5,-222 461.5,-228 461.5,-228 461.5,-240 461.5,-240 461.5,-246 455.5,-252 449.5,-252"/>
<text text-anchor="middle" x="408" y="-231.5" font-family="sans" font-size="10.00">mothur_mapping_file</text>
</g>
<!-- 8&#45;&gt;1 -->
<g id="edge10" class="edge">
<title>8&#45;&gt;1</title>
<path fill="none" stroke="grey" stroke-width="2" d="M390.72,-215.82C366.51,-191.79 324.62,-150.39 317,-144 304.6,-133.6 290.29,-123.05 277.57,-114.12"/>
<polygon fill="grey" stroke="grey" stroke-width="2" points="279.28,-111.04 269.07,-108.22 275.29,-116.8 279.28,-111.04"/>
</g>
<!-- 12 -->
<g id="node13" class="node">
<title>12</title>
<path fill="none" stroke="#d8cb56" stroke-width="2" d="M450,-180C450,-180 376,-180 376,-180 370,-180 364,-174 364,-168 364,-168 364,-156 364,-156 364,-150 370,-144 376,-144 376,-144 450,-144 450,-144 456,-144 462,-150 462,-156 462,-156 462,-168 462,-168 462,-174 456,-180 450,-180"/>
<text text-anchor="middle" x="413" y="-159.5" font-family="sans" font-size="10.00">mothur_design_file</text>
</g>
<!-- 8&#45;&gt;12 -->
<g id="edge20" class="edge">
<title>8&#45;&gt;12</title>
<path fill="none" stroke="grey" stroke-width="2" d="M409.24,-215.7C409.79,-207.98 410.45,-198.71 411.06,-190.11"/>
<polygon fill="grey" stroke="grey" stroke-width="2" points="414.56,-190.33 411.78,-180.1 407.57,-189.83 414.56,-190.33"/>
</g>
<!-- 9 -->
<g id="node10" class="node">
<title>9</title>
<path fill="none" stroke="#56d873" stroke-width="2" d="M449,-324C449,-324 369,-324 369,-324 363,-324 357,-318 357,-312 357,-312 357,-300 357,-300 357,-294 363,-288 369,-288 369,-288 449,-288 449,-288 455,-288 461,-294 461,-300 461,-300 461,-312 461,-312 461,-318 455,-324 449,-324"/>
<text text-anchor="middle" x="409" y="-303.5" font-family="sans" font-size="10.00">seqkit_simple_stats</text>
</g>
<!-- 9&#45;&gt;8 -->
<g id="edge16" class="edge">
<title>9&#45;&gt;8</title>
<path fill="none" stroke="grey" stroke-width="2" d="M408.75,-287.7C408.64,-279.98 408.51,-270.71 408.39,-262.11"/>
<polygon fill="grey" stroke="grey" stroke-width="2" points="411.89,-262.05 408.24,-252.1 404.89,-262.15 411.89,-262.05"/>
</g>
<!-- 10 -->
<g id="node11" class="node">
<title>10</title>
<path fill="none" stroke="#56d892" stroke-width="2" d="M491,-396C491,-396 409,-396 409,-396 403,-396 397,-390 397,-384 397,-384 397,-372 397,-372 397,-366 403,-360 409,-360 409,-360 491,-360 491,-360 497,-360 503,-366 503,-372 503,-372 503,-384 503,-384 503,-390 497,-396 491,-396"/>
<text text-anchor="middle" x="450" y="-375.5" font-family="sans" font-size="10.00">download_sra_reads</text>
</g>
<!-- 10&#45;&gt;0 -->
<g id="edge4" class="edge">
<title>10&#45;&gt;0</title>
<path fill="none" stroke="grey" stroke-width="2" d="M458.09,-359.95C469.78,-333.72 490,-281.61 490,-235 490,-235 490,-235 490,-161 490,-119.63 505.23,-73.72 516.41,-45.61"/>
<polygon fill="grey" stroke="grey" stroke-width="2" points="519.76,-46.67 520.31,-36.09 513.28,-44.02 519.76,-46.67"/>
</g>
<!-- 10&#45;&gt;9 -->
<g id="edge17" class="edge">
<title>10&#45;&gt;9</title>
<path fill="none" stroke="grey" stroke-width="2" d="M439.87,-359.7C435.15,-351.64 429.44,-341.89 424.22,-332.98"/>
<polygon fill="grey" stroke="grey" stroke-width="2" points="427.09,-330.96 419.02,-324.1 421.05,-334.5 427.09,-330.96"/>
</g>
<!-- 13 -->
<g id="node14" class="node">
<title>13</title>
<path fill="none" stroke="#8fd856" stroke-width="2" d="M610,-324C610,-324 530,-324 530,-324 524,-324 518,-318 518,-312 518,-312 518,-300 518,-300 518,-294 524,-288 530,-288 530,-288 610,-288 610,-288 616,-288 622,-294 622,-300 622,-300 622,-312 622,-312 622,-318 616,-324 610,-324"/>
<text text-anchor="middle" x="570" y="-303.5" font-family="sans" font-size="10.00">seqkit_subset_fastq</text>
</g>
<!-- 10&#45;&gt;13 -->
<g id="edge21" class="edge">
<title>10&#45;&gt;13</title>
<path fill="none" stroke="grey" stroke-width="2" d="M479.36,-359.88C495.05,-350.72 514.56,-339.34 531.45,-329.48"/>
<polygon fill="grey" stroke="grey" stroke-width="2" points="533.66,-332.25 540.53,-324.19 530.13,-326.21 533.66,-332.25"/>
</g>
<!-- 11&#45;&gt;10 -->
<g id="edge18" class="edge">
<title>11&#45;&gt;10</title>
<path fill="none" stroke="grey" stroke-width="2" d="M411.61,-431.7C417.6,-423.47 424.88,-413.48 431.48,-404.42"/>
<polygon fill="grey" stroke="grey" stroke-width="2" points="434.48,-406.25 437.54,-396.1 428.82,-402.13 434.48,-406.25"/>
</g>
<!-- 12&#45;&gt;1 -->
<g id="edge9" class="edge">
<title>12&#45;&gt;1</title>
<path fill="none" stroke="grey" stroke-width="2" d="M371.41,-143.88C347.97,-134.22 318.5,-122.09 293.7,-111.88"/>
<polygon fill="grey" stroke="grey" stroke-width="2" points="295.03,-108.64 284.45,-108.07 292.37,-115.11 295.03,-108.64"/>
</g>
<!-- 13&#45;&gt;0 -->
<g id="edge1" class="edge">
<title>13&#45;&gt;0</title>
<path fill="none" stroke="grey" stroke-width="2" d="M567.5,-287.97C560.48,-240.19 540.57,-104.62 532,-46.27"/>
<polygon fill="grey" stroke="grey" stroke-width="2" points="535.46,-45.69 530.54,-36.31 528.53,-46.71 535.46,-45.69"/>
</g>
<!-- 14 -->
<g id="node15" class="node">
<title>14</title>
<path fill="none" stroke="#56d8a9" stroke-width="2" d="M687,-180C687,-180 613,-180 613,-180 607,-180 601,-174 601,-168 601,-168 601,-156 601,-156 601,-150 607,-144 613,-144 613,-144 687,-144 687,-144 693,-144 699,-150 699,-156 699,-156 699,-168 699,-168 699,-174 693,-180 687,-180"/>
<text text-anchor="middle" x="650" y="-159.5" font-family="sans" font-size="10.00">mothur_references</text>
</g>
<!-- 14&#45;&gt;0 -->
<g id="edge2" class="edge">
<title>14&#45;&gt;0</title>
<path fill="none" stroke="grey" stroke-width="2" d="M661.24,-143.74C672.13,-124.61 684.99,-93.6 670,-72 646.54,-38.21 598.78,-25.92 565.15,-21.48"/>
<polygon fill="grey" stroke="grey" stroke-width="2" points="565.54,-18 555.21,-20.34 564.74,-24.96 565.54,-18"/>
</g>
<!-- 15 -->
<g id="node16" class="node">
<title>15</title>
<path fill="none" stroke="#56d8c9" stroke-width="2" d="M649.5,-108C649.5,-108 568.5,-108 568.5,-108 562.5,-108 556.5,-102 556.5,-96 556.5,-96 556.5,-84 556.5,-84 556.5,-78 562.5,-72 568.5,-72 568.5,-72 649.5,-72 649.5,-72 655.5,-72 661.5,-78 661.5,-84 661.5,-84 661.5,-96 661.5,-96 661.5,-102 655.5,-108 649.5,-108"/>
<text text-anchor="middle" x="609" y="-87.5" font-family="sans" font-size="10.00">mothur_zymo_mock</text>
</g>
<!-- 14&#45;&gt;15 -->
<g id="edge22" class="edge">
<title>14&#45;&gt;15</title>
<path fill="none" stroke="grey" stroke-width="2" d="M639.87,-143.7C635.15,-135.64 629.44,-125.89 624.22,-116.98"/>
<polygon fill="grey" stroke="grey" stroke-width="2" points="627.09,-114.96 619.02,-108.1 621.05,-118.5 627.09,-114.96"/>
</g>
<!-- 15&#45;&gt;0 -->
<g id="edge3" class="edge">
<title>15&#45;&gt;0</title>
<path fill="none" stroke="grey" stroke-width="2" d="M588.98,-71.7C578.87,-62.97 566.46,-52.24 555.48,-42.75"/>
<polygon fill="grey" stroke="grey" stroke-width="2" points="557.65,-39.99 547.79,-36.1 553.07,-45.29 557.65,-39.99"/>
</g>
</g>
</svg>
