<?xml version="1.0" encoding="UTF-8" standalone="no"?>
<!DOCTYPE svg PUBLIC "-//W3C//DTD SVG 1.1//EN"
 "http://www.w3.org/Graphics/SVG/1.1/DTD/svg11.dtd">
<!-- Generated by graphviz version 6.0.1 (0)
 -->
<!-- Title: snakemake_dag Pages: 1 -->
<svg width="782pt" height="476pt"
 viewBox="0.00 0.00 782.00 476.00" xmlns="http://www.w3.org/2000/svg" xmlns:xlink="http://www.w3.org/1999/xlink">
<g id="graph0" class="graph" transform="scale(1 1) rotate(0) translate(4 472)">
<title>snakemake_dag</title>
<polygon fill="white" stroke="none" points="-4,4 -4,-472 778,-472 778,4 -4,4"/>
<!-- 0 -->
<g id="node1" class="node">
<title>0</title>
<path fill="none" stroke="#56d89a" stroke-width="2" d="M577,-36C577,-36 547,-36 547,-36 541,-36 535,-30 535,-24 535,-24 535,-12 535,-12 535,-6 541,0 547,0 547,0 577,0 577,0 583,0 589,-6 589,-12 589,-12 589,-24 589,-24 589,-30 583,-36 577,-36"/>
<text text-anchor="middle" x="562" y="-15.5" font-family="sans" font-size="10.00">all</text>
</g>
<!-- 1 -->
<g id="node2" class="node">
<title>1</title>
<path fill="none" stroke="#d89556" stroke-width="2" d="M335,-108C335,-108 261,-108 261,-108 255,-108 249,-102 249,-96 249,-96 249,-84 249,-84 249,-78 255,-72 261,-72 261,-72 335,-72 335,-72 341,-72 347,-78 347,-84 347,-84 347,-96 347,-96 347,-102 341,-108 335,-108"/>
<text text-anchor="middle" x="298" y="-87.5" font-family="sans" font-size="10.00">github_page_index</text>
</g>
<!-- 1&#45;&gt;0 -->
<g id="edge6" class="edge">
<title>1&#45;&gt;0</title>
<path fill="none" stroke="grey" stroke-width="2" d="M347.04,-76C398.58,-62.33 478.49,-41.14 524.99,-28.81"/>
<polygon fill="grey" stroke="grey" stroke-width="2" points="525.89,-32.2 534.66,-26.25 524.09,-25.43 525.89,-32.2"/>
</g>
<!-- 2 -->
<g id="node3" class="node">
<title>2</title>
<path fill="none" stroke="#d8b456" stroke-width="2" d="M323.5,-180C323.5,-180 272.5,-180 272.5,-180 266.5,-180 260.5,-174 260.5,-168 260.5,-168 260.5,-156 260.5,-156 260.5,-150 266.5,-144 272.5,-144 272.5,-144 323.5,-144 323.5,-144 329.5,-144 335.5,-150 335.5,-156 335.5,-156 335.5,-168 335.5,-168 335.5,-174 329.5,-180 323.5,-180"/>
<text text-anchor="middle" x="298" y="-159.5" font-family="sans" font-size="10.00">get_rulegraph</text>
</g>
<!-- 2&#45;&gt;1 -->
<g id="edge9" class="edge">
<title>2&#45;&gt;1</title>
<path fill="none" stroke="grey" stroke-width="2" d="M298,-143.7C298,-135.98 298,-126.71 298,-118.11"/>
<polygon fill="grey" stroke="grey" stroke-width="2" points="301.5,-118.1 298,-108.1 294.5,-118.1 301.5,-118.1"/>
</g>
<!-- 3 -->
<g id="node4" class="node">
<title>3</title>
<path fill="none" stroke="#97d856" stroke-width="2" d="M76,-324C76,-324 12,-324 12,-324 6,-324 0,-318 0,-312 0,-312 0,-300 0,-300 0,-294 6,-288 12,-288 12,-288 76,-288 76,-288 82,-288 88,-294 88,-300 88,-300 88,-312 88,-312 88,-318 82,-324 76,-324"/>
<text text-anchor="middle" x="44" y="-303.5" font-family="sans" font-size="10.00">get_sample_gps</text>
</g>
<!-- 3&#45;&gt;1 -->
<g id="edge10" class="edge">
<title>3&#45;&gt;1</title>
<path fill="none" stroke="grey" stroke-width="2" d="M45.12,-287.86C48.22,-255 59.72,-182.96 102,-144 139.08,-109.83 195.91,-97.3 238.85,-92.89"/>
<polygon fill="grey" stroke="grey" stroke-width="2" points="239.24,-96.37 248.89,-91.98 238.61,-89.4 239.24,-96.37"/>
</g>
<!-- 4 -->
<g id="node5" class="node">
<title>4</title>
<path fill="none" stroke="#56d8b9" stroke-width="2" d="M401,-468C401,-468 309,-468 309,-468 303,-468 297,-462 297,-456 297,-456 297,-444 297,-444 297,-438 303,-432 309,-432 309,-432 401,-432 401,-432 407,-432 413,-438 413,-444 413,-444 413,-456 413,-456 413,-462 407,-468 401,-468"/>
<text text-anchor="middle" x="355" y="-447.5" font-family="sans" font-size="10.00">process_sra_metadata</text>
</g>
<!-- 4&#45;&gt;3 -->
<g id="edge14" class="edge">
<title>4&#45;&gt;3</title>
<path fill="none" stroke="grey" stroke-width="2" d="M317.49,-431.87C260.63,-405.91 152.72,-356.64 90.81,-328.37"/>
<polygon fill="grey" stroke="grey" stroke-width="2" points="92.2,-325.16 81.65,-324.19 89.29,-331.53 92.2,-325.16"/>
</g>
<!-- 6 -->
<g id="node7" class="node">
<title>6</title>
<path fill="none" stroke="#b6d856" stroke-width="2" d="M331.5,-396C331.5,-396 260.5,-396 260.5,-396 254.5,-396 248.5,-390 248.5,-384 248.5,-384 248.5,-372 248.5,-372 248.5,-366 254.5,-360 260.5,-360 260.5,-360 331.5,-360 331.5,-360 337.5,-360 343.5,-366 343.5,-372 343.5,-372 343.5,-384 343.5,-384 343.5,-390 337.5,-396 331.5,-396"/>
<text text-anchor="middle" x="296" y="-375.5" font-family="sans" font-size="10.00">explore_read_size</text>
</g>
<!-- 4&#45;&gt;6 -->
<g id="edge15" class="edge">
<title>4&#45;&gt;6</title>
<path fill="none" stroke="grey" stroke-width="2" d="M340.42,-431.7C333.34,-423.3 324.72,-413.07 316.95,-403.86"/>
<polygon fill="grey" stroke="grey" stroke-width="2" points="319.54,-401.49 310.42,-396.1 314.19,-406.01 319.54,-401.49"/>
</g>
<!-- 9 -->
<g id="node10" class="node">
<title>9</title>
<path fill="none" stroke="#d85656" stroke-width="2" d="M516,-396C516,-396 434,-396 434,-396 428,-396 422,-390 422,-384 422,-384 422,-372 422,-372 422,-366 428,-360 434,-360 434,-360 516,-360 516,-360 522,-360 528,-366 528,-372 528,-372 528,-384 528,-384 528,-390 522,-396 516,-396"/>
<text text-anchor="middle" x="475" y="-375.5" font-family="sans" font-size="10.00">download_sra_reads</text>
</g>
<!-- 4&#45;&gt;9 -->
<g id="edge18" class="edge">
<title>4&#45;&gt;9</title>
<path fill="none" stroke="grey" stroke-width="2" d="M384.36,-431.88C400.05,-422.72 419.56,-411.34 436.45,-401.48"/>
<polygon fill="grey" stroke="grey" stroke-width="2" points="438.66,-404.25 445.53,-396.19 435.13,-398.21 438.66,-404.25"/>
</g>
<!-- 11 -->
<g id="node12" class="node">
<title>11</title>
<path fill="none" stroke="#569ad8" stroke-width="2" d="M710.5,-252C710.5,-252 641.5,-252 641.5,-252 635.5,-252 629.5,-246 629.5,-240 629.5,-240 629.5,-228 629.5,-228 629.5,-222 635.5,-216 641.5,-216 641.5,-216 710.5,-216 710.5,-216 716.5,-216 722.5,-222 722.5,-228 722.5,-228 722.5,-240 722.5,-240 722.5,-246 716.5,-252 710.5,-252"/>
<text text-anchor="middle" x="676" y="-231.5" font-family="sans" font-size="10.00">plot_variable_freq</text>
</g>
<!-- 4&#45;&gt;11 -->
<g id="edge20" class="edge">
<title>4&#45;&gt;11</title>
<path fill="none" stroke="grey" stroke-width="2" d="M413.07,-440.85C450.69,-433.54 499.48,-420.1 537,-396 592.19,-360.55 637.71,-296.78 660.41,-261.06"/>
<polygon fill="grey" stroke="grey" stroke-width="2" points="663.62,-262.53 665.94,-252.2 657.68,-258.83 663.62,-262.53"/>
</g>
<!-- 5 -->
<g id="node6" class="node">
<title>5</title>
<path fill="none" stroke="#59d856" stroke-width="2" d="M483.5,-180C483.5,-180 404.5,-180 404.5,-180 398.5,-180 392.5,-174 392.5,-168 392.5,-168 392.5,-156 392.5,-156 392.5,-150 398.5,-144 404.5,-144 404.5,-144 483.5,-144 483.5,-144 489.5,-144 495.5,-150 495.5,-156 495.5,-156 495.5,-168 495.5,-168 495.5,-174 489.5,-180 483.5,-180"/>
<text text-anchor="middle" x="444" y="-159.5" font-family="sans" font-size="10.00">get_project_tree_txt</text>
</g>
<!-- 5&#45;&gt;0 -->
<g id="edge4" class="edge">
<title>5&#45;&gt;0</title>
<path fill="none" stroke="grey" stroke-width="2" d="M455.74,-143.74C468.45,-125.4 489.63,-95.84 510,-72 518.37,-62.2 528.14,-51.97 536.93,-43.14"/>
<polygon fill="grey" stroke="grey" stroke-width="2" points="539.4,-45.62 544.04,-36.09 534.47,-40.65 539.4,-45.62"/>
</g>
<!-- 5&#45;&gt;1 -->
<g id="edge12" class="edge">
<title>5&#45;&gt;1</title>
<path fill="none" stroke="grey" stroke-width="2" d="M408.28,-143.88C388.5,-134.39 363.73,-122.51 342.67,-112.42"/>
<polygon fill="grey" stroke="grey" stroke-width="2" points="344.13,-109.24 333.6,-108.07 341.1,-115.55 344.13,-109.24"/>
</g>
<!-- 6&#45;&gt;1 -->
<g id="edge11" class="edge">
<title>6&#45;&gt;1</title>
<path fill="none" stroke="grey" stroke-width="2" d="M267.96,-359.85C207.98,-321.02 77.21,-223.56 135,-144 158.58,-111.54 202.53,-98.57 238.86,-93.56"/>
<polygon fill="grey" stroke="grey" stroke-width="2" points="239.37,-97.03 248.88,-92.35 238.53,-90.08 239.37,-97.03"/>
</g>
<!-- 7 -->
<g id="node8" class="node">
<title>7</title>
<path fill="none" stroke="#d87556" stroke-width="2" d="M405.5,-252C405.5,-252 322.5,-252 322.5,-252 316.5,-252 310.5,-246 310.5,-240 310.5,-240 310.5,-228 310.5,-228 310.5,-222 316.5,-216 322.5,-216 322.5,-216 405.5,-216 405.5,-216 411.5,-216 417.5,-222 417.5,-228 417.5,-228 417.5,-240 417.5,-240 417.5,-246 411.5,-252 405.5,-252"/>
<text text-anchor="middle" x="364" y="-231.5" font-family="sans" font-size="10.00">mothur_mapping_file</text>
</g>
<!-- 7&#45;&gt;1 -->
<g id="edge8" class="edge">
<title>7&#45;&gt;1</title>
<path fill="none" stroke="grey" stroke-width="2" d="M362.65,-215.76C360.63,-197.19 355.71,-167.18 344,-144 338.92,-133.95 331.51,-124.24 324.11,-115.95"/>
<polygon fill="grey" stroke="grey" stroke-width="2" points="326.49,-113.37 317.11,-108.46 321.38,-118.15 326.49,-113.37"/>
</g>
<!-- 10 -->
<g id="node11" class="node">
<title>10</title>
<path fill="none" stroke="#56d8d8" stroke-width="2" d="M230,-180C230,-180 156,-180 156,-180 150,-180 144,-174 144,-168 144,-168 144,-156 144,-156 144,-150 150,-144 156,-144 156,-144 230,-144 230,-144 236,-144 242,-150 242,-156 242,-156 242,-168 242,-168 242,-174 236,-180 230,-180"/>
<text text-anchor="middle" x="193" y="-159.5" font-family="sans" font-size="10.00">mothur_design_file</text>
</g>
<!-- 7&#45;&gt;10 -->
<g id="edge19" class="edge">
<title>7&#45;&gt;10</title>
<path fill="none" stroke="grey" stroke-width="2" d="M322.17,-215.88C298.58,-206.22 268.94,-194.09 244,-183.88"/>
<polygon fill="grey" stroke="grey" stroke-width="2" points="245.28,-180.62 234.7,-180.07 242.62,-187.1 245.28,-180.62"/>
</g>
<!-- 8 -->
<g id="node9" class="node">
<title>8</title>
<path fill="none" stroke="#d6d856" stroke-width="2" d="M420.5,-324C420.5,-324 353.5,-324 353.5,-324 347.5,-324 341.5,-318 341.5,-312 341.5,-312 341.5,-300 341.5,-300 341.5,-294 347.5,-288 353.5,-288 353.5,-288 420.5,-288 420.5,-288 426.5,-288 432.5,-294 432.5,-300 432.5,-300 432.5,-312 432.5,-312 432.5,-318 426.5,-324 420.5,-324"/>
<text text-anchor="middle" x="387" y="-303.5" font-family="sans" font-size="10.00">get_simple_stats</text>
</g>
<!-- 8&#45;&gt;7 -->
<g id="edge16" class="edge">
<title>8&#45;&gt;7</title>
<path fill="none" stroke="grey" stroke-width="2" d="M381.31,-287.7C378.75,-279.9 375.67,-270.51 372.82,-261.83"/>
<polygon fill="grey" stroke="grey" stroke-width="2" points="376.07,-260.51 369.62,-252.1 369.42,-262.7 376.07,-260.51"/>
</g>
<!-- 9&#45;&gt;0 -->
<g id="edge1" class="edge">
<title>9&#45;&gt;0</title>
<path fill="none" stroke="grey" stroke-width="2" d="M477.29,-359.94C481.4,-330.41 490.76,-267.91 503,-216 517.53,-154.38 540.24,-83.6 552.83,-45.92"/>
<polygon fill="grey" stroke="grey" stroke-width="2" points="556.22,-46.8 556.09,-36.21 549.59,-44.57 556.22,-46.8"/>
</g>
<!-- 9&#45;&gt;8 -->
<g id="edge17" class="edge">
<title>9&#45;&gt;8</title>
<path fill="none" stroke="grey" stroke-width="2" d="M453.25,-359.7C442.16,-350.88 428.53,-340.03 416.51,-330.47"/>
<polygon fill="grey" stroke="grey" stroke-width="2" points="418.51,-327.59 408.5,-324.1 414.15,-333.07 418.51,-327.59"/>
</g>
<!-- 12 -->
<g id="node13" class="node">
<title>12</title>
<path fill="none" stroke="#567bd8" stroke-width="2" d="M599.5,-252C599.5,-252 524.5,-252 524.5,-252 518.5,-252 512.5,-246 512.5,-240 512.5,-240 512.5,-228 512.5,-228 512.5,-222 518.5,-216 524.5,-216 524.5,-216 599.5,-216 599.5,-216 605.5,-216 611.5,-222 611.5,-228 611.5,-228 611.5,-240 611.5,-240 611.5,-246 605.5,-252 599.5,-252"/>
<text text-anchor="middle" x="562" y="-231.5" font-family="sans" font-size="10.00">resize_test_subset</text>
</g>
<!-- 9&#45;&gt;12 -->
<g id="edge21" class="edge">
<title>9&#45;&gt;12</title>
<path fill="none" stroke="grey" stroke-width="2" d="M485.49,-359.87C500.58,-335.24 528.52,-289.64 546.14,-260.88"/>
<polygon fill="grey" stroke="grey" stroke-width="2" points="549.23,-262.54 551.47,-252.19 543.26,-258.89 549.23,-262.54"/>
</g>
<!-- 10&#45;&gt;1 -->
<g id="edge13" class="edge">
<title>10&#45;&gt;1</title>
<path fill="none" stroke="grey" stroke-width="2" d="M218.69,-143.88C232.29,-134.81 249.17,-123.55 263.86,-113.76"/>
<polygon fill="grey" stroke="grey" stroke-width="2" points="265.84,-116.65 272.22,-108.19 261.95,-110.82 265.84,-116.65"/>
</g>
<!-- 11&#45;&gt;0 -->
<g id="edge2" class="edge">
<title>11&#45;&gt;0</title>
<path fill="none" stroke="grey" stroke-width="2" d="M666.86,-215.85C646.98,-178.52 599.66,-89.69 575.99,-45.26"/>
<polygon fill="grey" stroke="grey" stroke-width="2" points="578.97,-43.41 571.18,-36.23 572.79,-46.7 578.97,-43.41"/>
</g>
<!-- 12&#45;&gt;0 -->
<g id="edge7" class="edge">
<title>12&#45;&gt;0</title>
<path fill="none" stroke="grey" stroke-width="2" d="M562,-215.85C562,-178.83 562,-91.18 562,-46.39"/>
<polygon fill="grey" stroke="grey" stroke-width="2" points="565.5,-46.23 562,-36.23 558.5,-46.23 565.5,-46.23"/>
</g>
<!-- 13 -->
<g id="node14" class="node">
<title>13</title>
<path fill="none" stroke="#56b9d8" stroke-width="2" d="M762,-180C762,-180 670,-180 670,-180 664,-180 658,-174 658,-168 658,-168 658,-156 658,-156 658,-150 664,-144 670,-144 670,-144 762,-144 762,-144 768,-144 774,-150 774,-156 774,-156 774,-168 774,-168 774,-174 768,-180 762,-180"/>
<text text-anchor="middle" x="716" y="-159.5" font-family="sans" font-size="10.00">get_mothur_references</text>
</g>
<!-- 13&#45;&gt;0 -->
<g id="edge3" class="edge">
<title>13&#45;&gt;0</title>
<path fill="none" stroke="grey" stroke-width="2" d="M724.33,-143.82C732.37,-124.47 741.28,-93 726,-72 697.19,-32.42 638.22,-21.78 599.4,-19.26"/>
<polygon fill="grey" stroke="grey" stroke-width="2" points="599.19,-15.74 589.03,-18.75 598.85,-22.74 599.19,-15.74"/>
</g>
<!-- 14 -->
<g id="node15" class="node">
<title>14</title>
<path fill="none" stroke="#56d87b" stroke-width="2" d="M705.5,-108C705.5,-108 640.5,-108 640.5,-108 634.5,-108 628.5,-102 628.5,-96 628.5,-96 628.5,-84 628.5,-84 628.5,-78 634.5,-72 640.5,-72 640.5,-72 705.5,-72 705.5,-72 711.5,-72 717.5,-78 717.5,-84 717.5,-84 717.5,-96 717.5,-96 717.5,-102 711.5,-108 705.5,-108"/>
<text text-anchor="middle" x="673" y="-87.5" font-family="sans" font-size="10.00">get_zymo_mock</text>
</g>
<!-- 13&#45;&gt;14 -->
<g id="edge22" class="edge">
<title>13&#45;&gt;14</title>
<path fill="none" stroke="grey" stroke-width="2" d="M705.37,-143.7C700.37,-135.56 694.31,-125.69 688.79,-116.7"/>
<polygon fill="grey" stroke="grey" stroke-width="2" points="691.72,-114.79 683.51,-108.1 685.76,-118.46 691.72,-114.79"/>
</g>
<!-- 14&#45;&gt;0 -->
<g id="edge5" class="edge">
<title>14&#45;&gt;0</title>
<path fill="none" stroke="grey" stroke-width="2" d="M645.85,-71.88C631.47,-62.81 613.62,-51.55 598.09,-41.76"/>
<polygon fill="grey" stroke="grey" stroke-width="2" points="599.58,-38.56 589.26,-36.19 595.85,-44.48 599.58,-38.56"/>
</g>
</g>
</svg>
