<?xml version="1.0" encoding="UTF-8" standalone="no"?>
<!DOCTYPE svg PUBLIC "-//W3C//DTD SVG 1.1//EN"
 "http://www.w3.org/Graphics/SVG/1.1/DTD/svg11.dtd">
<!-- Generated by graphviz version 6.0.1 (0)
 -->
<!-- Title: snakemake_dag Pages: 1 -->
<svg width="228pt" height="188pt"
 viewBox="0.00 0.00 227.50 188.00" xmlns="http://www.w3.org/2000/svg" xmlns:xlink="http://www.w3.org/1999/xlink">
<g id="graph0" class="graph" transform="scale(1 1) rotate(0) translate(4 184)">
<title>snakemake_dag</title>
<polygon fill="white" stroke="none" points="-4,4 -4,-184 223.5,-184 223.5,4 -4,4"/>
<!-- 0 -->
<g id="node1" class="node">
<title>0</title>
<path fill="none" stroke="#56c1d8" stroke-width="2" d="M125.5,-36C125.5,-36 95.5,-36 95.5,-36 89.5,-36 83.5,-30 83.5,-24 83.5,-24 83.5,-12 83.5,-12 83.5,-6 89.5,0 95.5,0 95.5,0 125.5,0 125.5,0 131.5,0 137.5,-6 137.5,-12 137.5,-12 137.5,-24 137.5,-24 137.5,-30 131.5,-36 125.5,-36"/>
<text text-anchor="middle" x="110.5" y="-15.5" font-family="sans" font-size="10.00">all</text>
</g>
<!-- 1 -->
<g id="node2" class="node">
<title>1</title>
<path fill="none" stroke="#d8bc56" stroke-width="2" d="M91,-108C91,-108 12,-108 12,-108 6,-108 0,-102 0,-96 0,-96 0,-84 0,-84 0,-78 6,-72 12,-72 12,-72 91,-72 91,-72 97,-72 103,-78 103,-84 103,-84 103,-96 103,-96 103,-102 97,-108 91,-108"/>
<text text-anchor="middle" x="51.5" y="-87.5" font-family="sans" font-size="10.00">get_project_tree_txt</text>
</g>
<!-- 1&#45;&gt;0 -->
<g id="edge1" class="edge">
<title>1&#45;&gt;0</title>
<path fill="none" stroke="grey" stroke-width="2" d="M66.08,-71.7C73.16,-63.3 81.78,-53.07 89.55,-43.86"/>
<polygon fill="grey" stroke="grey" stroke-width="2" points="92.31,-46.01 96.08,-36.1 86.96,-41.49 92.31,-46.01"/>
</g>
<!-- 2 -->
<g id="node3" class="node">
<title>2</title>
<path fill="none" stroke="#d85656" stroke-width="2" d="M207.5,-108C207.5,-108 133.5,-108 133.5,-108 127.5,-108 121.5,-102 121.5,-96 121.5,-96 121.5,-84 121.5,-84 121.5,-78 127.5,-72 133.5,-72 133.5,-72 207.5,-72 207.5,-72 213.5,-72 219.5,-78 219.5,-84 219.5,-84 219.5,-96 219.5,-96 219.5,-102 213.5,-108 207.5,-108"/>
<text text-anchor="middle" x="170.5" y="-87.5" font-family="sans" font-size="10.00">github_page_index</text>
</g>
<!-- 2&#45;&gt;0 -->
<g id="edge2" class="edge">
<title>2&#45;&gt;0</title>
<path fill="none" stroke="grey" stroke-width="2" d="M155.67,-71.7C148.48,-63.3 139.7,-53.07 131.81,-43.86"/>
<polygon fill="grey" stroke="grey" stroke-width="2" points="134.33,-41.42 125.16,-36.1 129.01,-45.97 134.33,-41.42"/>
</g>
<!-- 3 -->
<g id="node4" class="node">
<title>3</title>
<path fill="none" stroke="#56d88a" stroke-width="2" d="M196,-180C196,-180 145,-180 145,-180 139,-180 133,-174 133,-168 133,-168 133,-156 133,-156 133,-150 139,-144 145,-144 145,-144 196,-144 196,-144 202,-144 208,-150 208,-156 208,-156 208,-168 208,-168 208,-174 202,-180 196,-180"/>
<text text-anchor="middle" x="170.5" y="-159.5" font-family="sans" font-size="10.00">get_rulegraph</text>
</g>
<!-- 3&#45;&gt;2 -->
<g id="edge3" class="edge">
<title>3&#45;&gt;2</title>
<path fill="none" stroke="grey" stroke-width="2" d="M170.5,-143.7C170.5,-135.98 170.5,-126.71 170.5,-118.11"/>
<polygon fill="grey" stroke="grey" stroke-width="2" points="174,-118.1 170.5,-108.1 167,-118.1 174,-118.1"/>
</g>
</g>
</svg>
