<?xml version="1.0" encoding="UTF-8" standalone="no"?>
<!DOCTYPE svg PUBLIC "-//W3C//DTD SVG 1.1//EN"
 "http://www.w3.org/Graphics/SVG/1.1/DTD/svg11.dtd">
<!-- Generated by graphviz version 6.0.1 (0)
 -->
<!-- Title: snakemake_dag Pages: 1 -->
<svg width="594pt" height="188pt"
 viewBox="0.00 0.00 593.50 188.00" xmlns="http://www.w3.org/2000/svg" xmlns:xlink="http://www.w3.org/1999/xlink">
<g id="graph0" class="graph" transform="scale(1 1) rotate(0) translate(4 184)">
<title>snakemake_dag</title>
<polygon fill="white" stroke="none" points="-4,4 -4,-184 589.5,-184 589.5,4 -4,4"/>
<!-- 0 -->
<g id="node1" class="node">
<title>0</title>
<path fill="none" stroke="#56d873" stroke-width="2" d="M309.5,-36C309.5,-36 279.5,-36 279.5,-36 273.5,-36 267.5,-30 267.5,-24 267.5,-24 267.5,-12 267.5,-12 267.5,-6 273.5,0 279.5,0 279.5,0 309.5,0 309.5,0 315.5,0 321.5,-6 321.5,-12 321.5,-12 321.5,-24 321.5,-24 321.5,-30 315.5,-36 309.5,-36"/>
<text text-anchor="middle" x="294.5" y="-15.5" font-family="sans" font-size="10.00">all</text>
</g>
<!-- 1 -->
<g id="node2" class="node">
<title>1</title>
<path fill="none" stroke="#afd856" stroke-width="2" d="M91,-108C91,-108 12,-108 12,-108 6,-108 0,-102 0,-96 0,-96 0,-84 0,-84 0,-78 6,-72 12,-72 12,-72 91,-72 91,-72 97,-72 103,-78 103,-84 103,-84 103,-96 103,-96 103,-102 97,-108 91,-108"/>
<text text-anchor="middle" x="51.5" y="-87.5" font-family="sans" font-size="10.00">get_project_tree_txt</text>
</g>
<!-- 1&#45;&gt;0 -->
<g id="edge3" class="edge">
<title>1&#45;&gt;0</title>
<path fill="none" stroke="grey" stroke-width="2" d="M103.03,-74.15C149.5,-60.77 216.67,-41.42 257.85,-29.56"/>
<polygon fill="grey" stroke="grey" stroke-width="2" points="258.85,-32.91 267.49,-26.78 256.91,-26.19 258.85,-32.91"/>
</g>
<!-- 2 -->
<g id="node3" class="node">
<title>2</title>
<path fill="none" stroke="#d85656" stroke-width="2" d="M213.5,-108C213.5,-108 133.5,-108 133.5,-108 127.5,-108 121.5,-102 121.5,-96 121.5,-96 121.5,-84 121.5,-84 121.5,-78 127.5,-72 133.5,-72 133.5,-72 213.5,-72 213.5,-72 219.5,-72 225.5,-78 225.5,-84 225.5,-84 225.5,-96 225.5,-96 225.5,-102 219.5,-108 213.5,-108"/>
<text text-anchor="middle" x="173.5" y="-87.5" font-family="sans" font-size="10.00">ggplot_variable_freq</text>
</g>
<!-- 2&#45;&gt;0 -->
<g id="edge1" class="edge">
<title>2&#45;&gt;0</title>
<path fill="none" stroke="grey" stroke-width="2" d="M203.1,-71.88C219.78,-62.23 240.75,-50.1 258.39,-39.89"/>
<polygon fill="grey" stroke="grey" stroke-width="2" points="260.37,-42.79 267.27,-34.75 256.87,-36.73 260.37,-42.79"/>
</g>
<!-- 3 -->
<g id="node4" class="node">
<title>3</title>
<path fill="none" stroke="#5692d8" stroke-width="2" d="M330,-180C330,-180 259,-180 259,-180 253,-180 247,-174 247,-168 247,-168 247,-156 247,-156 247,-150 253,-144 259,-144 259,-144 330,-144 330,-144 336,-144 342,-150 342,-156 342,-156 342,-168 342,-168 342,-174 336,-180 330,-180"/>
<text text-anchor="middle" x="294.5" y="-159.5" font-family="sans" font-size="10.00">get_sra_metadata</text>
</g>
<!-- 3&#45;&gt;2 -->
<g id="edge6" class="edge">
<title>3&#45;&gt;2</title>
<path fill="none" stroke="grey" stroke-width="2" d="M264.9,-143.88C248.93,-134.64 229.04,-123.13 211.89,-113.21"/>
<polygon fill="grey" stroke="grey" stroke-width="2" points="213.62,-110.17 203.21,-108.19 210.12,-116.23 213.62,-110.17"/>
</g>
<!-- 4 -->
<g id="node5" class="node">
<title>4</title>
<path fill="none" stroke="#56c9d8" stroke-width="2" d="M333,-108C333,-108 256,-108 256,-108 250,-108 244,-102 244,-96 244,-96 244,-84 244,-84 244,-78 250,-72 256,-72 256,-72 333,-72 333,-72 339,-72 345,-78 345,-84 345,-84 345,-96 345,-96 345,-102 339,-108 333,-108"/>
<text text-anchor="middle" x="294.5" y="-87.5" font-family="sans" font-size="10.00">leaflet_sample_gps</text>
</g>
<!-- 3&#45;&gt;4 -->
<g id="edge7" class="edge">
<title>3&#45;&gt;4</title>
<path fill="none" stroke="grey" stroke-width="2" d="M294.5,-143.7C294.5,-135.98 294.5,-126.71 294.5,-118.11"/>
<polygon fill="grey" stroke="grey" stroke-width="2" points="298,-118.1 294.5,-108.1 291,-118.1 298,-118.1"/>
</g>
<!-- 5 -->
<g id="node6" class="node">
<title>5</title>
<path fill="none" stroke="#d8cb56" stroke-width="2" d="M457.5,-108C457.5,-108 375.5,-108 375.5,-108 369.5,-108 363.5,-102 363.5,-96 363.5,-96 363.5,-84 363.5,-84 363.5,-78 369.5,-72 375.5,-72 375.5,-72 457.5,-72 457.5,-72 463.5,-72 469.5,-78 469.5,-84 469.5,-84 469.5,-96 469.5,-96 469.5,-102 463.5,-108 457.5,-108"/>
<text text-anchor="middle" x="416.5" y="-87.5" font-family="sans" font-size="10.00">download_sra_reads</text>
</g>
<!-- 3&#45;&gt;5 -->
<g id="edge8" class="edge">
<title>3&#45;&gt;5</title>
<path fill="none" stroke="grey" stroke-width="2" d="M324.34,-143.88C340.44,-134.64 360.5,-123.13 377.79,-113.21"/>
<polygon fill="grey" stroke="grey" stroke-width="2" points="379.61,-116.2 386.54,-108.19 376.13,-110.13 379.61,-116.2"/>
</g>
<!-- 4&#45;&gt;0 -->
<g id="edge4" class="edge">
<title>4&#45;&gt;0</title>
<path fill="none" stroke="grey" stroke-width="2" d="M294.5,-71.7C294.5,-63.98 294.5,-54.71 294.5,-46.11"/>
<polygon fill="grey" stroke="grey" stroke-width="2" points="298,-46.1 294.5,-36.1 291,-46.1 298,-46.1"/>
</g>
<!-- 5&#45;&gt;0 -->
<g id="edge2" class="edge">
<title>5&#45;&gt;0</title>
<path fill="none" stroke="grey" stroke-width="2" d="M386.66,-71.88C369.72,-62.16 348.39,-49.92 330.53,-39.67"/>
<polygon fill="grey" stroke="grey" stroke-width="2" points="331.95,-36.46 321.54,-34.51 328.47,-42.53 331.95,-36.46"/>
</g>
<!-- 6 -->
<g id="node7" class="node">
<title>6</title>
<path fill="none" stroke="#56d8a9" stroke-width="2" d="M573.5,-108C573.5,-108 499.5,-108 499.5,-108 493.5,-108 487.5,-102 487.5,-96 487.5,-96 487.5,-84 487.5,-84 487.5,-78 493.5,-72 499.5,-72 499.5,-72 573.5,-72 573.5,-72 579.5,-72 585.5,-78 585.5,-84 585.5,-84 585.5,-96 585.5,-96 585.5,-102 579.5,-108 573.5,-108"/>
<text text-anchor="middle" x="536.5" y="-87.5" font-family="sans" font-size="10.00">github_page_index</text>
</g>
<!-- 6&#45;&gt;0 -->
<g id="edge5" class="edge">
<title>6&#45;&gt;0</title>
<path fill="none" stroke="grey" stroke-width="2" d="M487.46,-74.61C484.43,-73.72 481.42,-72.85 478.5,-72 427.58,-57.2 368.68,-40.27 331.52,-29.61"/>
<polygon fill="grey" stroke="grey" stroke-width="2" points="332.21,-26.17 321.63,-26.77 330.28,-32.89 332.21,-26.17"/>
</g>
<!-- 7 -->
<g id="node8" class="node">
<title>7</title>
<path fill="none" stroke="#d88d56" stroke-width="2" d="M562,-180C562,-180 511,-180 511,-180 505,-180 499,-174 499,-168 499,-168 499,-156 499,-156 499,-150 505,-144 511,-144 511,-144 562,-144 562,-144 568,-144 574,-150 574,-156 574,-156 574,-168 574,-168 574,-174 568,-180 562,-180"/>
<text text-anchor="middle" x="536.5" y="-159.5" font-family="sans" font-size="10.00">get_rulegraph</text>
</g>
<!-- 7&#45;&gt;6 -->
<g id="edge9" class="edge">
<title>7&#45;&gt;6</title>
<path fill="none" stroke="grey" stroke-width="2" d="M536.5,-143.7C536.5,-135.98 536.5,-126.71 536.5,-118.11"/>
<polygon fill="grey" stroke="grey" stroke-width="2" points="540,-118.1 536.5,-108.1 533,-118.1 540,-118.1"/>
</g>
</g>
</svg>
