<?xml version="1.0" encoding="UTF-8" standalone="no"?>
<!DOCTYPE svg PUBLIC "-//W3C//DTD SVG 1.1//EN"
 "http://www.w3.org/Graphics/SVG/1.1/DTD/svg11.dtd">
<!-- Generated by graphviz version 6.0.1 (0)
 -->
<!-- Title: snakemake_dag Pages: 1 -->
<svg width="352pt" height="188pt"
 viewBox="0.00 0.00 351.50 188.00" xmlns="http://www.w3.org/2000/svg" xmlns:xlink="http://www.w3.org/1999/xlink">
<g id="graph0" class="graph" transform="scale(1 1) rotate(0) translate(4 184)">
<title>snakemake_dag</title>
<polygon fill="white" stroke="none" points="-4,4 -4,-184 347.5,-184 347.5,4 -4,4"/>
<!-- 0 -->
<g id="node1" class="node">
<title>0</title>
<path fill="none" stroke="#d8ac56" stroke-width="2" d="M185.5,-36C185.5,-36 155.5,-36 155.5,-36 149.5,-36 143.5,-30 143.5,-24 143.5,-24 143.5,-12 143.5,-12 143.5,-6 149.5,0 155.5,0 155.5,0 185.5,0 185.5,0 191.5,0 197.5,-6 197.5,-12 197.5,-12 197.5,-24 197.5,-24 197.5,-30 191.5,-36 185.5,-36"/>
<text text-anchor="middle" x="170.5" y="-15.5" font-family="sans" font-size="10.00">all</text>
</g>
<!-- 1 -->
<g id="node2" class="node">
<title>1</title>
<path fill="none" stroke="#59d856" stroke-width="2" d="M91,-108C91,-108 12,-108 12,-108 6,-108 0,-102 0,-96 0,-96 0,-84 0,-84 0,-78 6,-72 12,-72 12,-72 91,-72 91,-72 97,-72 103,-78 103,-84 103,-84 103,-96 103,-96 103,-102 97,-108 91,-108"/>
<text text-anchor="middle" x="51.5" y="-87.5" font-family="sans" font-size="10.00">get_project_tree_txt</text>
</g>
<!-- 1&#45;&gt;0 -->
<g id="edge3" class="edge">
<title>1&#45;&gt;0</title>
<path fill="none" stroke="grey" stroke-width="2" d="M80.61,-71.88C96.9,-62.29 117.34,-50.27 134.62,-40.11"/>
<polygon fill="grey" stroke="grey" stroke-width="2" points="136.48,-43.07 143.32,-34.99 132.93,-37.04 136.48,-43.07"/>
</g>
<!-- 2 -->
<g id="node3" class="node">
<title>2</title>
<path fill="none" stroke="#d85656" stroke-width="2" d="M207.5,-108C207.5,-108 133.5,-108 133.5,-108 127.5,-108 121.5,-102 121.5,-96 121.5,-96 121.5,-84 121.5,-84 121.5,-78 127.5,-72 133.5,-72 133.5,-72 207.5,-72 207.5,-72 213.5,-72 219.5,-78 219.5,-84 219.5,-84 219.5,-96 219.5,-96 219.5,-102 213.5,-108 207.5,-108"/>
<text text-anchor="middle" x="170.5" y="-87.5" font-family="sans" font-size="10.00">github_page_index</text>
</g>
<!-- 2&#45;&gt;0 -->
<g id="edge2" class="edge">
<title>2&#45;&gt;0</title>
<path fill="none" stroke="grey" stroke-width="2" d="M170.5,-71.7C170.5,-63.98 170.5,-54.71 170.5,-46.11"/>
<polygon fill="grey" stroke="grey" stroke-width="2" points="174,-46.1 170.5,-36.1 167,-46.1 174,-46.1"/>
</g>
<!-- 3 -->
<g id="node4" class="node">
<title>3</title>
<path fill="none" stroke="#56a9d8" stroke-width="2" d="M196,-180C196,-180 145,-180 145,-180 139,-180 133,-174 133,-168 133,-168 133,-156 133,-156 133,-150 139,-144 145,-144 145,-144 196,-144 196,-144 202,-144 208,-150 208,-156 208,-156 208,-168 208,-168 208,-174 202,-180 196,-180"/>
<text text-anchor="middle" x="170.5" y="-159.5" font-family="sans" font-size="10.00">get_rulegraph</text>
</g>
<!-- 3&#45;&gt;2 -->
<g id="edge4" class="edge">
<title>3&#45;&gt;2</title>
<path fill="none" stroke="grey" stroke-width="2" d="M170.5,-143.7C170.5,-135.98 170.5,-126.71 170.5,-118.11"/>
<polygon fill="grey" stroke="grey" stroke-width="2" points="174,-118.1 170.5,-108.1 167,-118.1 174,-118.1"/>
</g>
<!-- 4 -->
<g id="node5" class="node">
<title>4</title>
<path fill="none" stroke="#56d8a9" stroke-width="2" d="M331.5,-108C331.5,-108 249.5,-108 249.5,-108 243.5,-108 237.5,-102 237.5,-96 237.5,-96 237.5,-84 237.5,-84 237.5,-78 243.5,-72 249.5,-72 249.5,-72 331.5,-72 331.5,-72 337.5,-72 343.5,-78 343.5,-84 343.5,-84 343.5,-96 343.5,-96 343.5,-102 337.5,-108 331.5,-108"/>
<text text-anchor="middle" x="290.5" y="-87.5" font-family="sans" font-size="10.00">download_sra_reads</text>
</g>
<!-- 4&#45;&gt;0 -->
<g id="edge1" class="edge">
<title>4&#45;&gt;0</title>
<path fill="none" stroke="grey" stroke-width="2" d="M261.14,-71.88C244.6,-62.23 223.81,-50.1 206.31,-39.89"/>
<polygon fill="grey" stroke="grey" stroke-width="2" points="207.9,-36.77 197.5,-34.75 204.37,-42.81 207.9,-36.77"/>
</g>
</g>
</svg>
