<?xml version="1.0" encoding="UTF-8" standalone="no"?>
<!DOCTYPE svg PUBLIC "-//W3C//DTD SVG 1.1//EN"
 "http://www.w3.org/Graphics/SVG/1.1/DTD/svg11.dtd">
<!-- Generated by graphviz version 6.0.1 (0)
 -->
<!-- Title: snakemake_dag Pages: 1 -->
<svg width="664pt" height="260pt"
 viewBox="0.00 0.00 663.84 260.00" xmlns="http://www.w3.org/2000/svg" xmlns:xlink="http://www.w3.org/1999/xlink">
<g id="graph0" class="graph" transform="scale(1 1) rotate(0) translate(4 256)">
<title>snakemake_dag</title>
<polygon fill="white" stroke="none" points="-4,4 -4,-256 659.84,-256 659.84,4 -4,4"/>
<!-- 0 -->
<g id="node1" class="node">
<title>0</title>
<path fill="none" stroke="#80d856" stroke-width="2" d="M180.34,-36C180.34,-36 150.34,-36 150.34,-36 144.34,-36 138.34,-30 138.34,-24 138.34,-24 138.34,-12 138.34,-12 138.34,-6 144.34,0 150.34,0 150.34,0 180.34,0 180.34,0 186.34,0 192.34,-6 192.34,-12 192.34,-12 192.34,-24 192.34,-24 192.34,-30 186.34,-36 180.34,-36"/>
<text text-anchor="middle" x="165.34" y="-15.5" font-family="sans" font-size="10.00">all</text>
</g>
<!-- 1 -->
<g id="node2" class="node">
<title>1</title>
<path fill="none" stroke="#56d8a9" stroke-width="2" d="M301.34,-108C301.34,-108 227.34,-108 227.34,-108 221.34,-108 215.34,-102 215.34,-96 215.34,-96 215.34,-84 215.34,-84 215.34,-78 221.34,-72 227.34,-72 227.34,-72 301.34,-72 301.34,-72 307.34,-72 313.34,-78 313.34,-84 313.34,-84 313.34,-96 313.34,-96 313.34,-102 307.34,-108 301.34,-108"/>
<text text-anchor="middle" x="264.34" y="-87.5" font-family="sans" font-size="10.00">github_page_index</text>
</g>
<!-- 1&#45;&gt;0 -->
<g id="edge1" class="edge">
<title>1&#45;&gt;0</title>
<path fill="none" stroke="grey" stroke-width="2" d="M240.12,-71.88C227.42,-62.89 211.67,-51.76 197.91,-42.03"/>
<polygon fill="grey" stroke="grey" stroke-width="2" points="199.83,-39.11 189.65,-36.19 195.79,-44.82 199.83,-39.11"/>
</g>
<!-- 2 -->
<g id="node3" class="node">
<title>2</title>
<path fill="none" stroke="#56a9d8" stroke-width="2" d="M78.84,-180C78.84,-180 27.84,-180 27.84,-180 21.84,-180 15.84,-174 15.84,-168 15.84,-168 15.84,-156 15.84,-156 15.84,-150 21.84,-144 27.84,-144 27.84,-144 78.84,-144 78.84,-144 84.84,-144 90.84,-150 90.84,-156 90.84,-156 90.84,-168 90.84,-168 90.84,-174 84.84,-180 78.84,-180"/>
<text text-anchor="middle" x="53.34" y="-159.5" font-family="sans" font-size="10.00">get_rulegraph</text>
</g>
<!-- 2&#45;&gt;1 -->
<g id="edge8" class="edge">
<title>2&#45;&gt;1</title>
<path fill="none" stroke="grey" stroke-width="2" d="M90.95,-146.95C93.78,-145.94 96.6,-144.94 99.34,-144 134.24,-131.95 173.6,-119.28 205.12,-109.34"/>
<polygon fill="grey" stroke="grey" stroke-width="2" points="206.57,-112.55 215.06,-106.22 204.47,-105.88 206.57,-112.55"/>
</g>
<!-- 3 -->
<g id="node4" class="node">
<title>3</title>
<path fill="none" stroke="#56d8d8" stroke-width="2" d="M189.84,-180C189.84,-180 120.84,-180 120.84,-180 114.84,-180 108.84,-174 108.84,-168 108.84,-168 108.84,-156 108.84,-156 108.84,-150 114.84,-144 120.84,-144 120.84,-144 189.84,-144 189.84,-144 195.84,-144 201.84,-150 201.84,-156 201.84,-156 201.84,-168 201.84,-168 201.84,-174 195.84,-180 189.84,-180"/>
<text text-anchor="middle" x="155.34" y="-159.5" font-family="sans" font-size="10.00">plot_variable_freq</text>
</g>
<!-- 3&#45;&gt;1 -->
<g id="edge7" class="edge">
<title>3&#45;&gt;1</title>
<path fill="none" stroke="grey" stroke-width="2" d="M182,-143.88C196.12,-134.81 213.65,-123.55 228.9,-113.76"/>
<polygon fill="grey" stroke="grey" stroke-width="2" points="231.05,-116.54 237.57,-108.19 227.27,-110.65 231.05,-116.54"/>
</g>
<!-- 4 -->
<g id="node5" class="node">
<title>4</title>
<path fill="none" stroke="#59d856" stroke-width="2" d="M246.84,-252C246.84,-252 173.84,-252 173.84,-252 167.84,-252 161.84,-246 161.84,-240 161.84,-240 161.84,-228 161.84,-228 161.84,-222 167.84,-216 173.84,-216 173.84,-216 246.84,-216 246.84,-216 252.84,-216 258.84,-222 258.84,-228 258.84,-228 258.84,-240 258.84,-240 258.84,-246 252.84,-252 246.84,-252"/>
<text text-anchor="middle" x="210.34" y="-231.5" font-family="sans" font-size="10.00">get_tidy_metadata</text>
</g>
<!-- 4&#45;&gt;3 -->
<g id="edge9" class="edge">
<title>4&#45;&gt;3</title>
<path fill="none" stroke="grey" stroke-width="2" d="M196.74,-215.7C190.22,-207.39 182.27,-197.28 175.09,-188.14"/>
<polygon fill="grey" stroke="grey" stroke-width="2" points="177.71,-185.81 168.78,-180.1 172.2,-190.13 177.71,-185.81"/>
</g>
<!-- 5 -->
<g id="node6" class="node">
<title>5</title>
<path fill="none" stroke="#afd856" stroke-width="2" d="M296.34,-180C296.34,-180 232.34,-180 232.34,-180 226.34,-180 220.34,-174 220.34,-168 220.34,-168 220.34,-156 220.34,-156 220.34,-150 226.34,-144 232.34,-144 232.34,-144 296.34,-144 296.34,-144 302.34,-144 308.34,-150 308.34,-156 308.34,-156 308.34,-168 308.34,-168 308.34,-174 302.34,-180 296.34,-180"/>
<text text-anchor="middle" x="264.34" y="-159.5" font-family="sans" font-size="10.00">get_sample_gps</text>
</g>
<!-- 4&#45;&gt;5 -->
<g id="edge10" class="edge">
<title>4&#45;&gt;5</title>
<path fill="none" stroke="grey" stroke-width="2" d="M223.69,-215.7C230.09,-207.39 237.9,-197.28 244.94,-188.14"/>
<polygon fill="grey" stroke="grey" stroke-width="2" points="247.81,-190.16 251.14,-180.1 242.26,-185.88 247.81,-190.16"/>
</g>
<!-- 9 -->
<g id="node10" class="node">
<title>9</title>
<path fill="none" stroke="#d88556" stroke-width="2" d="M409.84,-180C409.84,-180 338.84,-180 338.84,-180 332.84,-180 326.84,-174 326.84,-168 326.84,-168 326.84,-156 326.84,-156 326.84,-150 332.84,-144 338.84,-144 338.84,-144 409.84,-144 409.84,-144 415.84,-144 421.84,-150 421.84,-156 421.84,-156 421.84,-168 421.84,-168 421.84,-174 415.84,-180 409.84,-180"/>
<text text-anchor="middle" x="374.34" y="-159.5" font-family="sans" font-size="10.00">explore_read_size</text>
</g>
<!-- 4&#45;&gt;9 -->
<g id="edge12" class="edge">
<title>4&#45;&gt;9</title>
<path fill="none" stroke="grey" stroke-width="2" d="M250.46,-215.88C272.98,-206.26 301.26,-194.19 325.11,-184.01"/>
<polygon fill="grey" stroke="grey" stroke-width="2" points="326.53,-187.21 334.35,-180.07 323.78,-180.77 326.53,-187.21"/>
</g>
<!-- 10 -->
<g id="node11" class="node">
<title>10</title>
<path fill="none" stroke="#d6d856" stroke-width="2" d="M107.34,-108C107.34,-108 25.34,-108 25.34,-108 19.34,-108 13.34,-102 13.34,-96 13.34,-96 13.34,-84 13.34,-84 13.34,-78 19.34,-72 25.34,-72 25.34,-72 107.34,-72 107.34,-72 113.34,-72 119.34,-78 119.34,-84 119.34,-84 119.34,-96 119.34,-96 119.34,-102 113.34,-108 107.34,-108"/>
<text text-anchor="middle" x="66.34" y="-87.5" font-family="sans" font-size="10.00">download_sra_reads</text>
</g>
<!-- 4&#45;&gt;10 -->
<g id="edge13" class="edge">
<title>4&#45;&gt;10</title>
<path fill="none" stroke="grey" stroke-width="2" d="M161.74,-227.2C107.61,-219.63 25.2,-204.39 6.34,-180 -3.45,-167.34 -0.24,-158.59 6.34,-144 11.52,-132.52 20.55,-122.52 30.05,-114.4"/>
<polygon fill="grey" stroke="grey" stroke-width="2" points="32.42,-116.99 38.08,-108.03 28.07,-111.51 32.42,-116.99"/>
</g>
<!-- 5&#45;&gt;1 -->
<g id="edge5" class="edge">
<title>5&#45;&gt;1</title>
<path fill="none" stroke="grey" stroke-width="2" d="M264.34,-143.7C264.34,-135.98 264.34,-126.71 264.34,-118.11"/>
<polygon fill="grey" stroke="grey" stroke-width="2" points="267.84,-118.1 264.34,-108.1 260.84,-118.1 267.84,-118.1"/>
</g>
<!-- 6 -->
<g id="node7" class="node">
<title>6</title>
<path fill="none" stroke="#56d882" stroke-width="2" d="M522.84,-180C522.84,-180 451.84,-180 451.84,-180 445.84,-180 439.84,-174 439.84,-168 439.84,-168 439.84,-156 439.84,-156 439.84,-150 445.84,-144 451.84,-144 451.84,-144 522.84,-144 522.84,-144 528.84,-144 534.84,-150 534.84,-156 534.84,-156 534.84,-168 534.84,-168 534.84,-174 528.84,-180 522.84,-180"/>
<text text-anchor="middle" x="487.34" y="-159.5" font-family="sans" font-size="10.00">static_smk_report</text>
</g>
<!-- 6&#45;&gt;1 -->
<g id="edge6" class="edge">
<title>6&#45;&gt;1</title>
<path fill="none" stroke="grey" stroke-width="2" d="M439.77,-146.07C405.75,-135.39 359.73,-120.94 323.36,-109.53"/>
<polygon fill="grey" stroke="grey" stroke-width="2" points="323.96,-106.05 313.37,-106.39 321.87,-112.73 323.96,-106.05"/>
</g>
<!-- 7 -->
<g id="node8" class="node">
<title>7</title>
<path fill="none" stroke="#5682d8" stroke-width="2" d="M535.84,-252C535.84,-252 438.84,-252 438.84,-252 432.84,-252 426.84,-246 426.84,-240 426.84,-240 426.84,-228 426.84,-228 426.84,-222 432.84,-216 438.84,-216 438.84,-216 535.84,-216 535.84,-216 541.84,-216 547.84,-222 547.84,-228 547.84,-228 547.84,-240 547.84,-240 547.84,-246 541.84,-252 535.84,-252"/>
<text text-anchor="middle" x="487.34" y="-231.5" font-family="sans" font-size="10.00">snakemake_html_report</text>
</g>
<!-- 7&#45;&gt;6 -->
<g id="edge11" class="edge">
<title>7&#45;&gt;6</title>
<path fill="none" stroke="grey" stroke-width="2" d="M487.34,-215.7C487.34,-207.98 487.34,-198.71 487.34,-190.11"/>
<polygon fill="grey" stroke="grey" stroke-width="2" points="490.84,-190.1 487.34,-180.1 483.84,-190.1 490.84,-190.1"/>
</g>
<!-- 8 -->
<g id="node9" class="node">
<title>8</title>
<path fill="none" stroke="#d85656" stroke-width="2" d="M643.84,-180C643.84,-180 564.84,-180 564.84,-180 558.84,-180 552.84,-174 552.84,-168 552.84,-168 552.84,-156 552.84,-156 552.84,-150 558.84,-144 564.84,-144 564.84,-144 643.84,-144 643.84,-144 649.84,-144 655.84,-150 655.84,-156 655.84,-156 655.84,-168 655.84,-168 655.84,-174 649.84,-180 643.84,-180"/>
<text text-anchor="middle" x="604.34" y="-159.5" font-family="sans" font-size="10.00">get_project_tree_txt</text>
</g>
<!-- 8&#45;&gt;1 -->
<g id="edge3" class="edge">
<title>8&#45;&gt;1</title>
<path fill="none" stroke="grey" stroke-width="2" d="M552.7,-146.05C549.88,-145.34 547.08,-144.65 544.34,-144 468.59,-126.14 380.21,-110.22 323.32,-100.59"/>
<polygon fill="grey" stroke="grey" stroke-width="2" points="323.87,-97.14 313.43,-98.93 322.71,-104.04 323.87,-97.14"/>
</g>
<!-- 9&#45;&gt;1 -->
<g id="edge4" class="edge">
<title>9&#45;&gt;1</title>
<path fill="none" stroke="grey" stroke-width="2" d="M347.43,-143.88C333.18,-134.81 315.49,-123.55 300.1,-113.76"/>
<polygon fill="grey" stroke="grey" stroke-width="2" points="301.67,-110.61 291.35,-108.19 297.91,-116.51 301.67,-110.61"/>
</g>
<!-- 10&#45;&gt;0 -->
<g id="edge2" class="edge">
<title>10&#45;&gt;0</title>
<path fill="none" stroke="grey" stroke-width="2" d="M90.56,-71.88C103.26,-62.89 119,-51.76 132.76,-42.03"/>
<polygon fill="grey" stroke="grey" stroke-width="2" points="134.88,-44.82 141.03,-36.19 130.84,-39.11 134.88,-44.82"/>
</g>
</g>
</svg>
