<?xml version="1.0" encoding="UTF-8" standalone="no"?>
<!DOCTYPE svg PUBLIC "-//W3C//DTD SVG 1.1//EN"
 "http://www.w3.org/Graphics/SVG/1.1/DTD/svg11.dtd">
<!-- Generated by graphviz version 6.0.1 (0)
 -->
<!-- Title: snakemake_dag Pages: 1 -->
<svg width="538pt" height="260pt"
 viewBox="0.00 0.00 537.50 260.00" xmlns="http://www.w3.org/2000/svg" xmlns:xlink="http://www.w3.org/1999/xlink">
<g id="graph0" class="graph" transform="scale(1 1) rotate(0) translate(4 256)">
<title>snakemake_dag</title>
<polygon fill="white" stroke="none" points="-4,4 -4,-256 533.5,-256 533.5,4 -4,4"/>
<!-- 0 -->
<g id="node1" class="node">
<title>0</title>
<path fill="none" stroke="#56d88a" stroke-width="2" d="M268.5,-36C268.5,-36 238.5,-36 238.5,-36 232.5,-36 226.5,-30 226.5,-24 226.5,-24 226.5,-12 226.5,-12 226.5,-6 232.5,0 238.5,0 238.5,0 268.5,0 268.5,0 274.5,0 280.5,-6 280.5,-12 280.5,-12 280.5,-24 280.5,-24 280.5,-30 274.5,-36 268.5,-36"/>
<text text-anchor="middle" x="253.5" y="-15.5" font-family="sans" font-size="10.00">all</text>
</g>
<!-- 1 -->
<g id="node2" class="node">
<title>1</title>
<path fill="none" stroke="#bed856" stroke-width="2" d="M91,-108C91,-108 12,-108 12,-108 6,-108 0,-102 0,-96 0,-96 0,-84 0,-84 0,-78 6,-72 12,-72 12,-72 91,-72 91,-72 97,-72 103,-78 103,-84 103,-84 103,-96 103,-96 103,-102 97,-108 91,-108"/>
<text text-anchor="middle" x="51.5" y="-87.5" font-family="sans" font-size="10.00">get_project_tree_txt</text>
</g>
<!-- 1&#45;&gt;0 -->
<g id="edge3" class="edge">
<title>1&#45;&gt;0</title>
<path fill="none" stroke="grey" stroke-width="2" d="M100.66,-71.97C136.43,-59.57 184.1,-43.05 216.64,-31.77"/>
<polygon fill="grey" stroke="grey" stroke-width="2" points="217.91,-35.04 226.22,-28.45 215.62,-28.42 217.91,-35.04"/>
</g>
<!-- 2 -->
<g id="node3" class="node">
<title>2</title>
<path fill="none" stroke="#59d856" stroke-width="2" d="M344,-252C344,-252 271,-252 271,-252 265,-252 259,-246 259,-240 259,-240 259,-228 259,-228 259,-222 265,-216 271,-216 271,-216 344,-216 344,-216 350,-216 356,-222 356,-228 356,-228 356,-240 356,-240 356,-246 350,-252 344,-252"/>
<text text-anchor="middle" x="307.5" y="-231.5" font-family="sans" font-size="10.00">get_tidy_metadata</text>
</g>
<!-- 2&#45;&gt;0 -->
<g id="edge4" class="edge">
<title>2&#45;&gt;0</title>
<path fill="none" stroke="grey" stroke-width="2" d="M258.64,-230.91C222.29,-226.48 174.91,-214 150.5,-180 116.3,-132.36 178.4,-73.77 220.14,-42.05"/>
<polygon fill="grey" stroke="grey" stroke-width="2" points="222.25,-44.85 228.19,-36.08 218.07,-39.23 222.25,-44.85"/>
</g>
<!-- 3 -->
<g id="node4" class="node">
<title>3</title>
<path fill="none" stroke="#d85656" stroke-width="2" d="M241,-180C241,-180 172,-180 172,-180 166,-180 160,-174 160,-168 160,-168 160,-156 160,-156 160,-150 166,-144 172,-144 172,-144 241,-144 241,-144 247,-144 253,-150 253,-156 253,-156 253,-168 253,-168 253,-174 247,-180 241,-180"/>
<text text-anchor="middle" x="206.5" y="-159.5" font-family="sans" font-size="10.00">plot_variable_freq</text>
</g>
<!-- 2&#45;&gt;3 -->
<g id="edge7" class="edge">
<title>2&#45;&gt;3</title>
<path fill="none" stroke="grey" stroke-width="2" d="M282.79,-215.88C269.83,-206.89 253.77,-195.76 239.73,-186.03"/>
<polygon fill="grey" stroke="grey" stroke-width="2" points="241.52,-183.01 231.3,-180.19 237.53,-188.76 241.52,-183.01"/>
</g>
<!-- 4 -->
<g id="node5" class="node">
<title>4</title>
<path fill="none" stroke="#d8bc56" stroke-width="2" d="M440.5,-180C440.5,-180 376.5,-180 376.5,-180 370.5,-180 364.5,-174 364.5,-168 364.5,-168 364.5,-156 364.5,-156 364.5,-150 370.5,-144 376.5,-144 376.5,-144 440.5,-144 440.5,-144 446.5,-144 452.5,-150 452.5,-156 452.5,-156 452.5,-168 452.5,-168 452.5,-174 446.5,-180 440.5,-180"/>
<text text-anchor="middle" x="408.5" y="-159.5" font-family="sans" font-size="10.00">get_sample_gps</text>
</g>
<!-- 2&#45;&gt;4 -->
<g id="edge8" class="edge">
<title>2&#45;&gt;4</title>
<path fill="none" stroke="grey" stroke-width="2" d="M332.21,-215.88C345.17,-206.89 361.23,-195.76 375.27,-186.03"/>
<polygon fill="grey" stroke="grey" stroke-width="2" points="377.47,-188.76 383.7,-180.19 373.48,-183.01 377.47,-188.76"/>
</g>
<!-- 5 -->
<g id="node6" class="node">
<title>5</title>
<path fill="none" stroke="#56d8c1" stroke-width="2" d="M517.5,-108C517.5,-108 435.5,-108 435.5,-108 429.5,-108 423.5,-102 423.5,-96 423.5,-96 423.5,-84 423.5,-84 423.5,-78 429.5,-72 435.5,-72 435.5,-72 517.5,-72 517.5,-72 523.5,-72 529.5,-78 529.5,-84 529.5,-84 529.5,-96 529.5,-96 529.5,-102 523.5,-108 517.5,-108"/>
<text text-anchor="middle" x="476.5" y="-87.5" font-family="sans" font-size="10.00">download_sra_reads</text>
</g>
<!-- 2&#45;&gt;5 -->
<g id="edge9" class="edge">
<title>2&#45;&gt;5</title>
<path fill="none" stroke="grey" stroke-width="2" d="M356.11,-229.11C390.68,-223.68 435.45,-210.74 461.5,-180 475.86,-163.06 478.92,-137.59 478.79,-118.23"/>
<polygon fill="grey" stroke="grey" stroke-width="2" points="482.28,-118.07 478.44,-108.2 475.29,-118.32 482.28,-118.07"/>
</g>
<!-- 3&#45;&gt;0 -->
<g id="edge1" class="edge">
<title>3&#45;&gt;0</title>
<path fill="none" stroke="grey" stroke-width="2" d="M212.17,-143.87C220.21,-119.56 235.02,-74.82 244.56,-46.01"/>
<polygon fill="grey" stroke="grey" stroke-width="2" points="247.99,-46.78 247.81,-36.19 241.35,-44.58 247.99,-46.78"/>
</g>
<!-- 6 -->
<g id="node7" class="node">
<title>6</title>
<path fill="none" stroke="#568ad8" stroke-width="2" d="M335.5,-108C335.5,-108 261.5,-108 261.5,-108 255.5,-108 249.5,-102 249.5,-96 249.5,-96 249.5,-84 249.5,-84 249.5,-78 255.5,-72 261.5,-72 261.5,-72 335.5,-72 335.5,-72 341.5,-72 347.5,-78 347.5,-84 347.5,-84 347.5,-96 347.5,-96 347.5,-102 341.5,-108 335.5,-108"/>
<text text-anchor="middle" x="298.5" y="-87.5" font-family="sans" font-size="10.00">github_page_index</text>
</g>
<!-- 3&#45;&gt;6 -->
<g id="edge10" class="edge">
<title>3&#45;&gt;6</title>
<path fill="none" stroke="grey" stroke-width="2" d="M229.24,-143.7C240.94,-134.8 255.36,-123.82 268.01,-114.2"/>
<polygon fill="grey" stroke="grey" stroke-width="2" points="270.18,-116.94 276.02,-108.1 265.94,-111.37 270.18,-116.94"/>
</g>
<!-- 4&#45;&gt;0 -->
<g id="edge2" class="edge">
<title>4&#45;&gt;0</title>
<path fill="none" stroke="grey" stroke-width="2" d="M401.88,-143.66C393.71,-124.17 378.19,-92.56 356.5,-72 337.51,-54 311.23,-40.61 289.97,-31.79"/>
<polygon fill="grey" stroke="grey" stroke-width="2" points="291.18,-28.51 280.59,-28.06 288.59,-35.01 291.18,-28.51"/>
</g>
<!-- 4&#45;&gt;6 -->
<g id="edge12" class="edge">
<title>4&#45;&gt;6</title>
<path fill="none" stroke="grey" stroke-width="2" d="M381.59,-143.88C367.34,-134.81 349.65,-123.55 334.26,-113.76"/>
<polygon fill="grey" stroke="grey" stroke-width="2" points="335.83,-110.61 325.51,-108.19 332.07,-116.51 335.83,-110.61"/>
</g>
<!-- 5&#45;&gt;0 -->
<g id="edge5" class="edge">
<title>5&#45;&gt;0</title>
<path fill="none" stroke="grey" stroke-width="2" d="M423.37,-72.32C382.27,-59.42 326.44,-41.9 290.19,-30.52"/>
<polygon fill="grey" stroke="grey" stroke-width="2" points="291.11,-27.14 280.52,-27.48 289.01,-33.82 291.11,-27.14"/>
</g>
<!-- 6&#45;&gt;0 -->
<g id="edge6" class="edge">
<title>6&#45;&gt;0</title>
<path fill="none" stroke="grey" stroke-width="2" d="M287.38,-71.7C282.14,-63.56 275.8,-53.69 270.02,-44.7"/>
<polygon fill="grey" stroke="grey" stroke-width="2" points="272.85,-42.62 264.5,-36.1 266.96,-46.41 272.85,-42.62"/>
</g>
<!-- 7 -->
<g id="node8" class="node">
<title>7</title>
<path fill="none" stroke="#56c1d8" stroke-width="2" d="M334,-180C334,-180 283,-180 283,-180 277,-180 271,-174 271,-168 271,-168 271,-156 271,-156 271,-150 277,-144 283,-144 283,-144 334,-144 334,-144 340,-144 346,-150 346,-156 346,-156 346,-168 346,-168 346,-174 340,-180 334,-180"/>
<text text-anchor="middle" x="308.5" y="-159.5" font-family="sans" font-size="10.00">get_rulegraph</text>
</g>
<!-- 7&#45;&gt;6 -->
<g id="edge11" class="edge">
<title>7&#45;&gt;6</title>
<path fill="none" stroke="grey" stroke-width="2" d="M306.03,-143.7C304.93,-135.98 303.6,-126.71 302.37,-118.11"/>
<polygon fill="grey" stroke="grey" stroke-width="2" points="305.82,-117.51 300.94,-108.1 298.89,-118.5 305.82,-117.51"/>
</g>
</g>
</svg>
