<?xml version="1.0" encoding="UTF-8" standalone="no"?>
<!DOCTYPE svg PUBLIC "-//W3C//DTD SVG 1.1//EN"
 "http://www.w3.org/Graphics/SVG/1.1/DTD/svg11.dtd">
<!-- Generated by graphviz version 6.0.1 (0)
 -->
<!-- Title: snakemake_dag Pages: 1 -->
<svg width="561pt" height="260pt"
 viewBox="0.00 0.00 561.04 260.00" xmlns="http://www.w3.org/2000/svg" xmlns:xlink="http://www.w3.org/1999/xlink">
<g id="graph0" class="graph" transform="scale(1 1) rotate(0) translate(4 256)">
<title>snakemake_dag</title>
<polygon fill="white" stroke="none" points="-4,4 -4,-256 557.04,-256 557.04,4 -4,4"/>
<!-- 0 -->
<g id="node1" class="node">
<title>0</title>
<path fill="none" stroke="#59d856" stroke-width="2" d="M222.04,-36C222.04,-36 192.04,-36 192.04,-36 186.04,-36 180.04,-30 180.04,-24 180.04,-24 180.04,-12 180.04,-12 180.04,-6 186.04,0 192.04,0 192.04,0 222.04,0 222.04,0 228.04,0 234.04,-6 234.04,-12 234.04,-12 234.04,-24 234.04,-24 234.04,-30 228.04,-36 222.04,-36"/>
<text text-anchor="middle" x="207.04" y="-15.5" font-family="sans" font-size="10.00">all</text>
</g>
<!-- 1 -->
<g id="node2" class="node">
<title>1</title>
<path fill="none" stroke="#80d856" stroke-width="2" d="M244.04,-108C244.04,-108 170.04,-108 170.04,-108 164.04,-108 158.04,-102 158.04,-96 158.04,-96 158.04,-84 158.04,-84 158.04,-78 164.04,-72 170.04,-72 170.04,-72 244.04,-72 244.04,-72 250.04,-72 256.04,-78 256.04,-84 256.04,-84 256.04,-96 256.04,-96 256.04,-102 250.04,-108 244.04,-108"/>
<text text-anchor="middle" x="207.04" y="-87.5" font-family="sans" font-size="10.00">github_page_index</text>
</g>
<!-- 1&#45;&gt;0 -->
<g id="edge1" class="edge">
<title>1&#45;&gt;0</title>
<path fill="none" stroke="grey" stroke-width="2" d="M207.04,-71.7C207.04,-63.98 207.04,-54.71 207.04,-46.11"/>
<polygon fill="grey" stroke="grey" stroke-width="2" points="210.54,-46.1 207.04,-36.1 203.54,-46.1 210.54,-46.1"/>
</g>
<!-- 2 -->
<g id="node3" class="node">
<title>2</title>
<path fill="none" stroke="#56a9d8" stroke-width="2" d="M78.54,-180C78.54,-180 27.54,-180 27.54,-180 21.54,-180 15.54,-174 15.54,-168 15.54,-168 15.54,-156 15.54,-156 15.54,-150 21.54,-144 27.54,-144 27.54,-144 78.54,-144 78.54,-144 84.54,-144 90.54,-150 90.54,-156 90.54,-156 90.54,-168 90.54,-168 90.54,-174 84.54,-180 78.54,-180"/>
<text text-anchor="middle" x="53.04" y="-159.5" font-family="sans" font-size="10.00">get_rulegraph</text>
</g>
<!-- 2&#45;&gt;1 -->
<g id="edge6" class="edge">
<title>2&#45;&gt;1</title>
<path fill="none" stroke="grey" stroke-width="2" d="M90.71,-143.88C111.67,-134.35 137.95,-122.41 160.22,-112.28"/>
<polygon fill="grey" stroke="grey" stroke-width="2" points="161.83,-115.39 169.49,-108.07 158.94,-109.02 161.83,-115.39"/>
</g>
<!-- 3 -->
<g id="node4" class="node">
<title>3</title>
<path fill="none" stroke="#5682d8" stroke-width="2" d="M296.54,-180C296.54,-180 227.54,-180 227.54,-180 221.54,-180 215.54,-174 215.54,-168 215.54,-168 215.54,-156 215.54,-156 215.54,-150 221.54,-144 227.54,-144 227.54,-144 296.54,-144 296.54,-144 302.54,-144 308.54,-150 308.54,-156 308.54,-156 308.54,-168 308.54,-168 308.54,-174 302.54,-180 296.54,-180"/>
<text text-anchor="middle" x="262.04" y="-159.5" font-family="sans" font-size="10.00">plot_variable_freq</text>
</g>
<!-- 3&#45;&gt;1 -->
<g id="edge8" class="edge">
<title>3&#45;&gt;1</title>
<path fill="none" stroke="grey" stroke-width="2" d="M248.45,-143.7C241.92,-135.39 233.97,-125.28 226.79,-116.14"/>
<polygon fill="grey" stroke="grey" stroke-width="2" points="229.41,-113.81 220.48,-108.1 223.91,-118.13 229.41,-113.81"/>
</g>
<!-- 4 -->
<g id="node5" class="node">
<title>4</title>
<path fill="none" stroke="#56d8d8" stroke-width="2" d="M189.54,-252C189.54,-252 116.54,-252 116.54,-252 110.54,-252 104.54,-246 104.54,-240 104.54,-240 104.54,-228 104.54,-228 104.54,-222 110.54,-216 116.54,-216 116.54,-216 189.54,-216 189.54,-216 195.54,-216 201.54,-222 201.54,-228 201.54,-228 201.54,-240 201.54,-240 201.54,-246 195.54,-252 189.54,-252"/>
<text text-anchor="middle" x="153.04" y="-231.5" font-family="sans" font-size="10.00">get_tidy_metadata</text>
</g>
<!-- 4&#45;&gt;3 -->
<g id="edge9" class="edge">
<title>4&#45;&gt;3</title>
<path fill="none" stroke="grey" stroke-width="2" d="M179.71,-215.88C193.82,-206.81 211.35,-195.55 226.6,-185.76"/>
<polygon fill="grey" stroke="grey" stroke-width="2" points="228.75,-188.54 235.27,-180.19 224.97,-182.65 228.75,-188.54"/>
</g>
<!-- 5 -->
<g id="node6" class="node">
<title>5</title>
<path fill="none" stroke="#afd856" stroke-width="2" d="M185.04,-180C185.04,-180 121.04,-180 121.04,-180 115.04,-180 109.04,-174 109.04,-168 109.04,-168 109.04,-156 109.04,-156 109.04,-150 115.04,-144 121.04,-144 121.04,-144 185.04,-144 185.04,-144 191.04,-144 197.04,-150 197.04,-156 197.04,-156 197.04,-168 197.04,-168 197.04,-174 191.04,-180 185.04,-180"/>
<text text-anchor="middle" x="153.04" y="-159.5" font-family="sans" font-size="10.00">get_sample_gps</text>
</g>
<!-- 4&#45;&gt;5 -->
<g id="edge10" class="edge">
<title>4&#45;&gt;5</title>
<path fill="none" stroke="grey" stroke-width="2" d="M153.04,-215.7C153.04,-207.98 153.04,-198.71 153.04,-190.11"/>
<polygon fill="grey" stroke="grey" stroke-width="2" points="156.54,-190.1 153.04,-180.1 149.54,-190.1 156.54,-190.1"/>
</g>
<!-- 9 -->
<g id="node10" class="node">
<title>9</title>
<path fill="none" stroke="#d88556" stroke-width="2" d="M105.04,-108C105.04,-108 23.04,-108 23.04,-108 17.04,-108 11.04,-102 11.04,-96 11.04,-96 11.04,-84 11.04,-84 11.04,-78 17.04,-72 23.04,-72 23.04,-72 105.04,-72 105.04,-72 111.04,-72 117.04,-78 117.04,-84 117.04,-84 117.04,-96 117.04,-96 117.04,-102 111.04,-108 105.04,-108"/>
<text text-anchor="middle" x="64.04" y="-87.5" font-family="sans" font-size="10.00">download_sra_reads</text>
</g>
<!-- 4&#45;&gt;9 -->
<g id="edge12" class="edge">
<title>4&#45;&gt;9</title>
<path fill="none" stroke="grey" stroke-width="2" d="M104.37,-229.53C70.69,-224.29 28.11,-211.41 6.04,-180 -3.16,-166.91 -0.41,-158.64 6.04,-144 11.03,-132.69 19.75,-122.74 28.94,-114.62"/>
<polygon fill="grey" stroke="grey" stroke-width="2" points="31.21,-117.28 36.7,-108.23 26.76,-111.88 31.21,-117.28"/>
</g>
<!-- 5&#45;&gt;1 -->
<g id="edge5" class="edge">
<title>5&#45;&gt;1</title>
<path fill="none" stroke="grey" stroke-width="2" d="M166.39,-143.7C172.8,-135.39 180.6,-125.28 187.65,-116.14"/>
<polygon fill="grey" stroke="grey" stroke-width="2" points="190.51,-118.16 193.85,-108.1 184.97,-113.88 190.51,-118.16"/>
</g>
<!-- 6 -->
<g id="node7" class="node">
<title>6</title>
<path fill="none" stroke="#d6d856" stroke-width="2" d="M530.54,-180C530.54,-180 459.54,-180 459.54,-180 453.54,-180 447.54,-174 447.54,-168 447.54,-168 447.54,-156 447.54,-156 447.54,-150 453.54,-144 459.54,-144 459.54,-144 530.54,-144 530.54,-144 536.54,-144 542.54,-150 542.54,-156 542.54,-156 542.54,-168 542.54,-168 542.54,-174 536.54,-180 530.54,-180"/>
<text text-anchor="middle" x="495.04" y="-159.5" font-family="sans" font-size="10.00">static_smk_report</text>
</g>
<!-- 6&#45;&gt;1 -->
<g id="edge4" class="edge">
<title>6&#45;&gt;1</title>
<path fill="none" stroke="grey" stroke-width="2" d="M447.46,-146.24C444.62,-145.45 441.8,-144.7 439.04,-144 365.5,-125.27 343.38,-126.95 266.04,-108.14"/>
<polygon fill="grey" stroke="grey" stroke-width="2" points="266.87,-104.74 256.33,-105.74 265.2,-111.54 266.87,-104.74"/>
</g>
<!-- 7 -->
<g id="node8" class="node">
<title>7</title>
<path fill="none" stroke="#d8ac56" stroke-width="2" d="M541.04,-252C541.04,-252 449.04,-252 449.04,-252 443.04,-252 437.04,-246 437.04,-240 437.04,-240 437.04,-228 437.04,-228 437.04,-222 443.04,-216 449.04,-216 449.04,-216 541.04,-216 541.04,-216 547.04,-216 553.04,-222 553.04,-228 553.04,-228 553.04,-240 553.04,-240 553.04,-246 547.04,-252 541.04,-252"/>
<text text-anchor="middle" x="495.04" y="-231.5" font-family="sans" font-size="10.00">interactive_smk_report</text>
</g>
<!-- 7&#45;&gt;6 -->
<g id="edge11" class="edge">
<title>7&#45;&gt;6</title>
<path fill="none" stroke="grey" stroke-width="2" d="M495.04,-215.7C495.04,-207.98 495.04,-198.71 495.04,-190.11"/>
<polygon fill="grey" stroke="grey" stroke-width="2" points="498.54,-190.1 495.04,-180.1 491.54,-190.1 498.54,-190.1"/>
</g>
<!-- 8 -->
<g id="node9" class="node">
<title>8</title>
<path fill="none" stroke="#d85656" stroke-width="2" d="M417.54,-180C417.54,-180 338.54,-180 338.54,-180 332.54,-180 326.54,-174 326.54,-168 326.54,-168 326.54,-156 326.54,-156 326.54,-150 332.54,-144 338.54,-144 338.54,-144 417.54,-144 417.54,-144 423.54,-144 429.54,-150 429.54,-156 429.54,-156 429.54,-168 429.54,-168 429.54,-174 423.54,-180 417.54,-180"/>
<text text-anchor="middle" x="378.04" y="-159.5" font-family="sans" font-size="10.00">get_project_tree_txt</text>
</g>
<!-- 8&#45;&gt;1 -->
<g id="edge7" class="edge">
<title>8&#45;&gt;1</title>
<path fill="none" stroke="grey" stroke-width="2" d="M336.21,-143.88C312.62,-134.22 282.98,-122.09 258.04,-111.88"/>
<polygon fill="grey" stroke="grey" stroke-width="2" points="259.32,-108.62 248.74,-108.07 256.66,-115.1 259.32,-108.62"/>
</g>
<!-- 9&#45;&gt;0 -->
<g id="edge2" class="edge">
<title>9&#45;&gt;0</title>
<path fill="none" stroke="grey" stroke-width="2" d="M99.02,-71.88C120.87,-61.18 148.94,-47.44 170.99,-36.65"/>
<polygon fill="grey" stroke="grey" stroke-width="2" points="172.59,-39.76 180.03,-32.22 169.51,-33.47 172.59,-39.76"/>
</g>
<!-- 10 -->
<g id="node11" class="node">
<title>10</title>
<path fill="none" stroke="#56d882" stroke-width="2" d="M345.54,-108C345.54,-108 286.54,-108 286.54,-108 280.54,-108 274.54,-102 274.54,-96 274.54,-96 274.54,-84 274.54,-84 274.54,-78 280.54,-72 286.54,-72 286.54,-72 345.54,-72 345.54,-72 351.54,-72 357.54,-78 357.54,-84 357.54,-84 357.54,-96 357.54,-96 357.54,-102 351.54,-108 345.54,-108"/>
<text text-anchor="middle" x="316.04" y="-87.5" font-family="sans" font-size="10.00">basic_software</text>
</g>
<!-- 10&#45;&gt;0 -->
<g id="edge3" class="edge">
<title>10&#45;&gt;0</title>
<path fill="none" stroke="grey" stroke-width="2" d="M289.38,-71.88C275.26,-62.81 257.73,-51.55 242.48,-41.76"/>
<polygon fill="grey" stroke="grey" stroke-width="2" points="244.11,-38.65 233.81,-36.19 240.33,-44.54 244.11,-38.65"/>
</g>
</g>
</svg>
