<?xml version="1.0" encoding="UTF-8" standalone="no"?>
<!DOCTYPE svg PUBLIC "-//W3C//DTD SVG 1.1//EN"
 "http://www.w3.org/Graphics/SVG/1.1/DTD/svg11.dtd">
<!-- Generated by graphviz version 6.0.1 (0)
 -->
<!-- Title: snakemake_dag Pages: 1 -->
<svg width="975pt" height="548pt"
 viewBox="0.00 0.00 975.00 548.00" xmlns="http://www.w3.org/2000/svg" xmlns:xlink="http://www.w3.org/1999/xlink">
<g id="graph0" class="graph" transform="scale(1 1) rotate(0) translate(4 544)">
<title>snakemake_dag</title>
<polygon fill="white" stroke="none" points="-4,4 -4,-544 971,-544 971,4 -4,4"/>
<!-- 0 -->
<g id="node1" class="node">
<title>0</title>
<path fill="none" stroke="#d8ac56" stroke-width="2" d="M773,-36C773,-36 743,-36 743,-36 737,-36 731,-30 731,-24 731,-24 731,-12 731,-12 731,-6 737,0 743,0 743,0 773,0 773,0 779,0 785,-6 785,-12 785,-12 785,-24 785,-24 785,-30 779,-36 773,-36"/>
<text text-anchor="middle" x="758" y="-15.5" font-family="sans" font-size="10.00">all</text>
</g>
<!-- 1 -->
<g id="node2" class="node">
<title>1</title>
<path fill="none" stroke="#d87556" stroke-width="2" d="M488,-108C488,-108 384,-108 384,-108 378,-108 372,-102 372,-96 372,-96 372,-84 372,-84 372,-78 378,-72 384,-72 384,-72 488,-72 488,-72 494,-72 500,-78 500,-84 500,-84 500,-96 500,-96 500,-102 494,-108 488,-108"/>
<text text-anchor="middle" x="436" y="-87.5" font-family="sans" font-size="10.00">github_summary_website</text>
</g>
<!-- 1&#45;&gt;0 -->
<g id="edge6" class="edge">
<title>1&#45;&gt;0</title>
<path fill="none" stroke="grey" stroke-width="2" d="M500,-75.09C566.17,-60.7 667.18,-38.74 721.08,-27.03"/>
<polygon fill="grey" stroke="grey" stroke-width="2" points="721.86,-30.44 730.89,-24.89 720.38,-23.6 721.86,-30.44"/>
</g>
<!-- 2 -->
<g id="node3" class="node">
<title>2</title>
<path fill="none" stroke="#59d856" stroke-width="2" d="M179.5,-180C179.5,-180 128.5,-180 128.5,-180 122.5,-180 116.5,-174 116.5,-168 116.5,-168 116.5,-156 116.5,-156 116.5,-150 122.5,-144 128.5,-144 128.5,-144 179.5,-144 179.5,-144 185.5,-144 191.5,-150 191.5,-156 191.5,-156 191.5,-168 191.5,-168 191.5,-174 185.5,-180 179.5,-180"/>
<text text-anchor="middle" x="154" y="-159.5" font-family="sans" font-size="10.00">dot_rulegraph</text>
</g>
<!-- 2&#45;&gt;1 -->
<g id="edge14" class="edge">
<title>2&#45;&gt;1</title>
<path fill="none" stroke="grey" stroke-width="2" d="M191.57,-146.94C194.75,-145.9 197.92,-144.9 201,-144 254.2,-128.45 315.3,-114.79 361.86,-105.24"/>
<polygon fill="grey" stroke="grey" stroke-width="2" points="362.76,-108.63 371.86,-103.2 361.37,-101.77 362.76,-108.63"/>
</g>
<!-- 3 -->
<g id="node4" class="node">
<title>3</title>
<path fill="none" stroke="#afd856" stroke-width="2" d="M302,-180C302,-180 222,-180 222,-180 216,-180 210,-174 210,-168 210,-168 210,-156 210,-156 210,-150 216,-144 222,-144 222,-144 302,-144 302,-144 308,-144 314,-150 314,-156 314,-156 314,-168 314,-168 314,-174 308,-180 302,-180"/>
<text text-anchor="middle" x="262" y="-159.5" font-family="sans" font-size="10.00">ggplot_variable_freq</text>
</g>
<!-- 3&#45;&gt;1 -->
<g id="edge10" class="edge">
<title>3&#45;&gt;1</title>
<path fill="none" stroke="grey" stroke-width="2" d="M304.57,-143.88C328.56,-134.22 358.73,-122.09 384.1,-111.88"/>
<polygon fill="grey" stroke="grey" stroke-width="2" points="385.6,-115.05 393.57,-108.07 382.99,-108.55 385.6,-115.05"/>
</g>
<!-- 4 -->
<g id="node5" class="node">
<title>4</title>
<path fill="none" stroke="#70d856" stroke-width="2" d="M373,-252C373,-252 281,-252 281,-252 275,-252 269,-246 269,-240 269,-240 269,-228 269,-228 269,-222 275,-216 281,-216 281,-216 373,-216 373,-216 379,-216 385,-222 385,-228 385,-228 385,-240 385,-240 385,-246 379,-252 373,-252"/>
<text text-anchor="middle" x="327" y="-231.5" font-family="sans" font-size="10.00">process_sra_metadata</text>
</g>
<!-- 4&#45;&gt;3 -->
<g id="edge15" class="edge">
<title>4&#45;&gt;3</title>
<path fill="none" stroke="grey" stroke-width="2" d="M310.93,-215.7C303.06,-207.22 293.44,-196.86 284.83,-187.58"/>
<polygon fill="grey" stroke="grey" stroke-width="2" points="287.25,-185.05 277.88,-180.1 282.12,-189.81 287.25,-185.05"/>
</g>
<!-- 6 -->
<g id="node7" class="node">
<title>6</title>
<path fill="none" stroke="#56d873" stroke-width="2" d="M439.5,-180C439.5,-180 344.5,-180 344.5,-180 338.5,-180 332.5,-174 332.5,-168 332.5,-168 332.5,-156 332.5,-156 332.5,-150 338.5,-144 344.5,-144 344.5,-144 439.5,-144 439.5,-144 445.5,-144 451.5,-150 451.5,-156 451.5,-156 451.5,-168 451.5,-168 451.5,-174 445.5,-180 439.5,-180"/>
<text text-anchor="middle" x="392" y="-159.5" font-family="sans" font-size="10.00">leaflet_sample_location</text>
</g>
<!-- 4&#45;&gt;6 -->
<g id="edge17" class="edge">
<title>4&#45;&gt;6</title>
<path fill="none" stroke="grey" stroke-width="2" d="M343.07,-215.7C350.94,-207.22 360.56,-196.86 369.17,-187.58"/>
<polygon fill="grey" stroke="grey" stroke-width="2" points="371.88,-189.81 376.12,-180.1 366.75,-185.05 371.88,-189.81"/>
</g>
<!-- 8 -->
<g id="node9" class="node">
<title>8</title>
<path fill="none" stroke="#56d8a9" stroke-width="2" d="M86,-180C86,-180 12,-180 12,-180 6,-180 0,-174 0,-168 0,-168 0,-156 0,-156 0,-150 6,-144 12,-144 12,-144 86,-144 86,-144 92,-144 98,-150 98,-156 98,-156 98,-168 98,-168 98,-174 92,-180 86,-180"/>
<text text-anchor="middle" x="49" y="-159.5" font-family="sans" font-size="10.00">R_dplyr_read_size</text>
</g>
<!-- 4&#45;&gt;8 -->
<g id="edge18" class="edge">
<title>4&#45;&gt;8</title>
<path fill="none" stroke="grey" stroke-width="2" d="M268.9,-219.82C226.7,-210.05 167.99,-196.09 107.69,-180.12"/>
<polygon fill="grey" stroke="grey" stroke-width="2" points="108.56,-176.74 98,-177.54 106.76,-183.5 108.56,-176.74"/>
</g>
<!-- 5 -->
<g id="node6" class="node">
<title>5</title>
<path fill="none" stroke="#56c9d8" stroke-width="2" d="M575,-540C575,-540 477,-540 477,-540 471,-540 465,-534 465,-528 465,-528 465,-516 465,-516 465,-510 471,-504 477,-504 477,-504 575,-504 575,-504 581,-504 587,-510 587,-516 587,-516 587,-528 587,-528 587,-534 581,-540 575,-540"/>
<text text-anchor="middle" x="526" y="-519.5" font-family="sans" font-size="10.00">download_sra_metadata</text>
</g>
<!-- 5&#45;&gt;4 -->
<g id="edge16" class="edge">
<title>5&#45;&gt;4</title>
<path fill="none" stroke="grey" stroke-width="2" d="M514.15,-503.97C480.63,-455.8 385.01,-318.37 344.97,-260.83"/>
<polygon fill="grey" stroke="grey" stroke-width="2" points="347.63,-258.52 339.04,-252.31 341.88,-262.51 347.63,-258.52"/>
</g>
<!-- 12 -->
<g id="node13" class="node">
<title>12</title>
<path fill="none" stroke="#5692d8" stroke-width="2" d="M604,-468C604,-468 530,-468 530,-468 524,-468 518,-462 518,-456 518,-456 518,-444 518,-444 518,-438 524,-432 530,-432 530,-432 604,-432 604,-432 610,-432 616,-438 616,-444 616,-444 616,-456 616,-456 616,-462 610,-468 604,-468"/>
<text text-anchor="middle" x="567" y="-447.5" font-family="sans" font-size="10.00">get_sra_accesions</text>
</g>
<!-- 5&#45;&gt;12 -->
<g id="edge22" class="edge">
<title>5&#45;&gt;12</title>
<path fill="none" stroke="grey" stroke-width="2" d="M536.13,-503.7C540.85,-495.64 546.56,-485.89 551.78,-476.98"/>
<polygon fill="grey" stroke="grey" stroke-width="2" points="554.95,-478.5 556.98,-468.1 548.91,-474.96 554.95,-478.5"/>
</g>
<!-- 6&#45;&gt;1 -->
<g id="edge11" class="edge">
<title>6&#45;&gt;1</title>
<path fill="none" stroke="grey" stroke-width="2" d="M402.88,-143.7C407.99,-135.56 414.2,-125.69 419.84,-116.7"/>
<polygon fill="grey" stroke="grey" stroke-width="2" points="422.89,-118.43 425.25,-108.1 416.96,-114.71 422.89,-118.43"/>
</g>
<!-- 7 -->
<g id="node8" class="node">
<title>7</title>
<path fill="none" stroke="#56d892" stroke-width="2" d="M564,-180C564,-180 520,-180 520,-180 514,-180 508,-174 508,-168 508,-168 508,-156 508,-156 508,-150 514,-144 520,-144 520,-144 564,-144 564,-144 570,-144 576,-150 576,-156 576,-156 576,-168 576,-168 576,-174 570,-180 564,-180"/>
<text text-anchor="middle" x="542" y="-159.5" font-family="sans" font-size="10.00">project_tree</text>
</g>
<!-- 7&#45;&gt;1 -->
<g id="edge12" class="edge">
<title>7&#45;&gt;1</title>
<path fill="none" stroke="grey" stroke-width="2" d="M516.07,-143.88C502.34,-134.81 485.29,-123.55 470.46,-113.76"/>
<polygon fill="grey" stroke="grey" stroke-width="2" points="472.3,-110.78 462.03,-108.19 468.45,-116.62 472.3,-110.78"/>
</g>
<!-- 8&#45;&gt;1 -->
<g id="edge13" class="edge">
<title>8&#45;&gt;1</title>
<path fill="none" stroke="grey" stroke-width="2" d="M98.25,-146.11C101.2,-145.36 104.13,-144.65 107,-144 193.68,-124.4 294.8,-109.24 361.81,-100.24"/>
<polygon fill="grey" stroke="grey" stroke-width="2" points="362.41,-103.7 371.86,-98.91 361.49,-96.76 362.41,-103.7"/>
</g>
<!-- 9 -->
<g id="node10" class="node">
<title>9</title>
<path fill="none" stroke="#d8cb56" stroke-width="2" d="M661.5,-252C661.5,-252 578.5,-252 578.5,-252 572.5,-252 566.5,-246 566.5,-240 566.5,-240 566.5,-228 566.5,-228 566.5,-222 572.5,-216 578.5,-216 578.5,-216 661.5,-216 661.5,-216 667.5,-216 673.5,-222 673.5,-228 673.5,-228 673.5,-240 673.5,-240 673.5,-246 667.5,-252 661.5,-252"/>
<text text-anchor="middle" x="620" y="-231.5" font-family="sans" font-size="10.00">mothur_mapping_file</text>
</g>
<!-- 9&#45;&gt;0 -->
<g id="edge2" class="edge">
<title>9&#45;&gt;0</title>
<path fill="none" stroke="grey" stroke-width="2" d="M656.61,-215.84C672.11,-207.01 689.27,-194.93 701,-180 717.72,-158.71 739.59,-85.88 750.75,-45.86"/>
<polygon fill="grey" stroke="grey" stroke-width="2" points="754.13,-46.79 753.42,-36.22 747.38,-44.92 754.13,-46.79"/>
</g>
<!-- 9&#45;&gt;1 -->
<g id="edge9" class="edge">
<title>9&#45;&gt;1</title>
<path fill="none" stroke="grey" stroke-width="2" d="M566.21,-216.61C543.87,-208.07 518.64,-196.01 499,-180 477.81,-162.73 460.49,-136.63 449.4,-117.16"/>
<polygon fill="grey" stroke="grey" stroke-width="2" points="452.36,-115.27 444.48,-108.2 446.23,-118.65 452.36,-115.27"/>
</g>
<!-- 13 -->
<g id="node14" class="node">
<title>13</title>
<path fill="none" stroke="#d88d56" stroke-width="2" d="M680,-180C680,-180 606,-180 606,-180 600,-180 594,-174 594,-168 594,-168 594,-156 594,-156 594,-150 600,-144 606,-144 606,-144 680,-144 680,-144 686,-144 692,-150 692,-156 692,-156 692,-168 692,-168 692,-174 686,-180 680,-180"/>
<text text-anchor="middle" x="643" y="-159.5" font-family="sans" font-size="10.00">mothur_design_file</text>
</g>
<!-- 9&#45;&gt;13 -->
<g id="edge23" class="edge">
<title>9&#45;&gt;13</title>
<path fill="none" stroke="grey" stroke-width="2" d="M625.69,-215.7C628.25,-207.9 631.33,-198.51 634.18,-189.83"/>
<polygon fill="grey" stroke="grey" stroke-width="2" points="637.58,-190.7 637.38,-180.1 630.93,-188.51 637.58,-190.7"/>
</g>
<!-- 10 -->
<g id="node11" class="node">
<title>10</title>
<path fill="none" stroke="#56d8c9" stroke-width="2" d="M638,-324C638,-324 558,-324 558,-324 552,-324 546,-318 546,-312 546,-312 546,-300 546,-300 546,-294 552,-288 558,-288 558,-288 638,-288 638,-288 644,-288 650,-294 650,-300 650,-300 650,-312 650,-312 650,-318 644,-324 638,-324"/>
<text text-anchor="middle" x="598" y="-303.5" font-family="sans" font-size="10.00">seqkit_simple_stats</text>
</g>
<!-- 10&#45;&gt;9 -->
<g id="edge19" class="edge">
<title>10&#45;&gt;9</title>
<path fill="none" stroke="grey" stroke-width="2" d="M603.44,-287.7C605.89,-279.9 608.84,-270.51 611.57,-261.83"/>
<polygon fill="grey" stroke="grey" stroke-width="2" points="614.96,-262.69 614.62,-252.1 608.29,-260.59 614.96,-262.69"/>
</g>
<!-- 11 -->
<g id="node12" class="node">
<title>11</title>
<path fill="none" stroke="#8fd856" stroke-width="2" d="M669,-396C669,-396 587,-396 587,-396 581,-396 575,-390 575,-384 575,-384 575,-372 575,-372 575,-366 581,-360 587,-360 587,-360 669,-360 669,-360 675,-360 681,-366 681,-372 681,-372 681,-384 681,-384 681,-390 675,-396 669,-396"/>
<text text-anchor="middle" x="628" y="-375.5" font-family="sans" font-size="10.00">download_sra_reads</text>
</g>
<!-- 11&#45;&gt;0 -->
<g id="edge5" class="edge">
<title>11&#45;&gt;0</title>
<path fill="none" stroke="grey" stroke-width="2" d="M681.02,-370.89C712.95,-364.44 751.96,-351.19 776,-324 802.85,-293.63 796,-275.54 796,-235 796,-235 796,-235 796,-161 796,-119.63 780.77,-73.72 769.59,-45.61"/>
<polygon fill="grey" stroke="grey" stroke-width="2" points="772.72,-44.02 765.69,-36.09 766.24,-46.67 772.72,-44.02"/>
</g>
<!-- 11&#45;&gt;10 -->
<g id="edge20" class="edge">
<title>11&#45;&gt;10</title>
<path fill="none" stroke="grey" stroke-width="2" d="M620.58,-359.7C617.21,-351.81 613.13,-342.3 609.38,-333.55"/>
<polygon fill="grey" stroke="grey" stroke-width="2" points="612.49,-331.92 605.33,-324.1 606.05,-334.67 612.49,-331.92"/>
</g>
<!-- 14 -->
<g id="node15" class="node">
<title>14</title>
<path fill="none" stroke="#c6d856" stroke-width="2" d="M755.5,-324C755.5,-324 680.5,-324 680.5,-324 674.5,-324 668.5,-318 668.5,-312 668.5,-312 668.5,-300 668.5,-300 668.5,-294 674.5,-288 680.5,-288 680.5,-288 755.5,-288 755.5,-288 761.5,-288 767.5,-294 767.5,-300 767.5,-300 767.5,-312 767.5,-312 767.5,-318 761.5,-324 755.5,-324"/>
<text text-anchor="middle" x="718" y="-303.5" font-family="sans" font-size="10.00">seqkit_test_subset</text>
</g>
<!-- 11&#45;&gt;14 -->
<g id="edge24" class="edge">
<title>11&#45;&gt;14</title>
<path fill="none" stroke="grey" stroke-width="2" d="M650.25,-359.7C661.58,-350.88 675.53,-340.03 687.82,-330.47"/>
<polygon fill="grey" stroke="grey" stroke-width="2" points="690.26,-333.01 696.01,-324.1 685.97,-327.48 690.26,-333.01"/>
</g>
<!-- 12&#45;&gt;11 -->
<g id="edge21" class="edge">
<title>12&#45;&gt;11</title>
<path fill="none" stroke="grey" stroke-width="2" d="M582.08,-431.7C589.39,-423.3 598.31,-413.07 606.34,-403.86"/>
<polygon fill="grey" stroke="grey" stroke-width="2" points="609.16,-405.94 613.09,-396.1 603.89,-401.34 609.16,-405.94"/>
</g>
<!-- 13&#45;&gt;0 -->
<g id="edge1" class="edge">
<title>13&#45;&gt;0</title>
<path fill="none" stroke="grey" stroke-width="2" d="M654.07,-143.67C666.09,-125.29 686.22,-95.68 706,-72 714.26,-62.11 724.01,-51.86 732.81,-43.04"/>
<polygon fill="grey" stroke="grey" stroke-width="2" points="735.28,-45.52 739.93,-36 730.36,-40.54 735.28,-45.52"/>
</g>
<!-- 13&#45;&gt;1 -->
<g id="edge8" class="edge">
<title>13&#45;&gt;1</title>
<path fill="none" stroke="grey" stroke-width="2" d="M593.94,-144.41C564.71,-134.52 527.37,-121.9 496.34,-111.4"/>
<polygon fill="grey" stroke="grey" stroke-width="2" points="497.1,-107.97 486.5,-108.08 494.86,-114.6 497.1,-107.97"/>
</g>
<!-- 14&#45;&gt;0 -->
<g id="edge3" class="edge">
<title>14&#45;&gt;0</title>
<path fill="none" stroke="grey" stroke-width="2" d="M720.38,-287.97C727.06,-240.19 746.02,-104.62 754.19,-46.27"/>
<polygon fill="grey" stroke="grey" stroke-width="2" points="757.66,-46.69 755.58,-36.31 750.73,-45.73 757.66,-46.69"/>
</g>
<!-- 15 -->
<g id="node16" class="node">
<title>15</title>
<path fill="none" stroke="#5673d8" stroke-width="2" d="M955,-180C955,-180 881,-180 881,-180 875,-180 869,-174 869,-168 869,-168 869,-156 869,-156 869,-150 875,-144 881,-144 881,-144 955,-144 955,-144 961,-144 967,-150 967,-156 967,-156 967,-168 967,-168 967,-174 961,-180 955,-180"/>
<text text-anchor="middle" x="918" y="-159.5" font-family="sans" font-size="10.00">mothur_references</text>
</g>
<!-- 15&#45;&gt;0 -->
<g id="edge7" class="edge">
<title>15&#45;&gt;0</title>
<path fill="none" stroke="grey" stroke-width="2" d="M929.32,-143.89C940.5,-124.6 953.84,-93.18 938,-72 920.87,-49.09 842.53,-32.67 795.03,-24.62"/>
<polygon fill="grey" stroke="grey" stroke-width="2" points="795.54,-21.16 785.11,-22.98 794.4,-28.06 795.54,-21.16"/>
</g>
<!-- 16 -->
<g id="node17" class="node">
<title>16</title>
<path fill="none" stroke="#56a9d8" stroke-width="2" d="M917.5,-108C917.5,-108 836.5,-108 836.5,-108 830.5,-108 824.5,-102 824.5,-96 824.5,-96 824.5,-84 824.5,-84 824.5,-78 830.5,-72 836.5,-72 836.5,-72 917.5,-72 917.5,-72 923.5,-72 929.5,-78 929.5,-84 929.5,-84 929.5,-96 929.5,-96 929.5,-102 923.5,-108 917.5,-108"/>
<text text-anchor="middle" x="877" y="-87.5" font-family="sans" font-size="10.00">mothur_zymo_mock</text>
</g>
<!-- 15&#45;&gt;16 -->
<g id="edge25" class="edge">
<title>15&#45;&gt;16</title>
<path fill="none" stroke="grey" stroke-width="2" d="M907.87,-143.7C903.15,-135.64 897.44,-125.89 892.22,-116.98"/>
<polygon fill="grey" stroke="grey" stroke-width="2" points="895.09,-114.96 887.02,-108.1 889.05,-118.5 895.09,-114.96"/>
</g>
<!-- 16&#45;&gt;0 -->
<g id="edge4" class="edge">
<title>16&#45;&gt;0</title>
<path fill="none" stroke="grey" stroke-width="2" d="M847.89,-71.88C831.6,-62.29 811.16,-50.27 793.88,-40.11"/>
<polygon fill="grey" stroke="grey" stroke-width="2" points="795.57,-37.04 785.18,-34.99 792.02,-43.07 795.57,-37.04"/>
</g>
</g>
</svg>
