<?xml version="1.0" encoding="UTF-8" standalone="no"?>
<!DOCTYPE svg PUBLIC "-//W3C//DTD SVG 1.1//EN"
 "http://www.w3.org/Graphics/SVG/1.1/DTD/svg11.dtd">
<!-- Generated by graphviz version 6.0.1 (0)
 -->
<!-- Title: snakemake_dag Pages: 1 -->
<svg width="1013pt" height="548pt"
 viewBox="0.00 0.00 1013.00 548.00" xmlns="http://www.w3.org/2000/svg" xmlns:xlink="http://www.w3.org/1999/xlink">
<g id="graph0" class="graph" transform="scale(1 1) rotate(0) translate(4 544)">
<title>snakemake_dag</title>
<polygon fill="white" stroke="none" points="-4,4 -4,-544 1009,-544 1009,4 -4,4"/>
<!-- 0 -->
<g id="node1" class="node">
<title>0</title>
<path fill="none" stroke="#59d856" stroke-width="2" d="M791.5,-36C791.5,-36 761.5,-36 761.5,-36 755.5,-36 749.5,-30 749.5,-24 749.5,-24 749.5,-12 749.5,-12 749.5,-6 755.5,0 761.5,0 761.5,0 791.5,0 791.5,0 797.5,0 803.5,-6 803.5,-12 803.5,-12 803.5,-24 803.5,-24 803.5,-30 797.5,-36 791.5,-36"/>
<text text-anchor="middle" x="776.5" y="-15.5" font-family="sans" font-size="10.00">all</text>
</g>
<!-- 1 -->
<g id="node2" class="node">
<title>1</title>
<path fill="none" stroke="#afd856" stroke-width="2" d="M493.5,-108C493.5,-108 389.5,-108 389.5,-108 383.5,-108 377.5,-102 377.5,-96 377.5,-96 377.5,-84 377.5,-84 377.5,-78 383.5,-72 389.5,-72 389.5,-72 493.5,-72 493.5,-72 499.5,-72 505.5,-78 505.5,-84 505.5,-84 505.5,-96 505.5,-96 505.5,-102 499.5,-108 493.5,-108"/>
<text text-anchor="middle" x="441.5" y="-87.5" font-family="sans" font-size="10.00">github_summary_website</text>
</g>
<!-- 1&#45;&gt;0 -->
<g id="edge4" class="edge">
<title>1&#45;&gt;0</title>
<path fill="none" stroke="grey" stroke-width="2" d="M505.69,-75.59C574.91,-61.12 682.74,-38.59 739.18,-26.8"/>
<polygon fill="grey" stroke="grey" stroke-width="2" points="740.03,-30.2 749.1,-24.72 738.6,-23.34 740.03,-30.2"/>
</g>
<!-- 2 -->
<g id="node3" class="node">
<title>2</title>
<path fill="none" stroke="#70d856" stroke-width="2" d="M63,-180C63,-180 12,-180 12,-180 6,-180 0,-174 0,-168 0,-168 0,-156 0,-156 0,-150 6,-144 12,-144 12,-144 63,-144 63,-144 69,-144 75,-150 75,-156 75,-156 75,-168 75,-168 75,-174 69,-180 63,-180"/>
<text text-anchor="middle" x="37.5" y="-159.5" font-family="sans" font-size="10.00">dot_rulegraph</text>
</g>
<!-- 2&#45;&gt;1 -->
<g id="edge11" class="edge">
<title>2&#45;&gt;1</title>
<path fill="none" stroke="grey" stroke-width="2" d="M75,-146.69C78.19,-145.7 81.39,-144.79 84.5,-144 180.68,-119.73 294.42,-105.21 367.23,-97.66"/>
<polygon fill="grey" stroke="grey" stroke-width="2" points="367.63,-101.14 377.22,-96.64 366.92,-94.17 367.63,-101.14"/>
</g>
<!-- 3 -->
<g id="node4" class="node">
<title>3</title>
<path fill="none" stroke="#d88d56" stroke-width="2" d="M185.5,-180C185.5,-180 105.5,-180 105.5,-180 99.5,-180 93.5,-174 93.5,-168 93.5,-168 93.5,-156 93.5,-156 93.5,-150 99.5,-144 105.5,-144 105.5,-144 185.5,-144 185.5,-144 191.5,-144 197.5,-150 197.5,-156 197.5,-156 197.5,-168 197.5,-168 197.5,-174 191.5,-180 185.5,-180"/>
<text text-anchor="middle" x="145.5" y="-159.5" font-family="sans" font-size="10.00">ggplot_variable_freq</text>
</g>
<!-- 3&#45;&gt;1 -->
<g id="edge9" class="edge">
<title>3&#45;&gt;1</title>
<path fill="none" stroke="grey" stroke-width="2" d="M197.7,-146.27C200.67,-145.49 203.62,-144.73 206.5,-144 260.15,-130.48 321.11,-116.78 367.49,-106.7"/>
<polygon fill="grey" stroke="grey" stroke-width="2" points="368.43,-110.08 377.46,-104.54 366.95,-103.24 368.43,-110.08"/>
</g>
<!-- 4 -->
<g id="node5" class="node">
<title>4</title>
<path fill="none" stroke="#56a9d8" stroke-width="2" d="M384.5,-252C384.5,-252 292.5,-252 292.5,-252 286.5,-252 280.5,-246 280.5,-240 280.5,-240 280.5,-228 280.5,-228 280.5,-222 286.5,-216 292.5,-216 292.5,-216 384.5,-216 384.5,-216 390.5,-216 396.5,-222 396.5,-228 396.5,-228 396.5,-240 396.5,-240 396.5,-246 390.5,-252 384.5,-252"/>
<text text-anchor="middle" x="338.5" y="-231.5" font-family="sans" font-size="10.00">process_sra_metadata</text>
</g>
<!-- 4&#45;&gt;3 -->
<g id="edge16" class="edge">
<title>4&#45;&gt;3</title>
<path fill="none" stroke="grey" stroke-width="2" d="M291.29,-215.88C264.43,-206.14 230.62,-193.87 202.32,-183.61"/>
<polygon fill="grey" stroke="grey" stroke-width="2" points="203.15,-180.19 192.56,-180.07 200.77,-186.77 203.15,-180.19"/>
</g>
<!-- 6 -->
<g id="node7" class="node">
<title>6</title>
<path fill="none" stroke="#8fd856" stroke-width="2" d="M323,-180C323,-180 228,-180 228,-180 222,-180 216,-174 216,-168 216,-168 216,-156 216,-156 216,-150 222,-144 228,-144 228,-144 323,-144 323,-144 329,-144 335,-150 335,-156 335,-156 335,-168 335,-168 335,-174 329,-180 323,-180"/>
<text text-anchor="middle" x="275.5" y="-159.5" font-family="sans" font-size="10.00">leaflet_sample_location</text>
</g>
<!-- 4&#45;&gt;6 -->
<g id="edge18" class="edge">
<title>4&#45;&gt;6</title>
<path fill="none" stroke="grey" stroke-width="2" d="M322.93,-215.7C315.3,-207.22 305.98,-196.86 297.62,-187.58"/>
<polygon fill="grey" stroke="grey" stroke-width="2" points="300.19,-185.2 290.89,-180.1 294.98,-189.88 300.19,-185.2"/>
</g>
<!-- 8 -->
<g id="node9" class="node">
<title>8</title>
<path fill="none" stroke="#56d892" stroke-width="2" d="M439.5,-180C439.5,-180 365.5,-180 365.5,-180 359.5,-180 353.5,-174 353.5,-168 353.5,-168 353.5,-156 353.5,-156 353.5,-150 359.5,-144 365.5,-144 365.5,-144 439.5,-144 439.5,-144 445.5,-144 451.5,-150 451.5,-156 451.5,-156 451.5,-168 451.5,-168 451.5,-174 445.5,-180 439.5,-180"/>
<text text-anchor="middle" x="402.5" y="-159.5" font-family="sans" font-size="10.00">R_dplyr_read_size</text>
</g>
<!-- 4&#45;&gt;8 -->
<g id="edge19" class="edge">
<title>4&#45;&gt;8</title>
<path fill="none" stroke="grey" stroke-width="2" d="M354.32,-215.7C362.07,-207.22 371.54,-196.86 380.02,-187.58"/>
<polygon fill="grey" stroke="grey" stroke-width="2" points="382.7,-189.85 386.86,-180.1 377.53,-185.12 382.7,-189.85"/>
</g>
<!-- 5 -->
<g id="node6" class="node">
<title>5</title>
<path fill="none" stroke="#d87556" stroke-width="2" d="M577.5,-540C577.5,-540 479.5,-540 479.5,-540 473.5,-540 467.5,-534 467.5,-528 467.5,-528 467.5,-516 467.5,-516 467.5,-510 473.5,-504 479.5,-504 479.5,-504 577.5,-504 577.5,-504 583.5,-504 589.5,-510 589.5,-516 589.5,-516 589.5,-528 589.5,-528 589.5,-534 583.5,-540 577.5,-540"/>
<text text-anchor="middle" x="528.5" y="-519.5" font-family="sans" font-size="10.00">download_sra_metadata</text>
</g>
<!-- 5&#45;&gt;4 -->
<g id="edge17" class="edge">
<title>5&#45;&gt;4</title>
<path fill="none" stroke="grey" stroke-width="2" d="M517.18,-503.97C485.18,-455.8 393.88,-318.37 355.66,-260.83"/>
<polygon fill="grey" stroke="grey" stroke-width="2" points="358.45,-258.7 350,-252.31 352.62,-262.57 358.45,-258.7"/>
</g>
<!-- 12 -->
<g id="node13" class="node">
<title>12</title>
<path fill="none" stroke="#d8ac56" stroke-width="2" d="M757.5,-468C757.5,-468 677.5,-468 677.5,-468 671.5,-468 665.5,-462 665.5,-456 665.5,-456 665.5,-444 665.5,-444 665.5,-438 671.5,-432 677.5,-432 677.5,-432 757.5,-432 757.5,-432 763.5,-432 769.5,-438 769.5,-444 769.5,-444 769.5,-456 769.5,-456 769.5,-462 763.5,-468 757.5,-468"/>
<text text-anchor="middle" x="717.5" y="-447.5" font-family="sans" font-size="10.00">get_sra_accessions</text>
</g>
<!-- 5&#45;&gt;12 -->
<g id="edge23" class="edge">
<title>5&#45;&gt;12</title>
<path fill="none" stroke="grey" stroke-width="2" d="M574.73,-503.88C601.03,-494.14 634.14,-481.87 661.86,-471.61"/>
<polygon fill="grey" stroke="grey" stroke-width="2" points="663.25,-474.82 671.42,-468.07 660.82,-468.26 663.25,-474.82"/>
</g>
<!-- 6&#45;&gt;1 -->
<g id="edge12" class="edge">
<title>6&#45;&gt;1</title>
<path fill="none" stroke="grey" stroke-width="2" d="M316.11,-143.88C338.9,-134.26 367.53,-122.19 391.67,-112.01"/>
<polygon fill="grey" stroke="grey" stroke-width="2" points="393.17,-115.18 401.02,-108.07 390.45,-108.73 393.17,-115.18"/>
</g>
<!-- 7 -->
<g id="node8" class="node">
<title>7</title>
<path fill="none" stroke="#56d8c9" stroke-width="2" d="M563.5,-180C563.5,-180 519.5,-180 519.5,-180 513.5,-180 507.5,-174 507.5,-168 507.5,-168 507.5,-156 507.5,-156 507.5,-150 513.5,-144 519.5,-144 519.5,-144 563.5,-144 563.5,-144 569.5,-144 575.5,-150 575.5,-156 575.5,-156 575.5,-168 575.5,-168 575.5,-174 569.5,-180 563.5,-180"/>
<text text-anchor="middle" x="541.5" y="-159.5" font-family="sans" font-size="10.00">project_tree</text>
</g>
<!-- 7&#45;&gt;1 -->
<g id="edge14" class="edge">
<title>7&#45;&gt;1</title>
<path fill="none" stroke="grey" stroke-width="2" d="M517.04,-143.88C504.2,-134.89 488.3,-123.76 474.41,-114.03"/>
<polygon fill="grey" stroke="grey" stroke-width="2" points="476.26,-111.06 466.06,-108.19 472.24,-116.79 476.26,-111.06"/>
</g>
<!-- 8&#45;&gt;1 -->
<g id="edge15" class="edge">
<title>8&#45;&gt;1</title>
<path fill="none" stroke="grey" stroke-width="2" d="M412.14,-143.7C416.63,-135.64 422.06,-125.89 427.02,-116.98"/>
<polygon fill="grey" stroke="grey" stroke-width="2" points="430.16,-118.54 431.97,-108.1 424.05,-115.14 430.16,-118.54"/>
</g>
<!-- 9 -->
<g id="node10" class="node">
<title>9</title>
<path fill="none" stroke="#d8cb56" stroke-width="2" d="M661,-252C661,-252 578,-252 578,-252 572,-252 566,-246 566,-240 566,-240 566,-228 566,-228 566,-222 572,-216 578,-216 578,-216 661,-216 661,-216 667,-216 673,-222 673,-228 673,-228 673,-240 673,-240 673,-246 667,-252 661,-252"/>
<text text-anchor="middle" x="619.5" y="-231.5" font-family="sans" font-size="10.00">mothur_mapping_file</text>
</g>
<!-- 9&#45;&gt;0 -->
<g id="edge3" class="edge">
<title>9&#45;&gt;0</title>
<path fill="none" stroke="grey" stroke-width="2" d="M655.43,-215.86C670.99,-206.97 688.38,-194.83 700.5,-180 733.19,-139.99 720.2,-118.11 743.5,-72 748.14,-62.81 753.89,-53.14 759.27,-44.62"/>
<polygon fill="grey" stroke="grey" stroke-width="2" points="762.21,-46.51 764.69,-36.21 756.33,-42.72 762.21,-46.51"/>
</g>
<!-- 9&#45;&gt;1 -->
<g id="edge10" class="edge">
<title>9&#45;&gt;1</title>
<path fill="none" stroke="grey" stroke-width="2" d="M565.95,-217.28C543.4,-208.81 517.94,-196.61 498.5,-180 478.45,-162.87 462.95,-136.92 453.21,-117.46"/>
<polygon fill="grey" stroke="grey" stroke-width="2" points="456.25,-115.72 448.77,-108.22 449.94,-118.75 456.25,-115.72"/>
</g>
<!-- 13 -->
<g id="node14" class="node">
<title>13</title>
<path fill="none" stroke="#56d873" stroke-width="2" d="M679.5,-180C679.5,-180 605.5,-180 605.5,-180 599.5,-180 593.5,-174 593.5,-168 593.5,-168 593.5,-156 593.5,-156 593.5,-150 599.5,-144 605.5,-144 605.5,-144 679.5,-144 679.5,-144 685.5,-144 691.5,-150 691.5,-156 691.5,-156 691.5,-168 691.5,-168 691.5,-174 685.5,-180 679.5,-180"/>
<text text-anchor="middle" x="642.5" y="-159.5" font-family="sans" font-size="10.00">mothur_design_file</text>
</g>
<!-- 9&#45;&gt;13 -->
<g id="edge24" class="edge">
<title>9&#45;&gt;13</title>
<path fill="none" stroke="grey" stroke-width="2" d="M625.19,-215.7C627.75,-207.9 630.83,-198.51 633.68,-189.83"/>
<polygon fill="grey" stroke="grey" stroke-width="2" points="637.08,-190.7 636.88,-180.1 630.43,-188.51 637.08,-190.7"/>
</g>
<!-- 10 -->
<g id="node11" class="node">
<title>10</title>
<path fill="none" stroke="#56c9d8" stroke-width="2" d="M637.5,-324C637.5,-324 557.5,-324 557.5,-324 551.5,-324 545.5,-318 545.5,-312 545.5,-312 545.5,-300 545.5,-300 545.5,-294 551.5,-288 557.5,-288 557.5,-288 637.5,-288 637.5,-288 643.5,-288 649.5,-294 649.5,-300 649.5,-300 649.5,-312 649.5,-312 649.5,-318 643.5,-324 637.5,-324"/>
<text text-anchor="middle" x="597.5" y="-303.5" font-family="sans" font-size="10.00">seqkit_simple_stats</text>
</g>
<!-- 10&#45;&gt;9 -->
<g id="edge20" class="edge">
<title>10&#45;&gt;9</title>
<path fill="none" stroke="grey" stroke-width="2" d="M602.94,-287.7C605.39,-279.9 608.34,-270.51 611.07,-261.83"/>
<polygon fill="grey" stroke="grey" stroke-width="2" points="614.46,-262.69 614.12,-252.1 607.79,-260.59 614.46,-262.69"/>
</g>
<!-- 11 -->
<g id="node12" class="node">
<title>11</title>
<path fill="none" stroke="#5673d8" stroke-width="2" d="M758.5,-396C758.5,-396 676.5,-396 676.5,-396 670.5,-396 664.5,-390 664.5,-384 664.5,-384 664.5,-372 664.5,-372 664.5,-366 670.5,-360 676.5,-360 676.5,-360 758.5,-360 758.5,-360 764.5,-360 770.5,-366 770.5,-372 770.5,-372 770.5,-384 770.5,-384 770.5,-390 764.5,-396 758.5,-396"/>
<text text-anchor="middle" x="717.5" y="-375.5" font-family="sans" font-size="10.00">download_sra_reads</text>
</g>
<!-- 11&#45;&gt;0 -->
<g id="edge8" class="edge">
<title>11&#45;&gt;0</title>
<path fill="none" stroke="grey" stroke-width="2" d="M742.55,-359.77C754.25,-350.48 767.35,-338.04 775.5,-324 795.85,-288.93 795.5,-275.54 795.5,-235 795.5,-235 795.5,-235 795.5,-161 795.5,-120.86 787.95,-74.9 782.37,-46.4"/>
<polygon fill="grey" stroke="grey" stroke-width="2" points="785.76,-45.5 780.34,-36.39 778.89,-46.88 785.76,-45.5"/>
</g>
<!-- 11&#45;&gt;10 -->
<g id="edge21" class="edge">
<title>11&#45;&gt;10</title>
<path fill="none" stroke="grey" stroke-width="2" d="M688.14,-359.88C672.45,-350.72 652.94,-339.34 636.05,-329.48"/>
<polygon fill="grey" stroke="grey" stroke-width="2" points="637.37,-326.21 626.97,-324.19 633.84,-332.25 637.37,-326.21"/>
</g>
<!-- 14 -->
<g id="node15" class="node">
<title>14</title>
<path fill="none" stroke="#d85656" stroke-width="2" d="M755,-324C755,-324 680,-324 680,-324 674,-324 668,-318 668,-312 668,-312 668,-300 668,-300 668,-294 674,-288 680,-288 680,-288 755,-288 755,-288 761,-288 767,-294 767,-300 767,-300 767,-312 767,-312 767,-318 761,-324 755,-324"/>
<text text-anchor="middle" x="717.5" y="-303.5" font-family="sans" font-size="10.00">seqkit_test_subset</text>
</g>
<!-- 11&#45;&gt;14 -->
<g id="edge25" class="edge">
<title>11&#45;&gt;14</title>
<path fill="none" stroke="grey" stroke-width="2" d="M717.5,-359.7C717.5,-351.98 717.5,-342.71 717.5,-334.11"/>
<polygon fill="grey" stroke="grey" stroke-width="2" points="721,-334.1 717.5,-324.1 714,-334.1 721,-334.1"/>
</g>
<!-- 12&#45;&gt;0 -->
<g id="edge2" class="edge">
<title>12&#45;&gt;0</title>
<path fill="none" stroke="grey" stroke-width="2" d="M745.28,-431.88C779.6,-408.35 833.5,-362.55 833.5,-307 833.5,-307 833.5,-307 833.5,-161 833.5,-117.8 810.5,-72.19 793.72,-44.66"/>
<polygon fill="grey" stroke="grey" stroke-width="2" points="796.59,-42.65 788.31,-36.04 790.67,-46.37 796.59,-42.65"/>
</g>
<!-- 12&#45;&gt;11 -->
<g id="edge22" class="edge">
<title>12&#45;&gt;11</title>
<path fill="none" stroke="grey" stroke-width="2" d="M717.5,-431.7C717.5,-423.98 717.5,-414.71 717.5,-406.11"/>
<polygon fill="grey" stroke="grey" stroke-width="2" points="721,-406.1 717.5,-396.1 714,-406.1 721,-406.1"/>
</g>
<!-- 13&#45;&gt;0 -->
<g id="edge6" class="edge">
<title>13&#45;&gt;0</title>
<path fill="none" stroke="grey" stroke-width="2" d="M652.46,-143.74C663.83,-124.87 683.69,-94.36 705.5,-72 716.13,-61.1 729.15,-50.71 741.13,-42.06"/>
<polygon fill="grey" stroke="grey" stroke-width="2" points="743.45,-44.7 749.62,-36.08 739.42,-38.98 743.45,-44.7"/>
</g>
<!-- 13&#45;&gt;1 -->
<g id="edge13" class="edge">
<title>13&#45;&gt;1</title>
<path fill="none" stroke="grey" stroke-width="2" d="M593.59,-143.97C565.5,-134.19 530.04,-121.84 500.43,-111.52"/>
<polygon fill="grey" stroke="grey" stroke-width="2" points="501.23,-108.09 490.63,-108.11 498.93,-114.71 501.23,-108.09"/>
</g>
<!-- 14&#45;&gt;0 -->
<g id="edge1" class="edge">
<title>14&#45;&gt;0</title>
<path fill="none" stroke="grey" stroke-width="2" d="M721.01,-287.97C730.87,-240.19 758.84,-104.62 770.88,-46.27"/>
<polygon fill="grey" stroke="grey" stroke-width="2" points="774.34,-46.81 772.93,-36.31 767.48,-45.39 774.34,-46.81"/>
</g>
<!-- 15 -->
<g id="node16" class="node">
<title>15</title>
<path fill="none" stroke="#c6d856" stroke-width="2" d="M968.5,-180C968.5,-180 894.5,-180 894.5,-180 888.5,-180 882.5,-174 882.5,-168 882.5,-168 882.5,-156 882.5,-156 882.5,-150 888.5,-144 894.5,-144 894.5,-144 968.5,-144 968.5,-144 974.5,-144 980.5,-150 980.5,-156 980.5,-156 980.5,-168 980.5,-168 980.5,-174 974.5,-180 968.5,-180"/>
<text text-anchor="middle" x="931.5" y="-159.5" font-family="sans" font-size="10.00">mothur_references</text>
</g>
<!-- 15&#45;&gt;0 -->
<g id="edge5" class="edge">
<title>15&#45;&gt;0</title>
<path fill="none" stroke="grey" stroke-width="2" d="M916.83,-143.76C900.67,-125.19 873.52,-95.18 847.5,-72 835.74,-61.52 822.03,-50.95 809.82,-42.03"/>
<polygon fill="grey" stroke="grey" stroke-width="2" points="811.8,-39.15 801.64,-36.15 807.71,-44.83 811.8,-39.15"/>
</g>
<!-- 16 -->
<g id="node17" class="node">
<title>16</title>
<path fill="none" stroke="#56d8a9" stroke-width="2" d="M993,-108C993,-108 912,-108 912,-108 906,-108 900,-102 900,-96 900,-96 900,-84 900,-84 900,-78 906,-72 912,-72 912,-72 993,-72 993,-72 999,-72 1005,-78 1005,-84 1005,-84 1005,-96 1005,-96 1005,-102 999,-108 993,-108"/>
<text text-anchor="middle" x="952.5" y="-87.5" font-family="sans" font-size="10.00">mothur_zymo_mock</text>
</g>
<!-- 15&#45;&gt;16 -->
<g id="edge26" class="edge">
<title>15&#45;&gt;16</title>
<path fill="none" stroke="grey" stroke-width="2" d="M936.69,-143.7C939.03,-135.9 941.85,-126.51 944.45,-117.83"/>
<polygon fill="grey" stroke="grey" stroke-width="2" points="947.85,-118.69 947.37,-108.1 941.14,-116.68 947.85,-118.69"/>
</g>
<!-- 16&#45;&gt;0 -->
<g id="edge7" class="edge">
<title>16&#45;&gt;0</title>
<path fill="none" stroke="grey" stroke-width="2" d="M909.45,-71.88C879.86,-60.11 841.01,-44.66 812.95,-33.5"/>
<polygon fill="grey" stroke="grey" stroke-width="2" points="814.1,-30.19 803.51,-29.74 811.51,-36.69 814.1,-30.19"/>
</g>
</g>
</svg>
