<?xml version="1.0" encoding="UTF-8" standalone="no"?>
<!DOCTYPE svg PUBLIC "-//W3C//DTD SVG 1.1//EN"
 "http://www.w3.org/Graphics/SVG/1.1/DTD/svg11.dtd">
<!-- Generated by graphviz version 6.0.1 (0)
 -->
<!-- Title: snakemake_dag Pages: 1 -->
<svg width="266pt" height="188pt"
 viewBox="0.00 0.00 265.50 188.00" xmlns="http://www.w3.org/2000/svg" xmlns:xlink="http://www.w3.org/1999/xlink">
<g id="graph0" class="graph" transform="scale(1 1) rotate(0) translate(4 184)">
<title>snakemake_dag</title>
<polygon fill="white" stroke="none" points="-4,4 -4,-184 261.5,-184 261.5,4 -4,4"/>
<!-- 0 -->
<g id="node1" class="node">
<title>0</title>
<path fill="none" stroke="#d85656" stroke-width="2" d="M146.5,-36C146.5,-36 116.5,-36 116.5,-36 110.5,-36 104.5,-30 104.5,-24 104.5,-24 104.5,-12 104.5,-12 104.5,-6 110.5,0 116.5,0 116.5,0 146.5,0 146.5,0 152.5,0 158.5,-6 158.5,-12 158.5,-12 158.5,-24 158.5,-24 158.5,-30 152.5,-36 146.5,-36"/>
<text text-anchor="middle" x="131.5" y="-15.5" font-family="sans" font-size="10.00">all</text>
</g>
<!-- 1 -->
<g id="node2" class="node">
<title>1</title>
<path fill="none" stroke="#d8bc56" stroke-width="2" d="M91,-108C91,-108 12,-108 12,-108 6,-108 0,-102 0,-96 0,-96 0,-84 0,-84 0,-78 6,-72 12,-72 12,-72 91,-72 91,-72 97,-72 103,-78 103,-84 103,-84 103,-96 103,-96 103,-102 97,-108 91,-108"/>
<text text-anchor="middle" x="51.5" y="-87.5" font-family="sans" font-size="10.00">get_project_tree_txt</text>
</g>
<!-- 1&#45;&gt;0 -->
<g id="edge1" class="edge">
<title>1&#45;&gt;0</title>
<path fill="none" stroke="grey" stroke-width="2" d="M71.28,-71.7C81.25,-62.97 93.51,-52.24 104.36,-42.75"/>
<polygon fill="grey" stroke="grey" stroke-width="2" points="106.73,-45.32 111.95,-36.1 102.12,-40.06 106.73,-45.32"/>
</g>
<!-- 2 -->
<g id="node3" class="node">
<title>2</title>
<path fill="none" stroke="#56c1d8" stroke-width="2" d="M195,-180C195,-180 144,-180 144,-180 138,-180 132,-174 132,-168 132,-168 132,-156 132,-156 132,-150 138,-144 144,-144 144,-144 195,-144 195,-144 201,-144 207,-150 207,-156 207,-156 207,-168 207,-168 207,-174 201,-180 195,-180"/>
<text text-anchor="middle" x="169.5" y="-159.5" font-family="sans" font-size="10.00">get_rulegraph</text>
</g>
<!-- 2&#45;&gt;0 -->
<g id="edge3" class="edge">
<title>2&#45;&gt;0</title>
<path fill="none" stroke="grey" stroke-width="2" d="M162.57,-143.53C158.67,-133.28 153.92,-120.03 150.5,-108 144.7,-87.61 139.76,-64.15 136.37,-46.44"/>
<polygon fill="grey" stroke="grey" stroke-width="2" points="139.74,-45.42 134.47,-36.23 132.86,-46.7 139.74,-45.42"/>
</g>
<!-- 3 -->
<g id="node4" class="node">
<title>3</title>
<path fill="none" stroke="#88d856" stroke-width="2" d="M245.5,-108C245.5,-108 171.5,-108 171.5,-108 165.5,-108 159.5,-102 159.5,-96 159.5,-96 159.5,-84 159.5,-84 159.5,-78 165.5,-72 171.5,-72 171.5,-72 245.5,-72 245.5,-72 251.5,-72 257.5,-78 257.5,-84 257.5,-84 257.5,-96 257.5,-96 257.5,-102 251.5,-108 245.5,-108"/>
<text text-anchor="middle" x="208.5" y="-87.5" font-family="sans" font-size="10.00">github_page_index</text>
</g>
<!-- 2&#45;&gt;3 -->
<g id="edge4" class="edge">
<title>2&#45;&gt;3</title>
<path fill="none" stroke="grey" stroke-width="2" d="M179.14,-143.7C183.63,-135.64 189.06,-125.89 194.02,-116.98"/>
<polygon fill="grey" stroke="grey" stroke-width="2" points="197.16,-118.54 198.97,-108.1 191.05,-115.14 197.16,-118.54"/>
</g>
<!-- 3&#45;&gt;0 -->
<g id="edge2" class="edge">
<title>3&#45;&gt;0</title>
<path fill="none" stroke="grey" stroke-width="2" d="M189.47,-71.7C179.96,-63.05 168.29,-52.45 157.93,-43.03"/>
<polygon fill="grey" stroke="grey" stroke-width="2" points="160.07,-40.24 150.31,-36.1 155.36,-45.42 160.07,-40.24"/>
</g>
</g>
</svg>
